<svg xmlns="http://www.w3.org/2000/svg" xmlns:xlink="http://www.w3.org/1999/xlink" width="91" height="91" viewBox="0 0 91 91">
  <defs>
    <linearGradient id="linear-gradient" x1="0.5" x2="1" y2="1" gradientUnits="objectBoundingBox">
      <stop offset="0" stop-color="#91cafd"/>
      <stop offset="1" stop-color="#9ae1df"/>
    </linearGradient>
  </defs>
  <g id="Group_2761" data-name="Group 2761" transform="translate(91 91) rotate(180)">
    <g id="Symbol_245_339" data-name="Symbol 245 – 339" transform="translate(-1240 -784)">
      <path id="Subtraction_1" data-name="Subtraction 1" d="M5548,8823h-3v-10h-10v-3h13v13Z" transform="translate(-4295 -8026)" fill="url(#linear-gradient)"/>
    </g>
    <g id="Symbol_245_343" data-name="Symbol 245 – 343" transform="translate(-1214 -784)">
      <path id="Subtraction_1-2" data-name="Subtraction 1" d="M5548,8823h-3v-10h-10v-3h13v13Z" transform="translate(-4295 -8026)" fill="url(#linear-gradient)"/>
    </g>
    <g id="Symbol_245_344" data-name="Symbol 245 – 344" transform="translate(-1214 -758)">
      <path id="Subtraction_1-3" data-name="Subtraction 1" d="M5548,8823h-3v-10h-10v-3h13v13Z" transform="translate(-4295 -8026)" fill="url(#linear-gradient)"/>
    </g>
    <g id="Symbol_245_347" data-name="Symbol 245 – 347" transform="translate(-1188 -784)">
      <path id="Subtraction_1-4" data-name="Subtraction 1" d="M5548,8823h-3v-10h-10v-3h13v13Z" transform="translate(-4295 -8026)" fill="url(#linear-gradient)"/>
    </g>
    <g id="Symbol_245_348" data-name="Symbol 245 – 348" transform="translate(-1188 -758)">
      <path id="Subtraction_1-5" data-name="Subtraction 1" d="M5548,8823h-3v-10h-10v-3h13v13Z" transform="translate(-4295 -8026)" fill="url(#linear-gradient)"/>
    </g>
    <g id="Symbol_245_349" data-name="Symbol 245 – 349" transform="translate(-1188 -732)">
      <path id="Subtraction_1-6" data-name="Subtraction 1" d="M5548,8823h-3v-10h-10v-3h13v13Z" transform="translate(-4295 -8026)" fill="url(#linear-gradient)"/>
    </g>
    <g id="Symbol_245_351" data-name="Symbol 245 – 351" transform="translate(-1162 -784)">
      <path id="Subtraction_1-7" data-name="Subtraction 1" d="M5548,8823h-3v-10h-10v-3h13v13Z" transform="translate(-4295 -8026)" fill="url(#linear-gradient)"/>
    </g>
    <g id="Symbol_245_352" data-name="Symbol 245 – 352" transform="translate(-1162 -758)">
      <path id="Subtraction_1-8" data-name="Subtraction 1" d="M5548,8823h-3v-10h-10v-3h13v13Z" transform="translate(-4295 -8026)" fill="url(#linear-gradient)"/>
    </g>
    <g id="Symbol_245_353" data-name="Symbol 245 – 353" transform="translate(-1162 -732)">
      <path id="Subtraction_1-9" data-name="Subtraction 1" d="M5548,8823h-3v-10h-10v-3h13v13Z" transform="translate(-4295 -8026)" fill="url(#linear-gradient)"/>
    </g>
    <g id="Symbol_245_354" data-name="Symbol 245 – 354" transform="translate(-1162 -706)">
      <path id="Subtraction_1-10" data-name="Subtraction 1" d="M5548,8823h-3v-10h-10v-3h13v13Z" transform="translate(-4295 -8026)" fill="url(#linear-gradient)"/>
    </g>
  </g>
</svg>
