<svg id="dinno" xmlns="http://www.w3.org/2000/svg" xmlns:xlink="http://www.w3.org/1999/xlink" width="62.247" height="61.941" viewBox="0 0 62.247 61.941">
  <defs>
    <clipPath id="clip-path">
      <rect id="Rectangle_3630" data-name="Rectangle 3630" width="40.115" height="39.808" fill="none"/>
    </clipPath>
  </defs>
  <rect id="Rectangle_3311" data-name="Rectangle 3311" width="49.798" height="49.798" fill="#ebe8e8"/>
  <g id="Repeat_Grid_55" data-name="Repeat Grid 55" transform="translate(22.132 22.133)" clip-path="url(#clip-path)">
    <g id="Group_2842" data-name="Group 2842" transform="translate(-162 -1439)">
      <circle id="Ellipse_420" data-name="Ellipse 420" cx="2" cy="2" r="2" transform="translate(162 1439)" fill="#3173ae" opacity="0.5"/>
    </g>
    <g id="Group_2843" data-name="Group 2843" transform="translate(-156 -1439)">
      <circle id="Ellipse_420-2" data-name="Ellipse 420" cx="2" cy="2" r="2" transform="translate(162 1439)" fill="#3173ae" opacity="0.5"/>
    </g>
    <g id="Group_2844" data-name="Group 2844" transform="translate(-150 -1439)">
      <circle id="Ellipse_420-3" data-name="Ellipse 420" cx="2" cy="2" r="2" transform="translate(162 1439)" fill="#3173ae" opacity="0.5"/>
    </g>
    <g id="Group_2845" data-name="Group 2845" transform="translate(-144 -1439)">
      <circle id="Ellipse_420-4" data-name="Ellipse 420" cx="2" cy="2" r="2" transform="translate(162 1439)" fill="#3173ae" opacity="0.5"/>
    </g>
    <g id="Group_2846" data-name="Group 2846" transform="translate(-138 -1439)">
      <circle id="Ellipse_420-5" data-name="Ellipse 420" cx="2" cy="2" r="2" transform="translate(162 1439)" fill="#3173ae" opacity="0.5"/>
    </g>
    <g id="Group_2847" data-name="Group 2847" transform="translate(-132 -1439)">
      <circle id="Ellipse_420-6" data-name="Ellipse 420" cx="2" cy="2" r="2" transform="translate(162 1439)" fill="#3173ae" opacity="0.5"/>
    </g>
    <g id="Group_2848" data-name="Group 2848" transform="translate(-126 -1439)">
      <circle id="Ellipse_420-7" data-name="Ellipse 420" cx="2" cy="2" r="2" transform="translate(162 1439)" fill="#3173ae" opacity="0.5"/>
    </g>
    <g id="Group_2849" data-name="Group 2849" transform="translate(-162 -1433)">
      <circle id="Ellipse_420-8" data-name="Ellipse 420" cx="2" cy="2" r="2" transform="translate(162 1439)" fill="#3173ae" opacity="0.5"/>
    </g>
    <g id="Group_2850" data-name="Group 2850" transform="translate(-156 -1433)">
      <circle id="Ellipse_420-9" data-name="Ellipse 420" cx="2" cy="2" r="2" transform="translate(162 1439)" fill="#3173ae" opacity="0.5"/>
    </g>
    <g id="Group_2851" data-name="Group 2851" transform="translate(-150 -1433)">
      <circle id="Ellipse_420-10" data-name="Ellipse 420" cx="2" cy="2" r="2" transform="translate(162 1439)" fill="#3173ae" opacity="0.5"/>
    </g>
    <g id="Group_2852" data-name="Group 2852" transform="translate(-144 -1433)">
      <circle id="Ellipse_420-11" data-name="Ellipse 420" cx="2" cy="2" r="2" transform="translate(162 1439)" fill="#3173ae" opacity="0.5"/>
    </g>
    <g id="Group_2853" data-name="Group 2853" transform="translate(-138 -1433)">
      <circle id="Ellipse_420-12" data-name="Ellipse 420" cx="2" cy="2" r="2" transform="translate(162 1439)" fill="#3173ae" opacity="0.5"/>
    </g>
    <g id="Group_2854" data-name="Group 2854" transform="translate(-132 -1433)">
      <circle id="Ellipse_420-13" data-name="Ellipse 420" cx="2" cy="2" r="2" transform="translate(162 1439)" fill="#3173ae" opacity="0.5"/>
    </g>
    <g id="Group_2855" data-name="Group 2855" transform="translate(-126 -1433)">
      <circle id="Ellipse_420-14" data-name="Ellipse 420" cx="2" cy="2" r="2" transform="translate(162 1439)" fill="#3173ae" opacity="0.5"/>
    </g>
    <g id="Group_2856" data-name="Group 2856" transform="translate(-162 -1427)">
      <circle id="Ellipse_420-15" data-name="Ellipse 420" cx="2" cy="2" r="2" transform="translate(162 1439)" fill="#3173ae" opacity="0.5"/>
    </g>
    <g id="Group_2857" data-name="Group 2857" transform="translate(-156 -1427)">
      <circle id="Ellipse_420-16" data-name="Ellipse 420" cx="2" cy="2" r="2" transform="translate(162 1439)" fill="#3173ae" opacity="0.5"/>
    </g>
    <g id="Group_2858" data-name="Group 2858" transform="translate(-150 -1427)">
      <circle id="Ellipse_420-17" data-name="Ellipse 420" cx="2" cy="2" r="2" transform="translate(162 1439)" fill="#3173ae" opacity="0.5"/>
    </g>
    <g id="Group_2859" data-name="Group 2859" transform="translate(-144 -1427)">
      <circle id="Ellipse_420-18" data-name="Ellipse 420" cx="2" cy="2" r="2" transform="translate(162 1439)" fill="#3173ae" opacity="0.5"/>
    </g>
    <g id="Group_2860" data-name="Group 2860" transform="translate(-138 -1427)">
      <circle id="Ellipse_420-19" data-name="Ellipse 420" cx="2" cy="2" r="2" transform="translate(162 1439)" fill="#3173ae" opacity="0.5"/>
    </g>
    <g id="Group_2861" data-name="Group 2861" transform="translate(-132 -1427)">
      <circle id="Ellipse_420-20" data-name="Ellipse 420" cx="2" cy="2" r="2" transform="translate(162 1439)" fill="#3173ae" opacity="0.5"/>
    </g>
    <g id="Group_2862" data-name="Group 2862" transform="translate(-126 -1427)">
      <circle id="Ellipse_420-21" data-name="Ellipse 420" cx="2" cy="2" r="2" transform="translate(162 1439)" fill="#3173ae" opacity="0.5"/>
    </g>
    <g id="Group_2863" data-name="Group 2863" transform="translate(-162 -1421)">
      <circle id="Ellipse_420-22" data-name="Ellipse 420" cx="2" cy="2" r="2" transform="translate(162 1439)" fill="#3173ae" opacity="0.5"/>
    </g>
    <g id="Group_2864" data-name="Group 2864" transform="translate(-156 -1421)">
      <circle id="Ellipse_420-23" data-name="Ellipse 420" cx="2" cy="2" r="2" transform="translate(162 1439)" fill="#3173ae" opacity="0.5"/>
    </g>
    <g id="Group_2865" data-name="Group 2865" transform="translate(-150 -1421)">
      <circle id="Ellipse_420-24" data-name="Ellipse 420" cx="2" cy="2" r="2" transform="translate(162 1439)" fill="#3173ae" opacity="0.5"/>
    </g>
    <g id="Group_2866" data-name="Group 2866" transform="translate(-144 -1421)">
      <circle id="Ellipse_420-25" data-name="Ellipse 420" cx="2" cy="2" r="2" transform="translate(162 1439)" fill="#3173ae" opacity="0.5"/>
    </g>
    <g id="Group_2867" data-name="Group 2867" transform="translate(-138 -1421)">
      <circle id="Ellipse_420-26" data-name="Ellipse 420" cx="2" cy="2" r="2" transform="translate(162 1439)" fill="#3173ae" opacity="0.5"/>
    </g>
    <g id="Group_2868" data-name="Group 2868" transform="translate(-132 -1421)">
      <circle id="Ellipse_420-27" data-name="Ellipse 420" cx="2" cy="2" r="2" transform="translate(162 1439)" fill="#3173ae" opacity="0.5"/>
    </g>
    <g id="Group_2869" data-name="Group 2869" transform="translate(-126 -1421)">
      <circle id="Ellipse_420-28" data-name="Ellipse 420" cx="2" cy="2" r="2" transform="translate(162 1439)" fill="#3173ae" opacity="0.5"/>
    </g>
    <g id="Group_2870" data-name="Group 2870" transform="translate(-162 -1415)">
      <circle id="Ellipse_420-29" data-name="Ellipse 420" cx="2" cy="2" r="2" transform="translate(162 1439)" fill="#3173ae" opacity="0.5"/>
    </g>
    <g id="Group_2871" data-name="Group 2871" transform="translate(-156 -1415)">
      <circle id="Ellipse_420-30" data-name="Ellipse 420" cx="2" cy="2" r="2" transform="translate(162 1439)" fill="#3173ae" opacity="0.5"/>
    </g>
    <g id="Group_2872" data-name="Group 2872" transform="translate(-150 -1415)">
      <circle id="Ellipse_420-31" data-name="Ellipse 420" cx="2" cy="2" r="2" transform="translate(162 1439)" fill="#3173ae" opacity="0.5"/>
    </g>
    <g id="Group_2873" data-name="Group 2873" transform="translate(-144 -1415)">
      <circle id="Ellipse_420-32" data-name="Ellipse 420" cx="2" cy="2" r="2" transform="translate(162 1439)" fill="#3173ae" opacity="0.5"/>
    </g>
    <g id="Group_2874" data-name="Group 2874" transform="translate(-138 -1415)">
      <circle id="Ellipse_420-33" data-name="Ellipse 420" cx="2" cy="2" r="2" transform="translate(162 1439)" fill="#3173ae" opacity="0.5"/>
    </g>
    <g id="Group_2875" data-name="Group 2875" transform="translate(-132 -1415)">
      <circle id="Ellipse_420-34" data-name="Ellipse 420" cx="2" cy="2" r="2" transform="translate(162 1439)" fill="#3173ae" opacity="0.5"/>
    </g>
    <g id="Group_2876" data-name="Group 2876" transform="translate(-126 -1415)">
      <circle id="Ellipse_420-35" data-name="Ellipse 420" cx="2" cy="2" r="2" transform="translate(162 1439)" fill="#3173ae" opacity="0.5"/>
    </g>
    <g id="Group_2877" data-name="Group 2877" transform="translate(-162 -1409)">
      <circle id="Ellipse_420-36" data-name="Ellipse 420" cx="2" cy="2" r="2" transform="translate(162 1439)" fill="#3173ae" opacity="0.5"/>
    </g>
    <g id="Group_2878" data-name="Group 2878" transform="translate(-156 -1409)">
      <circle id="Ellipse_420-37" data-name="Ellipse 420" cx="2" cy="2" r="2" transform="translate(162 1439)" fill="#3173ae" opacity="0.5"/>
    </g>
    <g id="Group_2879" data-name="Group 2879" transform="translate(-150 -1409)">
      <circle id="Ellipse_420-38" data-name="Ellipse 420" cx="2" cy="2" r="2" transform="translate(162 1439)" fill="#3173ae" opacity="0.5"/>
    </g>
    <g id="Group_2880" data-name="Group 2880" transform="translate(-144 -1409)">
      <circle id="Ellipse_420-39" data-name="Ellipse 420" cx="2" cy="2" r="2" transform="translate(162 1439)" fill="#3173ae" opacity="0.5"/>
    </g>
    <g id="Group_2881" data-name="Group 2881" transform="translate(-138 -1409)">
      <circle id="Ellipse_420-40" data-name="Ellipse 420" cx="2" cy="2" r="2" transform="translate(162 1439)" fill="#3173ae" opacity="0.5"/>
    </g>
    <g id="Group_2882" data-name="Group 2882" transform="translate(-132 -1409)">
      <circle id="Ellipse_420-41" data-name="Ellipse 420" cx="2" cy="2" r="2" transform="translate(162 1439)" fill="#3173ae" opacity="0.5"/>
    </g>
    <g id="Group_2883" data-name="Group 2883" transform="translate(-126 -1409)">
      <circle id="Ellipse_420-42" data-name="Ellipse 420" cx="2" cy="2" r="2" transform="translate(162 1439)" fill="#3173ae" opacity="0.5"/>
    </g>
    <g id="Group_2884" data-name="Group 2884" transform="translate(-162 -1403)">
      <circle id="Ellipse_420-43" data-name="Ellipse 420" cx="2" cy="2" r="2" transform="translate(162 1439)" fill="#3173ae" opacity="0.5"/>
    </g>
    <g id="Group_2885" data-name="Group 2885" transform="translate(-156 -1403)">
      <circle id="Ellipse_420-44" data-name="Ellipse 420" cx="2" cy="2" r="2" transform="translate(162 1439)" fill="#3173ae" opacity="0.5"/>
    </g>
    <g id="Group_2886" data-name="Group 2886" transform="translate(-150 -1403)">
      <circle id="Ellipse_420-45" data-name="Ellipse 420" cx="2" cy="2" r="2" transform="translate(162 1439)" fill="#3173ae" opacity="0.5"/>
    </g>
    <g id="Group_2887" data-name="Group 2887" transform="translate(-144 -1403)">
      <circle id="Ellipse_420-46" data-name="Ellipse 420" cx="2" cy="2" r="2" transform="translate(162 1439)" fill="#3173ae" opacity="0.5"/>
    </g>
    <g id="Group_2888" data-name="Group 2888" transform="translate(-138 -1403)">
      <circle id="Ellipse_420-47" data-name="Ellipse 420" cx="2" cy="2" r="2" transform="translate(162 1439)" fill="#3173ae" opacity="0.5"/>
    </g>
    <g id="Group_2889" data-name="Group 2889" transform="translate(-132 -1403)">
      <circle id="Ellipse_420-48" data-name="Ellipse 420" cx="2" cy="2" r="2" transform="translate(162 1439)" fill="#3173ae" opacity="0.5"/>
    </g>
    <g id="Group_2890" data-name="Group 2890" transform="translate(-126 -1403)">
      <circle id="Ellipse_420-49" data-name="Ellipse 420" cx="2" cy="2" r="2" transform="translate(162 1439)" fill="#3173ae" opacity="0.5"/>
    </g>
  </g>
</svg>
