<svg xmlns="http://www.w3.org/2000/svg" xmlns:xlink="http://www.w3.org/1999/xlink" width="124.309" height="116.93" viewBox="0 0 124.309 116.93">
  <defs>
    <linearGradient id="linear-gradient" x2="1.57" y2="1.744" gradientUnits="objectBoundingBox">
      <stop offset="0" stop-color="#e1f7f7"/>
      <stop offset="1" stop-color="#81bef2"/>
    </linearGradient>
  </defs>
  <path id="Intersection_2" data-name="Intersection 2" d="M-5991.424,6615.2l-2.575-4.465,2.575-4.463h5.156l2.577,4.463-2.577,4.465Zm-19,0-2.577-4.465,2.577-4.463h5.156l2.577,4.463-2.577,4.465Zm-19,0-2.577-4.465,2.577-4.463h5.156l2.577,4.463-2.577,4.465Zm-19,0-2.579-4.465,2.579-4.463h5.154l2.577,4.463-2.577,4.465Zm-19,0-2.577-4.465,2.577-4.463h5.156l2.577,4.463-2.577,4.465Zm-19,0-2.579-4.465,2.579-4.463h5.154l2.577,4.463-2.577,4.465Zm-19,0-2.577-4.465,2.577-4.463h5.154l2.579,4.463-2.579,4.465Zm95-18-2.577-4.463,2.577-4.465h5.156l2.577,4.465-2.577,4.463Zm-19,0-2.577-4.463,2.577-4.465h5.156l2.577,4.465-2.577,4.463Zm-19,0-2.579-4.463,2.579-4.465h5.154l2.577,4.465-2.577,4.463Zm-19,0-2.577-4.463,2.577-4.465h5.156l2.577,4.465-2.577,4.463Zm-19,0-2.579-4.463,2.579-4.465h5.154l2.577,4.465-2.577,4.463Zm-19,0-2.577-4.463,2.577-4.465h5.154l2.579,4.465-2.579,4.463Zm76-18-2.577-4.465,2.577-4.465h5.156l2.577,4.465-2.577,4.465Zm-19,0-2.579-4.465,2.579-4.465h5.154l2.577,4.465-2.577,4.465Zm-19,0-2.577-4.465,2.577-4.465h5.156l2.577,4.465-2.577,4.465Zm-19,0-2.579-4.465,2.579-4.465h5.154l2.577,4.465-2.577,4.465Zm-19,0-2.577-4.465,2.577-4.465h5.154l2.579,4.465-2.579,4.465Zm57-18-2.579-4.463,2.579-4.465h5.154l2.577,4.465-2.577,4.463Zm-19,0-2.577-4.463,2.577-4.465h5.156l2.577,4.465-2.577,4.463Zm-19,0-2.579-4.463,2.579-4.465h5.154l2.577,4.465-2.577,4.463Zm-19,0-2.577-4.463,2.577-4.465h5.154l2.579,4.465-2.579,4.463Zm38-18-2.577-4.465,2.577-4.465h5.156l2.577,4.465-2.577,4.465Zm-19,0-2.579-4.465,2.579-4.465h5.154l2.577,4.465-2.577,4.465Zm-19,0-2.577-4.465,2.577-4.465h5.154l2.579,4.465-2.579,4.465Zm19-18-2.579-4.464,2.579-4.465h5.154l2.577,4.465-2.577,4.464Zm-19,0-2.577-4.464,2.577-4.465h5.154l2.579,4.465-2.579,4.464Zm0-18-2.577-4.465,2.577-4.465h5.154l2.579,4.465-2.579,4.465Z" transform="translate(6108 -6498.27)" fill="url(#linear-gradient)"/>
</svg>
