<svg xmlns="http://www.w3.org/2000/svg" viewBox="0 0 59.828 59.828">
  <defs>
    <style>
      .cls-1 {
        fill: #21415d;
      }
    </style>
  </defs>
  <path id="HP_New_Logo_2D" class="cls-1" d="M30.764,60.678c-.3,0-.593-.005-.889-.014l6.113-16.8H44.4A4.125,4.125,0,0,0,48,41.34l6.633-18.218c1.085-2.983-.623-5.423-3.8-5.423H39.168L29.375,44.61h0L23.819,59.865A29.921,29.921,0,0,1,22.687,1.954L16.959,17.7h0L7.434,43.862h6.34l8.1-22.232h4.765l-8.1,22.232h6.337l7.547-20.742C33.509,20.14,31.8,17.7,28.629,17.7H23.3L29.419.881c.446-.02.894-.031,1.344-.031a29.914,29.914,0,0,1,0,59.828Zm18.1-39.063H44.1l-6.671,18.3h4.763Z" transform="translate(-0.849 -0.85)"/>
</svg>
