<svg xmlns="http://www.w3.org/2000/svg" xmlns:xlink="http://www.w3.org/1999/xlink" viewBox="0 0 65.35 65.35">
  <defs>
    <style>
      .cls-1 {
        fill: #fff;
        stroke: #707070;
      }

      .cls-2 {
        clip-path: url(#clip-path);
      }

      .cls-3 {
        fill: url(#linear-gradient);
      }

      .cls-4 {
        fill: #1d9dd4;
      }

      .cls-5 {
        fill: #21c6bf;
      }

      .cls-6 {
        filter: url(#Ellipse_399);
      }
    </style>
    <clipPath id="clip-path">
      <rect id="Rectangle_3287" data-name="Rectangle 3287" class="cls-1" width="65.35" height="65.35" transform="translate(140 4450)"/>
    </clipPath>
    <linearGradient id="linear-gradient" x1="0.391" y1="0.986" x2="0.62" y2="0.012" gradientUnits="objectBoundingBox">
      <stop offset="0" stop-color="#78d9d5"/>
      <stop offset="1" stop-color="#6ee9d0"/>
    </linearGradient>
    <filter id="Ellipse_399" x="-9" y="-6" width="83.354" height="83.354" filterUnits="userSpaceOnUse">
      <feOffset dy="3" input="SourceAlpha"/>
      <feGaussianBlur stdDeviation="3" result="blur"/>
      <feFlood flood-opacity="0.161"/>
      <feComposite operator="in" in2="blur"/>
      <feComposite in="SourceGraphic"/>
    </filter>
  </defs>
  <g id="Mask_Group_66" data-name="Mask Group 66" class="cls-2" transform="translate(-140 -4450)">
    <g id="Group_2515" data-name="Group 2515" transform="translate(0 -13.471)">
      <g id="Group_2486" data-name="Group 2486" transform="translate(-3613.279 2469.321) rotate(-60)">
        <g class="cls-6" transform="matrix(0.5, 0.87, -0.87, 0.5, 149.65, 4247.51)">
          <ellipse id="Ellipse_399-2" data-name="Ellipse 399" class="cls-3" cx="23.921" cy="23.921" rx="23.921" ry="23.921" transform="translate(0 41.43) rotate(-60)"/>
        </g>
      </g>
      <path id="Rectangle_3274" data-name="Rectangle 3274" class="cls-4" d="M0,0H22a0,0,0,0,1,0,0V11a1,1,0,0,1-1,1H1a1,1,0,0,1-1-1V0A0,0,0,0,1,0,0Z" transform="translate(162 4493)"/>
      <path id="Rectangle_3275" data-name="Rectangle 3275" class="cls-5" d="M1,0H21a1,1,0,0,1,1,1V3a0,0,0,0,1,0,0H0A0,0,0,0,1,0,3V1A1,1,0,0,1,1,0Z" transform="translate(162 4487)"/>
    </g>
  </g>
</svg>
