<svg xmlns="http://www.w3.org/2000/svg" xmlns:xlink="http://www.w3.org/1999/xlink" viewBox="0 0 248.205 45.372">
  <defs>
    <style>
      .cls-1 {
        fill: #102f54;
      }

      .cls-2 {
        fill: url(#linear-gradient);
      }

      .cls-3 {
        fill: url(#linear-gradient-2);
      }

      .cls-4 {
        fill: url(#linear-gradient-3);
      }
    </style>
    <linearGradient id="linear-gradient" x1="0.5" x2="1.068" y2="1.123" gradientUnits="objectBoundingBox">
      <stop offset="0" stop-color="#102f54"/>
      <stop offset="1" stop-color="#b7cae3"/>
    </linearGradient>
    <linearGradient id="linear-gradient-2" x1="0.334" y1="0.073" x2="1.031" y2="1.107" gradientUnits="objectBoundingBox">
      <stop offset="0" stop-color="#18365b"/>
      <stop offset="1" stop-color="#a2b6d1"/>
    </linearGradient>
    <linearGradient id="linear-gradient-3" x2="1.065" y2="1.103" xlink:href="#linear-gradient"/>
  </defs>
  <g id="Group_2388" data-name="Group 2388" transform="translate(-64.48 -32.753)">
    <g id="logo_v4" data-name="logo v4" transform="translate(118.688 35.757)">
      <path id="Path_1760" data-name="Path 1760" class="cls-1" d="M15.779-19.1a7.114,7.114,0,0,0-2.713-1.953A9.619,9.619,0,0,0,9.7-21.576a12.3,12.3,0,0,0-3.24.372,6.075,6.075,0,0,0-2.217,1.069,4.189,4.189,0,0,0-1.271,1.659,5.564,5.564,0,0,0-.4,2.17,4.308,4.308,0,0,0,.4,1.968A3.463,3.463,0,0,0,4.216-13a8.263,8.263,0,0,0,2.155.93q1.317.387,3.147.759t3.317.806a10.045,10.045,0,0,1,2.526,1.085,4.667,4.667,0,0,1,1.6,1.612,4.757,4.757,0,0,1,.558,2.418,4.7,4.7,0,0,1-2.061,4.123A9.877,9.877,0,0,1,9.765.155,12.7,12.7,0,0,1,5.037-.667,11.37,11.37,0,0,1,1.209-3.255l.465-.4A10.32,10.32,0,0,0,5.316-1.147,12.153,12.153,0,0,0,9.8-.372,9.533,9.533,0,0,0,14.989-1.6,4.1,4.1,0,0,0,16.9-5.3a4.576,4.576,0,0,0-.434-2.092,4,4,0,0,0-1.333-1.473A8.474,8.474,0,0,0,12.834-9.92a31.958,31.958,0,0,0-3.286-.806q-1.829-.341-3.24-.729a9.117,9.117,0,0,1-2.387-.992,4.058,4.058,0,0,1-1.472-1.519,4.735,4.735,0,0,1-.5-2.278A5.643,5.643,0,0,1,2.5-18.771a5.165,5.165,0,0,1,1.55-1.86,7.092,7.092,0,0,1,2.418-1.147,12,12,0,0,1,3.177-.387,10.175,10.175,0,0,1,3.674.6,7.6,7.6,0,0,1,2.868,2.031ZM21.731,0V-22.01h.62V0Zm6.758,0V-22.01h.62V-.62H42.935V0ZM41.168-22.01,50.437-.775,59.675-22.01h.682L50.778,0H50.1L40.517-22.01ZM78.461-.62V0H64.015V-22.01H78.182v.62H64.635v9.827H76.508v.62H64.635V-.62ZM83.142,0V-22.01H92.1a5.468,5.468,0,0,1,2.48.573,6.327,6.327,0,0,1,1.969,1.519,7.243,7.243,0,0,1,1.286,2.139,6.651,6.651,0,0,1,.465,2.433,7.513,7.513,0,0,1-.4,2.449A6.74,6.74,0,0,1,96.751-10.8a6.04,6.04,0,0,1-1.783,1.488,5.506,5.506,0,0,1-2.278.667L98.27,0h-.744l-5.58-8.649H83.762V0Zm.62-9.269h8.556A4.683,4.683,0,0,0,94.55-9.8a5.481,5.481,0,0,0,1.69-1.379,6.212,6.212,0,0,0,1.069-1.937,6.835,6.835,0,0,0,.372-2.232,6.038,6.038,0,0,0-.434-2.263,6.333,6.333,0,0,0-1.193-1.922,6.02,6.02,0,0,0-1.783-1.348,4.788,4.788,0,0,0-2.17-.511H83.762ZM131.719-21.7,125.364-2.945,118.978-21.7h-2.139L110.36-3.038,104.1-21.7h-2.356L109.058,0h2.387l6.386-18.507L124.186,0H126.6l7.316-21.7ZM139.345,0h2.294V-21.7h-2.294Zm26.474-21.7V-4.092L151.838-21.7h-1.891V0h2.294V-17.608L166.191,0h1.891V-21.7ZM191.673-3.534A9.4,9.4,0,0,1,186-1.86a8.892,8.892,0,0,1-9.269-8.99c0-5.177,3.937-8.99,9.3-8.99a8.85,8.85,0,0,1,6.541,2.542L194-18.755a10.693,10.693,0,0,0-8.06-3.131c-6.634,0-11.47,4.681-11.47,11.036S179.3.186,185.907.186a11.974,11.974,0,0,0,7.967-2.759V-10.85h-2.2Z" transform="translate(0 30)"/>
    </g>
    <g id="Group_2172" data-name="Group 2172" transform="translate(64.482 32.753)">
      <path id="Path_1619" data-name="Path 1619" class="cls-2" d="M20679.375-11309.314a26.8,26.8,0,0,1,8.426-1.506s6.758-7.725,14.385-1.295,9.789,32.813,9.789,32.813a190.776,190.776,0,0,0-15.572-24.162C20690.908-11310.308,20686.176-11311.528,20679.375-11309.314Z" transform="translate(-20679.375 11324.674)"/>
      <path id="Path_1620" data-name="Path 1620" class="cls-3" d="M20653.412-11382.484s7.412,11.129-5.656,24.078,9.744,15.482,9.744,15.482-21.963.021-22.029-17.719c0,0-.521-5.408,6.422-8.709C20648.82-11372.65,20652.678-11379.9,20653.412-11382.484Z" transform="translate(-20618.57 11382.484)"/>
      <path id="Path_1623" data-name="Path 1623" class="cls-4" d="M20699.129-11307.616c2.68,9,3.725,20.971,3.725,20.971s-2.246-4.37-6.771-11.463C20693.543-11302.7,20699.129-11307.616,20699.129-11307.616Z" transform="translate(-20670.256 11332.017)"/>
    </g>
  </g>
</svg>
