<svg xmlns="http://www.w3.org/2000/svg" xmlns:xlink="http://www.w3.org/1999/xlink" width="825" height="673" viewBox="0 0 825 673">
  <defs>
    <clipPath id="clip-path">
      <rect id="Rectangle_3412" data-name="Rectangle 3412" width="825" height="673" transform="translate(1095 3155)" fill="none"/>
    </clipPath>
    <filter id="Rectangle_3377" x="4" y="4" width="1055" height="665" filterUnits="userSpaceOnUse">
      <feOffset dy="3" input="SourceAlpha"/>
      <feGaussianBlur stdDeviation="3" result="blur"/>
      <feFlood flood-color="#c5e0ef" flood-opacity="0.678"/>
      <feComposite operator="in" in2="blur"/>
      <feComposite in="SourceGraphic"/>
    </filter>
    <linearGradient id="linear-gradient" x1="0.5" x2="0.5" y2="1" gradientUnits="objectBoundingBox">
      <stop offset="0" stop-color="#d5e8fc"/>
      <stop offset="1" stop-color="#fff"/>
    </linearGradient>
    <linearGradient id="linear-gradient-2" x1="0.5" x2="0.5" y2="1" gradientUnits="objectBoundingBox">
      <stop offset="0" stop-color="#d7fcf5"/>
      <stop offset="1" stop-color="#fff"/>
    </linearGradient>
    <linearGradient id="linear-gradient-3" y1="0.5" x2="1" y2="0.5" gradientUnits="objectBoundingBox">
      <stop offset="0" stop-color="#fcfcfc" stop-opacity="0"/>
      <stop offset="0.768" stop-color="#fcfcfc"/>
      <stop offset="1" stop-color="#fcfcfc"/>
    </linearGradient>
    <filter id="Ellipse_447" x="300" y="327" width="35" height="35" filterUnits="userSpaceOnUse">
      <feOffset dy="3" input="SourceAlpha"/>
      <feGaussianBlur stdDeviation="3" result="blur-2"/>
      <feFlood flood-color="#225978" flood-opacity="0.251"/>
      <feComposite operator="in" in2="blur-2"/>
      <feComposite in="SourceGraphic"/>
    </filter>
  </defs>
  <g id="Mask_Group_87" data-name="Mask Group 87" transform="translate(-1095 -3155)" clip-path="url(#clip-path)">
    <g id="Group_2620" data-name="Group 2620">
      <g transform="matrix(1, 0, 0, 1, 1095, 3155)" filter="url(#Rectangle_3377)">
        <rect id="Rectangle_3377-2" data-name="Rectangle 3377" width="1037" height="647" transform="translate(13 10)" fill="#fff"/>
      </g>
      <rect id="Rectangle_3382" data-name="Rectangle 3382" width="1037" height="169" transform="translate(1108 3165)" fill="#f0f5fa"/>
      <path id="Path_1851" data-name="Path 1851" d="M1.32-5.32C1.32-2.04,3.22.24,7.3.24c4.04,0,5.94-2.26,5.94-5.58v-8H10.36v7.92A2.839,2.839,0,0,1,7.3-2.28,2.85,2.85,0,0,1,4.2-5.42v-7.92H1.32ZM25.68,0h2.74V-13.34H25.58V-4.7L19.4-13.34H16.48V0h2.84V-8.96Zm5.98,0H34.5V-13.34H31.66Zm9.16,0h2.86V-10.84h3.88v-2.5H36.92v2.5h3.9ZM55.7,0h2.84V-4.78h3.4a4.154,4.154,0,0,0,4.48-4.26,4.163,4.163,0,0,0-4.48-4.3H55.7Zm7.82-9.06a1.818,1.818,0,0,1-1.96,1.84H58.54V-10.9h3.02A1.83,1.83,0,0,1,63.52-9.06ZM76.32,0h3.26l-3-5.08A3.828,3.828,0,0,0,79.5-9.04a4.154,4.154,0,0,0-4.48-4.3H68.78V0h2.84V-4.78H73.7Zm.28-9.06a1.841,1.841,0,0,1-2,1.84H71.62V-10.9H74.6A1.841,1.841,0,0,1,76.6-9.06ZM82.24,0h2.84V-13.34H82.24ZM94.68.24a6.192,6.192,0,0,0,5.68-3.28L97.92-4.22a3.616,3.616,0,0,1-3.24,1.94A4.135,4.135,0,0,1,90.6-6.66a4.135,4.135,0,0,1,4.08-4.38A3.653,3.653,0,0,1,97.92-9.1l2.44-1.2a6.156,6.156,0,0,0-5.68-3.26,6.753,6.753,0,0,0-7,6.9A6.753,6.753,0,0,0,94.68.24ZM102.66,0h9.44V-2.46h-6.6v-3.1h6.46V-8H105.5v-2.9h6.6v-2.44h-9.44Z" transform="translate(1166 3234)" fill="#809aaf"/>
      <path id="Path_1856" data-name="Path 1856" d="M9.5-2.3a2.458,2.458,0,0,1-1.86.78,3.075,3.075,0,0,1-1.32-.36,3.4,3.4,0,0,0-1.52-.4,3.536,3.536,0,0,0-1.04.16A3.031,3.031,0,0,0,5.22-4.64a3.963,3.963,0,0,0-.08-.72H7.5V-6.6H4.52l-.36-.48A3.712,3.712,0,0,1,3.1-9.5a2.438,2.438,0,0,1,2.64-2.38,2.619,2.619,0,0,1,2.4,1.58l1.6-.96a4.445,4.445,0,0,0-4.2-2.28c-2.42,0-4.6,1.7-4.6,4A4.4,4.4,0,0,0,2.28-6.62l.02.02H.4v1.24H3.16A2.426,2.426,0,0,1,3.44-4.2C3.44-3.06,2.5-2,.92-1.3L1.62.14A5.469,5.469,0,0,1,3.96-.64a3.6,3.6,0,0,1,1.58.4,4.319,4.319,0,0,0,2.02.5A3.705,3.705,0,0,0,10.32-.7ZM14.84,0h2V-13.34H15.08L11.5-9.68l1.18,1.22,2.16-2.26Zm5.12,0h9.4V-1.76H23.14C26.8-4.58,29.3-6.92,29.3-9.52c0-2.66-2.26-4.02-4.66-4.02a6.1,6.1,0,0,0-4.78,2.12l1.18,1.3a4.579,4.579,0,0,1,3.62-1.64,2.314,2.314,0,0,1,2.6,2.24c0,2.1-2.3,4.1-7.3,7.94Zm12.3-6.66c0,3.3,1.52,6.9,5.22,6.9s5.22-3.6,5.22-6.9-1.52-6.88-5.22-6.88S32.26-9.96,32.26-6.66Zm8.4,0c0,2.6-.82,5.12-3.18,5.12S34.3-4.06,34.3-6.66s.82-5.1,3.18-5.1S40.66-9.26,40.66-6.66Z" transform="translate(1166 3401)" fill="#92a9be"/>
      <path id="Path_1857" data-name="Path 1857" d="M9.5-2.3a2.458,2.458,0,0,1-1.86.78,3.075,3.075,0,0,1-1.32-.36,3.4,3.4,0,0,0-1.52-.4,3.536,3.536,0,0,0-1.04.16A3.031,3.031,0,0,0,5.22-4.64a3.963,3.963,0,0,0-.08-.72H7.5V-6.6H4.52l-.36-.48A3.712,3.712,0,0,1,3.1-9.5a2.438,2.438,0,0,1,2.64-2.38,2.619,2.619,0,0,1,2.4,1.58l1.6-.96a4.445,4.445,0,0,0-4.2-2.28c-2.42,0-4.6,1.7-4.6,4A4.4,4.4,0,0,0,2.28-6.62l.02.02H.4v1.24H3.16A2.426,2.426,0,0,1,3.44-4.2C3.44-3.06,2.5-2,.92-1.3L1.62.14A5.469,5.469,0,0,1,3.96-.64a3.6,3.6,0,0,1,1.58.4,4.319,4.319,0,0,0,2.02.5A3.705,3.705,0,0,0,10.32-.7ZM14.84,0h2V-13.34H15.08L11.5-9.68l1.18,1.22,2.16-2.26Zm7.78,0h2V-13.34H22.86L19.28-9.68l1.18,1.22,2.16-2.26Zm5-6.66c0,3.3,1.52,6.9,5.22,6.9s5.22-3.6,5.22-6.9-1.52-6.88-5.22-6.88S27.62-9.96,27.62-6.66Zm8.4,0c0,2.6-.82,5.12-3.18,5.12s-3.18-2.52-3.18-5.12.82-5.1,3.18-5.1S36.02-9.26,36.02-6.66Z" transform="translate(1166 3496)" fill="#92a9be"/>
      <path id="Path_1858" data-name="Path 1858" d="M9.5-2.3a2.458,2.458,0,0,1-1.86.78,3.075,3.075,0,0,1-1.32-.36,3.4,3.4,0,0,0-1.52-.4,3.536,3.536,0,0,0-1.04.16A3.031,3.031,0,0,0,5.22-4.64a3.963,3.963,0,0,0-.08-.72H7.5V-6.6H4.52l-.36-.48A3.712,3.712,0,0,1,3.1-9.5a2.438,2.438,0,0,1,2.64-2.38,2.619,2.619,0,0,1,2.4,1.58l1.6-.96a4.445,4.445,0,0,0-4.2-2.28c-2.42,0-4.6,1.7-4.6,4A4.4,4.4,0,0,0,2.28-6.62l.02.02H.4v1.24H3.16A2.426,2.426,0,0,1,3.44-4.2C3.44-3.06,2.5-2,.92-1.3L1.62.14A5.469,5.469,0,0,1,3.96-.64a3.6,3.6,0,0,1,1.58.4,4.319,4.319,0,0,0,2.02.5A3.705,3.705,0,0,0,10.32-.7ZM14.84,0h2V-13.34H15.08L11.5-9.68l1.18,1.22,2.16-2.26Zm5-6.66c0,3.3,1.52,6.9,5.22,6.9s5.22-3.6,5.22-6.9-1.52-6.88-5.22-6.88S19.84-9.96,19.84-6.66Zm8.4,0c0,2.6-.82,5.12-3.18,5.12s-3.18-2.52-3.18-5.12.82-5.1,3.18-5.1S28.24-9.26,28.24-6.66Zm4.48,0c0,3.3,1.52,6.9,5.22,6.9s5.22-3.6,5.22-6.9-1.52-6.88-5.22-6.88S32.72-9.96,32.72-6.66Zm8.4,0c0,2.6-.82,5.12-3.18,5.12s-3.18-2.52-3.18-5.12.82-5.1,3.18-5.1S41.12-9.26,41.12-6.66Z" transform="translate(1166 3591)" fill="#92a9be"/>
      <path id="Path_1859" data-name="Path 1859" d="M9.5-2.3a2.458,2.458,0,0,1-1.86.78,3.075,3.075,0,0,1-1.32-.36,3.4,3.4,0,0,0-1.52-.4,3.536,3.536,0,0,0-1.04.16A3.031,3.031,0,0,0,5.22-4.64a3.963,3.963,0,0,0-.08-.72H7.5V-6.6H4.52l-.36-.48A3.712,3.712,0,0,1,3.1-9.5a2.438,2.438,0,0,1,2.64-2.38,2.619,2.619,0,0,1,2.4,1.58l1.6-.96a4.445,4.445,0,0,0-4.2-2.28c-2.42,0-4.6,1.7-4.6,4A4.4,4.4,0,0,0,2.28-6.62l.02.02H.4v1.24H3.16A2.426,2.426,0,0,1,3.44-4.2C3.44-3.06,2.5-2,.92-1.3L1.62.14A5.469,5.469,0,0,1,3.96-.64a3.6,3.6,0,0,1,1.58.4,4.319,4.319,0,0,0,2.02.5A3.705,3.705,0,0,0,10.32-.7Zm3.22.98A4.928,4.928,0,0,0,16.48.22c3.8,0,5.66-3.16,5.66-6.88,0-3.68-1.5-6.9-5.34-6.9A4.484,4.484,0,0,0,12-9.14a4.126,4.126,0,0,0,4.44,4.3,4.806,4.806,0,0,0,3.68-1.98v.46c0,2.36-1.08,4.8-3.64,4.8a3.454,3.454,0,0,1-2.8-1.26Zm7.34-7.04a3.793,3.793,0,0,1-3.12,1.78c-1.58,0-2.9-.84-2.9-2.62a2.681,2.681,0,0,1,2.86-2.58C19.08-11.78,19.94-9.9,20.06-8.36Zm4.52,1.7c0,3.3,1.52,6.9,5.22,6.9s5.22-3.6,5.22-6.9-1.52-6.88-5.22-6.88S24.58-9.96,24.58-6.66Zm8.4,0c0,2.6-.82,5.12-3.18,5.12s-3.18-2.52-3.18-5.12.82-5.1,3.18-5.1S32.98-9.26,32.98-6.66Z" transform="translate(1166 3686)" fill="#92a9be"/>
      <path id="Path_1850" data-name="Path 1850" d="M18.88-4.04a5.126,5.126,0,0,1-3.8,1.6,6.014,6.014,0,0,1-2.76-.76,6.827,6.827,0,0,0-3.16-.88,6.65,6.65,0,0,0-2.08.36A6.386,6.386,0,0,0,10.12-9a5.766,5.766,0,0,0-.24-1.72h4.84v-2.16h-6c-.28-.4-.6-.76-.88-1.12-1.16-1.4-2.36-2.84-2.36-5.16,0-3.2,2.68-5.12,5.72-5.12A5.574,5.574,0,0,1,16.28-21l2.68-1.6a8.708,8.708,0,0,0-8.08-4.48C6-27.08,1.92-23.6,1.92-19.2c0,2.72,1.44,4.4,2.8,6,.08.12.2.2.28.32H.76v2.16h5.8a5.2,5.2,0,0,1,.6,2.4c0,2.4-1.92,4.6-5.32,6.12L3.04.28a11.2,11.2,0,0,1,4.72-1.6A6.755,6.755,0,0,1,11-.44a8.016,8.016,0,0,0,3.92.96,7.53,7.53,0,0,0,5.4-1.88ZM29.84,0h3.32V-26.68H30.24L23.56-19.8l2,2.04,4.28-4.52ZM45.4,0h3.32V-26.68H45.8L39.12-19.8l2,2.04,4.28-4.52ZM57.2-2.76A9.274,9.274,0,0,0,64.6.44c7.48,0,10.84-6.56,10.84-13.76,0-7.28-2.84-13.8-10.32-13.8-5.8,0-9.32,4.12-9.32,8.72,0,5.68,3.96,8.52,8.76,8.52a9.571,9.571,0,0,0,7.52-4.16,9.749,9.749,0,0,1,.04,1.08C72.12-7.92,70-2.52,64.6-2.52a6.892,6.892,0,0,1-5.72-2.72ZM71.96-16.72a7.982,7.982,0,0,1-6.64,3.96c-3.44,0-6.16-1.84-6.16-5.76a5.818,5.818,0,0,1,6.12-5.64C69.92-24.16,71.68-20.04,71.96-16.72ZM80.64-1.8A2.22,2.22,0,0,0,82.84.4a2.22,2.22,0,0,0,2.2-2.2A2.22,2.22,0,0,0,82.84-4,2.22,2.22,0,0,0,80.64-1.8ZM91.48-13.32c0,6.48,2.88,13.8,10.2,13.8,7.28,0,10.2-7.32,10.2-13.8,0-6.52-2.92-13.76-10.2-13.76C94.36-27.08,91.48-19.84,91.48-13.32Zm17,0c0,5.32-1.72,10.84-6.8,10.84S94.88-8,94.88-13.32s1.72-10.8,6.8-10.8S108.48-18.64,108.48-13.32Zm9.48,0c0,6.48,2.88,13.8,10.2,13.8,7.28,0,10.2-7.32,10.2-13.8,0-6.52-2.92-13.76-10.2-13.76C120.84-27.08,117.96-19.84,117.96-13.32Zm17,0c0,5.32-1.72,10.84-6.8,10.84s-6.8-5.52-6.8-10.84,1.72-10.8,6.8-10.8S134.96-18.64,134.96-13.32Z" transform="translate(1166 3284)" fill="#104e8d"/>
      <path id="Path_1852" data-name="Path 1852" d="M2.64-3.8c2,2.64,4.88,4.28,9.4,4.28,5.36,0,9.48-3.36,9.48-8.8a8.173,8.173,0,0,0-8.48-8.52,9.023,9.023,0,0,0-6.24,2.4v-9.28h13v-2.96H3.48v14.4l2.44.84a8.363,8.363,0,0,1,6.16-2.52c3.6,0,6.12,2.24,6.12,5.76,0,3.24-2.52,5.72-6.16,5.72A8.781,8.781,0,0,1,4.68-6Zm25-9.52c0,6.48,2.88,13.8,10.2,13.8,7.28,0,10.2-7.32,10.2-13.8,0-6.52-2.92-13.76-10.2-13.76C30.52-27.08,27.64-19.84,27.64-13.32Zm17,0c0,5.32-1.72,10.84-6.8,10.84S31.04-8,31.04-13.32s1.72-10.8,6.8-10.8S44.64-18.64,44.64-13.32Z" transform="translate(1397 3284)" fill="#104e8d"/>
      <path id="Path_1855" data-name="Path 1855" d="M7.12,0h3.32V-26.68H7.52L.84-19.8l2,2.04,4.28-4.52ZM17.6-13.32C17.6-6.84,20.48.48,27.8.48,35.08.48,38-6.84,38-13.32c0-6.52-2.92-13.76-10.2-13.76C20.48-27.08,17.6-19.84,17.6-13.32Zm17,0C34.6-8,32.88-2.48,27.8-2.48S21-8,21-13.32s1.72-10.8,6.8-10.8S34.6-18.64,34.6-13.32Zm9.48,0c0,6.48,2.88,13.8,10.2,13.8,7.28,0,10.2-7.32,10.2-13.8,0-6.52-2.92-13.76-10.2-13.76C46.96-27.08,44.08-19.84,44.08-13.32Zm17,0c0,5.32-1.72,10.84-6.8,10.84S47.48-8,47.48-13.32s1.72-10.8,6.8-10.8S61.08-18.64,61.08-13.32Z" transform="translate(1581 3284)" fill="#104e8d"/>
      <path id="Path_1853" data-name="Path 1853" d="M14.62-6.66a6.7,6.7,0,0,0-6.98-6.9A6.7,6.7,0,0,0,.68-6.66,6.7,6.7,0,0,0,7.64.24a7.484,7.484,0,0,0,3.18-.68L11.88.82,13.86-.8l-.98-1.14A6.885,6.885,0,0,0,14.62-6.66ZM7.64-2.28c-2.46,0-4.04-1.9-4.04-4.38,0-2.5,1.58-4.38,4.04-4.38A4.049,4.049,0,0,1,11.7-6.66a4.767,4.767,0,0,1-.68,2.54L9.5-5.9,7.52-4.3,9.04-2.52A3.957,3.957,0,0,1,7.64-2.28Zm9.58-3.04c0,3.28,1.9,5.56,5.98,5.56,4.04,0,5.94-2.26,5.94-5.58v-8H26.26v7.92A2.839,2.839,0,0,1,23.2-2.28a2.85,2.85,0,0,1-3.1-3.14v-7.92H17.22ZM41.06,0h3.1L39.02-13.34H35.46L30.3,0h3.12l.84-2.3h5.96ZM37.24-10.88l2.2,6.12H35.02ZM55.2,0h2.74V-13.34H55.1V-4.7l-6.18-8.64H46V0h2.84V-8.96Zm9.06,0h2.86V-10.84H71v-2.5H60.36v2.5h3.9Zm9.16,0h2.84V-13.34H73.42Zm9.16,0h2.86V-10.84h3.88v-2.5H78.68v2.5h3.9ZM95.46,0H98.3V-5.46l5.1-7.88h-3.24L96.88-7.98l-3.32-5.36H90.32l5.14,7.88Z" transform="translate(1397 3234)" fill="#809aaf"/>
      <path id="Path_1854" data-name="Path 1854" d="M4.4,0H7.26V-10.84h3.88v-2.5H.5v2.5H4.4Zm8.04-6.66A6.7,6.7,0,0,0,19.4.24a6.7,6.7,0,0,0,6.98-6.9,6.7,6.7,0,0,0-6.98-6.9A6.7,6.7,0,0,0,12.44-6.66Zm11.02,0A4.06,4.06,0,0,1,19.4-2.28c-2.46,0-4.04-1.9-4.04-4.38,0-2.5,1.58-4.38,4.04-4.38A4.049,4.049,0,0,1,23.46-6.66ZM31.58,0h2.86V-10.84h3.88v-2.5H27.68v2.5h3.9ZM48.8,0h3.1L46.76-13.34H43.2L38.04,0h3.12L42-2.3h5.96ZM44.98-10.88l2.2,6.12H42.76ZM53.74,0h8.48V-2.5H56.58V-13.34H53.74ZM70.52-5.32c0,3.28,1.9,5.56,5.98,5.56,4.04,0,5.94-2.26,5.94-5.58v-8H79.56v7.92A2.839,2.839,0,0,1,76.5-2.28a2.85,2.85,0,0,1-3.1-3.14v-7.92H70.52ZM94.88,0h2.74V-13.34H94.78V-4.7L88.6-13.34H85.68V0h2.84V-8.96Zm5.98,0h2.84V-13.34h-2.84Zm9.16,0h2.86V-10.84h3.88v-2.5H106.12v2.5h3.9Zm8.1-1.88A7.687,7.687,0,0,0,123.78.24c3.6,0,5.34-1.84,5.34-4.28,0-2.96-2.8-3.62-5-4.12-1.54-.36-2.66-.64-2.66-1.54,0-.8.68-1.36,1.96-1.36a5.691,5.691,0,0,1,3.82,1.46l1.58-2.08a7.42,7.42,0,0,0-5.2-1.86c-3.14,0-5.06,1.8-5.06,4.02,0,2.98,2.8,3.58,4.98,4.08,1.54.36,2.7.7,2.7,1.7,0,.76-.76,1.5-2.32,1.5a5.849,5.849,0,0,1-4.24-1.8Zm18.32,0A7.687,7.687,0,0,0,142.1.24c3.6,0,5.34-1.84,5.34-4.28,0-2.96-2.8-3.62-5-4.12-1.54-.36-2.66-.64-2.66-1.54,0-.8.68-1.36,1.96-1.36a5.691,5.691,0,0,1,3.82,1.46l1.58-2.08a7.42,7.42,0,0,0-5.2-1.86c-3.14,0-5.06,1.8-5.06,4.02,0,2.98,2.8,3.58,4.98,4.08,1.54.36,2.7.7,2.7,1.7,0,.76-.76,1.5-2.32,1.5A5.849,5.849,0,0,1,138-4.04Zm12.88-4.78a6.7,6.7,0,0,0,6.96,6.9,6.7,6.7,0,0,0,6.98-6.9,6.7,6.7,0,0,0-6.98-6.9A6.7,6.7,0,0,0,149.32-6.66Zm11.02,0a4.06,4.06,0,0,1-4.06,4.38c-2.46,0-4.04-1.9-4.04-4.38,0-2.5,1.58-4.38,4.04-4.38A4.049,4.049,0,0,1,160.34-6.66ZM165.86,0h8.48V-2.5H168.7V-13.34h-2.84Zm11.06,0h5.26c4.18,0,7.08-2.64,7.08-6.66s-2.9-6.68-7.08-6.68h-5.26Zm2.84-2.5v-8.34h2.42a3.9,3.9,0,0,1,4.18,4.18,3.993,3.993,0,0,1-4.18,4.16Z" transform="translate(1581 3234)" fill="#809aaf"/>
      <path id="Path_1864" data-name="Path 1864" d="M.92-1.88A6.135,6.135,0,0,0,5.8.24c3.6,0,4.74-2.06,4.74-3.78,0-2.7-2.36-3.38-4.52-4-1.82-.48-3.48-.94-3.48-2.52,0-1.44,1.34-2.46,3.12-2.46a4.778,4.778,0,0,1,3.82,1.68l.76-.84a5.73,5.73,0,0,0-4.52-1.88c-2.42,0-4.38,1.38-4.38,3.56,0,2.46,2.24,3.06,4.34,3.64,1.88.5,3.66,1.02,3.66,2.9C9.34-2.32,8.56-.8,5.82-.8A5.437,5.437,0,0,1,1.66-2.74ZM14.36-11.3a.8.8,0,0,0,.8-.8.8.8,0,0,0-.8-.8.816.816,0,0,0-.8.8A.816.816,0,0,0,14.36-11.3ZM13.84,0h1.04V-9.66H13.84Zm11.4,0h1.04V-6.76c0-2.18-1.08-3.14-3.04-3.14a4.9,4.9,0,0,0-3.48,1.7V-9.66H18.72V0h1.04V-7.3A4.136,4.136,0,0,1,22.9-8.96c1.4,0,2.34.56,2.34,2.42Zm4.32-4.84c0,2.82,1.86,5.08,4.7,5.08a3.951,3.951,0,0,0,3.42-1.66l-.72-.64A3.076,3.076,0,0,1,34.32-.7c-2.26,0-3.64-1.82-3.64-4.14s1.38-4.12,3.64-4.12a3.056,3.056,0,0,1,2.64,1.34l.72-.64A3.987,3.987,0,0,0,34.26-9.9C31.42-9.9,29.56-7.66,29.56-4.84Zm10.48,0A4.772,4.772,0,0,0,44.88.24a4.983,4.983,0,0,0,3.78-1.56L48.12-2A4.245,4.245,0,0,1,44.96-.66,3.765,3.765,0,0,1,41.18-4.5h8.08v-.28c0-2.78-1.62-5.12-4.56-5.12A4.8,4.8,0,0,0,40.04-4.84ZM44.68-9A3.542,3.542,0,0,1,48.2-5.32H41.18A3.636,3.636,0,0,1,44.68-9ZM60.06,0H61.2V-13.34H60.16l-2.94,3.1.7.74,2.14-2.28ZM70.48,0h1.14V-3.64h1.96V-4.68H71.62v-8.66H70.08L64.16-4.66v1.02h6.32Zm0-12.2v7.52H65.34ZM74.88.4h.9l4.74-14.14h-.9Zm9.6-.4h1.14V-13.34H84.58l-2.94,3.1.7.74,2.14-2.28ZM89,0h8.8V-1.04H90.78c3.86-3.12,6.96-5.8,6.96-8.74,0-2.64-2.24-3.76-4.2-3.76a5.411,5.411,0,0,0-4.44,2.06l.78.72a4.359,4.359,0,0,1,3.66-1.74,2.756,2.756,0,0,1,3.04,2.72C96.58-7.2,93.54-4.6,89-.94Zm11.12.4h.9l4.74-14.14h-.9Zm9.6-.4h1.14V-13.34h-1.04l-2.94,3.1.7.74,2.14-2.28Zm4.58-3.34c0,2.18,1.96,3.58,4.54,3.58,2.56,0,4.52-1.42,4.52-3.58,0-1.86-1.6-3.08-3.3-3.54,1.58-.42,3.1-1.44,3.1-3.22,0-2.36-2.24-3.44-4.32-3.44-2.12,0-4.32,1.08-4.32,3.44,0,1.78,1.52,2.8,3.1,3.22C115.92-6.42,114.3-5.2,114.3-3.34ZM122-9.98c0,1.86-2.34,2.46-3.16,2.62-.8-.16-3.16-.76-3.16-2.62,0-1.6,1.4-2.52,3.16-2.52C120.58-12.5,122-11.58,122-9.98Zm.22,6.56c0,1.62-1.64,2.62-3.38,2.62-1.78,0-3.38-1-3.38-2.62,0-2.04,2.56-2.84,3.38-2.94C119.64-6.26,122.22-5.46,122.22-3.42Z" transform="translate(1657 3284)" fill="#104e8d"/>
      <path id="Path_1834" data-name="Path 1834" d="M18209.055-16945.943s-320.475-70.348-516.348-142.58S17404-17242,17404-17242v382.545h794.654s10.432.35,10.4-8.51S18209.055-16945.943,18209.055-16945.943Z" transform="translate(-16167 20632)" fill="url(#linear-gradient)"/>
      <path id="Path_1835" data-name="Path 1835" d="M17487.861-17184.406c-60.721-39.1-83.861-57.594-83.861-57.594v382.545l83.859-.016S17487.861-17153.016,17487.861-17184.406Z" transform="translate(-16167 20632)" fill="url(#linear-gradient-2)"/>
      <path id="Path_1860" data-name="Path 1860" d="M3.7,0h2V-13.34H3.94L.36-9.68,1.54-8.46,3.7-10.72Zm5-6.66c0,3.3,1.52,6.9,5.22,6.9s5.22-3.6,5.22-6.9-1.52-6.88-5.22-6.88S8.7-9.96,8.7-6.66Zm8.4,0c0,2.6-.82,5.12-3.18,5.12s-3.18-2.52-3.18-5.12.82-5.1,3.18-5.1S17.1-9.26,17.1-6.66Zm4.48,0c0,3.3,1.52,6.9,5.22,6.9s5.22-3.6,5.22-6.9-1.52-6.88-5.22-6.88S21.58-9.96,21.58-6.66Zm8.4,0c0,2.6-.82,5.12-3.18,5.12s-3.18-2.52-3.18-5.12.82-5.1,3.18-5.1S29.98-9.26,29.98-6.66Z" transform="translate(1307 3725)" fill="#92a9be"/>
      <line id="Line_2046" data-name="Line 2046" y2="382" transform="translate(1412.5 3390.5)" fill="none" stroke="#d9e8f8" stroke-width="1"/>
      <path id="Path_1861" data-name="Path 1861" d="M1.04,0h9.4V-1.76H4.22c3.66-2.82,6.16-5.16,6.16-7.76,0-2.66-2.26-4.02-4.66-4.02A6.1,6.1,0,0,0,.94-11.42l1.18,1.3a4.579,4.579,0,0,1,3.62-1.64,2.314,2.314,0,0,1,2.6,2.24c0,2.1-2.3,4.1-7.3,7.94Zm12.3-6.66c0,3.3,1.52,6.9,5.22,6.9s5.22-3.6,5.22-6.9-1.52-6.88-5.22-6.88S13.34-9.96,13.34-6.66Zm8.4,0c0,2.6-.82,5.12-3.18,5.12s-3.18-2.52-3.18-5.12.82-5.1,3.18-5.1S21.74-9.26,21.74-6.66Zm4.48,0c0,3.3,1.52,6.9,5.22,6.9s5.22-3.6,5.22-6.9-1.52-6.88-5.22-6.88S26.22-9.96,26.22-6.66Zm8.4,0c0,2.6-.82,5.12-3.18,5.12s-3.18-2.52-3.18-5.12.82-5.1,3.18-5.1S34.62-9.26,34.62-6.66Z" transform="translate(1475 3725)" fill="#92a9be"/>
      <line id="Line_2046-2" data-name="Line 2046" y2="382" transform="translate(1580.5 3390.5)" fill="none" stroke="#d9e8f8" stroke-width="1"/>
      <g id="Group_2610" data-name="Group 2610" transform="translate(566 232)">
        <path id="Path_1863" data-name="Path 1863" d="M.52-1.94A5.919,5.919,0,0,0,5.42.24c3.02,0,4.88-1.62,4.88-3.86A3.369,3.369,0,0,0,7.2-6.88a3.263,3.263,0,0,0,2.9-3.08c0-2.24-1.96-3.58-4.68-3.58A6.014,6.014,0,0,0,.7-11.46l1.06,1.24a4.655,4.655,0,0,1,3.48-1.54c1.58,0,2.86.72,2.86,2.08C8.1-8.3,6.78-7.7,5.16-7.7c-.52,0-1.22,0-1.44-.02V-5.9c.2-.02.9-.02,1.44-.02,1.94,0,3.14.62,3.14,2.1,0,1.4-1.1,2.28-2.94,2.28a4.86,4.86,0,0,1-3.72-1.7Zm12.3-4.72c0,3.3,1.52,6.9,5.22,6.9s5.22-3.6,5.22-6.9-1.52-6.88-5.22-6.88S12.82-9.96,12.82-6.66Zm8.4,0c0,2.6-.82,5.12-3.18,5.12s-3.18-2.52-3.18-5.12.82-5.1,3.18-5.1S21.22-9.26,21.22-6.66Zm4.48,0c0,3.3,1.52,6.9,5.22,6.9s5.22-3.6,5.22-6.9-1.52-6.88-5.22-6.88S25.7-9.96,25.7-6.66Zm8.4,0c0,2.6-.82,5.12-3.18,5.12s-3.18-2.52-3.18-5.12.82-5.1,3.18-5.1S34.1-9.26,34.1-6.66Z" transform="translate(1077 3493)" fill="#92a9be"/>
        <line id="Line_2046-3" data-name="Line 2046" y2="382" transform="translate(1182.5 3158.5)" fill="none" stroke="#d9e8f8" stroke-width="1"/>
      </g>
      <g id="Group_2610-2" data-name="Group 2610" transform="translate(734 232)">
        <path id="Path_1862" data-name="Path 1862" d="M6.94,0h2V-3.2h1.84V-4.96H8.94v-8.38H6.2L.6-4.84V-3.2H6.94Zm0-11.52v6.56H2.58ZM12.9-6.66c0,3.3,1.52,6.9,5.22,6.9s5.22-3.6,5.22-6.9-1.52-6.88-5.22-6.88S12.9-9.96,12.9-6.66Zm8.4,0c0,2.6-.82,5.12-3.18,5.12s-3.18-2.52-3.18-5.12.82-5.1,3.18-5.1S21.3-9.26,21.3-6.66Zm4.48,0c0,3.3,1.52,6.9,5.22,6.9s5.22-3.6,5.22-6.9S34.7-13.54,31-13.54,25.78-9.96,25.78-6.66Zm8.4,0c0,2.6-.82,5.12-3.18,5.12s-3.18-2.52-3.18-5.12.82-5.1,3.18-5.1S34.18-9.26,34.18-6.66Z" transform="translate(1077 3493)" fill="#92a9be"/>
        <line id="Line_2046-4" data-name="Line 2046" y2="382" transform="translate(1182.5 3158.5)" fill="none" stroke="#d9e8f8" stroke-width="1"/>
      </g>
      <g id="Group_2610-3" data-name="Group 2610" transform="translate(902 232)">
        <text id="_500" data-name="500" transform="translate(1077 3493)" fill="#92a9be" font-size="20" font-family="ProximaNova-Medium, Proxima Nova" font-weight="500" letter-spacing="0.03em"><tspan x="0" y="0">500</tspan></text>
        <line id="Line_2046-5" data-name="Line 2046" y2="382" transform="translate(1182.5 3158.5)" fill="none" stroke="#d9e8f8" stroke-width="1"/>
      </g>
      <path id="Path_1837" data-name="Path 1837" d="M17404-17241.5s112.752,89.912,286.9,153.68c183.963,65.67,396.256,111.205,517.125,142.016" transform="translate(-16167 20632)" fill="none" stroke="#6da9de" stroke-linecap="round" stroke-width="4"/>
      <rect id="Rectangle_3379" data-name="Rectangle 3379" width="7" height="16" transform="translate(1230 3383)" fill="#fff"/>
      <rect id="Rectangle_3380" data-name="Rectangle 3380" width="24" height="17" transform="translate(1476 3253)" fill="#ddeefc"/>
      <rect id="Rectangle_3381" data-name="Rectangle 3381" width="24" height="17" transform="translate(1476 3273)" fill="#ddeefc"/>
      <path id="Path_1838" data-name="Path 1838" d="M11809.3-253l4.478,5.119,4.479-5.119" transform="translate(-10325.297 3531.885)" fill="none" stroke="#6da9de" stroke-linecap="round" stroke-width="2"/>
      <path id="Path_1839" data-name="Path 1839" d="M11809.3-253l4.478,5.119,4.479-5.119" transform="translate(13302.252 3011) rotate(180)" fill="none" stroke="#6da9de" stroke-linecap="round" stroke-width="2"/>
      <rect id="Rectangle_3383" data-name="Rectangle 3383" width="308" height="832" transform="translate(1616 3063)" fill="url(#linear-gradient-3)"/>
      <g transform="matrix(1, 0, 0, 1, 1095, 3155)" filter="url(#Ellipse_447)">
        <circle id="Ellipse_447-2" data-name="Ellipse 447" cx="8.5" cy="8.5" r="8.5" transform="translate(309 333)" fill="#fff"/>
      </g>
      <circle id="Ellipse_448" data-name="Ellipse 448" cx="2.5" cy="2.5" r="2.5" transform="translate(1410 3494)" fill="#6da9de"/>
    </g>
  </g>
</svg>
