<svg xmlns="http://www.w3.org/2000/svg" width="52" height="52" viewBox="0 0 52 52">
  <g id="Group_2708" data-name="Group 2708" transform="translate(-1359 -5217)">
    <g id="Group_2705" data-name="Group 2705" transform="translate(-240 30)">
      <g id="Group_2703" data-name="Group 2703">
        <circle id="Ellipse_450" data-name="Ellipse 450" cx="5" cy="5" r="5" transform="translate(1599 5187)" fill="#ebe8e8"/>
        <circle id="Ellipse_450-2" data-name="Ellipse 450" cx="5" cy="5" r="5" transform="translate(1599 5201)" fill="#ebe8e8"/>
        <circle id="Ellipse_450-3" data-name="Ellipse 450" cx="5" cy="5" r="5" transform="translate(1613 5201)" fill="#ebe8e8"/>
        <circle id="Ellipse_450-4" data-name="Ellipse 450" cx="5" cy="5" r="5" transform="translate(1599 5215)" fill="#ebe8e8"/>
        <circle id="Ellipse_450-5" data-name="Ellipse 450" cx="5" cy="5" r="5" transform="translate(1613 5215)" fill="#ebe8e8"/>
        <circle id="Ellipse_450-6" data-name="Ellipse 450" cx="5" cy="5" r="5" transform="translate(1627 5215)" fill="#ebe8e8"/>
        <circle id="Ellipse_450-7" data-name="Ellipse 450" cx="5" cy="5" r="5" transform="translate(1599 5229)" fill="#ebe8e8"/>
        <circle id="Ellipse_450-8" data-name="Ellipse 450" cx="5" cy="5" r="5" transform="translate(1613 5229)" fill="#ebe8e8"/>
        <circle id="Ellipse_450-9" data-name="Ellipse 450" cx="5" cy="5" r="5" transform="translate(1627 5229)" fill="#ebe8e8"/>
        <circle id="Ellipse_450-10" data-name="Ellipse 450" cx="5" cy="5" r="5" transform="translate(1641 5229)" fill="#ebe8e8"/>
      </g>
    </g>
    <circle id="Ellipse_464" data-name="Ellipse 464" cx="2" cy="2" r="2" transform="translate(1372 5217)" fill="#8fe2de" opacity="0.5"/>
    <circle id="Ellipse_465" data-name="Ellipse 465" cx="2" cy="2" r="2" transform="translate(1379 5217)" fill="#8fe2de" opacity="0.5"/>
    <circle id="Ellipse_466" data-name="Ellipse 466" cx="2" cy="2" r="2" transform="translate(1386 5217)" fill="#8fe2de" opacity="0.5"/>
    <circle id="Ellipse_459" data-name="Ellipse 459" cx="2" cy="2" r="2" transform="translate(1393 5217)" fill="#8fe2de" opacity="0.5"/>
    <circle id="Ellipse_456" data-name="Ellipse 456" cx="2" cy="2" r="2" transform="translate(1400 5217)" fill="#8fe2de" opacity="0.5"/>
    <circle id="Ellipse_455" data-name="Ellipse 455" cx="2" cy="2" r="2" transform="translate(1407 5217)" fill="#8fe2de" opacity="0.5"/>
    <circle id="Ellipse_467" data-name="Ellipse 467" cx="2" cy="2" r="2" transform="translate(1379 5224)" fill="#8fe2de" opacity="0.5"/>
    <circle id="Ellipse_468" data-name="Ellipse 468" cx="2" cy="2" r="2" transform="translate(1372 5224)" fill="#8fe2de" opacity="0.5"/>
    <circle id="Ellipse_469" data-name="Ellipse 469" cx="2" cy="2" r="2" transform="translate(1386 5224)" fill="#8fe2de" opacity="0.5"/>
    <circle id="Ellipse_460" data-name="Ellipse 460" cx="2" cy="2" r="2" transform="translate(1393 5224)" fill="#8fe2de" opacity="0.5"/>
    <circle id="Ellipse_457" data-name="Ellipse 457" cx="2" cy="2" r="2" transform="translate(1400 5224)" fill="#8fe2de" opacity="0.5"/>
    <circle id="Ellipse_458" data-name="Ellipse 458" cx="2" cy="2" r="2" transform="translate(1407 5224)" fill="#8fe2de" opacity="0.5"/>
    <circle id="Ellipse_470" data-name="Ellipse 470" cx="2" cy="2" r="2" transform="translate(1386 5231)" fill="#8fe2de" opacity="0.5"/>
    <circle id="Ellipse_461" data-name="Ellipse 461" cx="2" cy="2" r="2" transform="translate(1393 5231)" fill="#8fe2de" opacity="0.5"/>
    <circle id="Ellipse_462" data-name="Ellipse 462" cx="2" cy="2" r="2" transform="translate(1400 5231)" fill="#8fe2de" opacity="0.5"/>
    <circle id="Ellipse_463" data-name="Ellipse 463" cx="2" cy="2" r="2" transform="translate(1407 5231)" fill="#8fe2de" opacity="0.5"/>
    <circle id="Ellipse_471" data-name="Ellipse 471" cx="2" cy="2" r="2" transform="translate(1393 5238)" fill="#8fe2de" opacity="0.5"/>
    <circle id="Ellipse_472" data-name="Ellipse 472" cx="2" cy="2" r="2" transform="translate(1386 5238)" fill="#8fe2de" opacity="0.5"/>
    <circle id="Ellipse_473" data-name="Ellipse 473" cx="2" cy="2" r="2" transform="translate(1400 5238)" fill="#8fe2de" opacity="0.5"/>
    <circle id="Ellipse_474" data-name="Ellipse 474" cx="2" cy="2" r="2" transform="translate(1407 5238)" fill="#8fe2de" opacity="0.5"/>
    <circle id="Ellipse_475" data-name="Ellipse 475" cx="2" cy="2" r="2" transform="translate(1400 5245)" fill="#8fe2de" opacity="0.5"/>
    <circle id="Ellipse_476" data-name="Ellipse 476" cx="2" cy="2" r="2" transform="translate(1407 5245)" fill="#8fe2de" opacity="0.5"/>
    <circle id="Ellipse_477" data-name="Ellipse 477" cx="2" cy="2" r="2" transform="translate(1407 5252)" fill="#8fe2de" opacity="0.5"/>
    <circle id="Ellipse_478" data-name="Ellipse 478" cx="2" cy="2" r="2" transform="translate(1400 5252)" fill="#8fe2de" opacity="0.5"/>
    <rect id="Rectangle_3402" data-name="Rectangle 3402" width="10" height="10" transform="translate(1359 5217)" fill="#ebe8e8"/>
    <rect id="Rectangle_3403" data-name="Rectangle 3403" width="10" height="10" transform="translate(1359 5231)" fill="#ebe8e8"/>
    <rect id="Rectangle_3408" data-name="Rectangle 3408" width="10" height="10" transform="translate(1373 5231)" fill="#ebe8e8"/>
    <rect id="Rectangle_3404" data-name="Rectangle 3404" width="10" height="10" transform="translate(1359 5245)" fill="#ebe8e8"/>
    <rect id="Rectangle_3407" data-name="Rectangle 3407" width="10" height="10" transform="translate(1373 5245)" fill="#ebe8e8"/>
    <rect id="Rectangle_3410" data-name="Rectangle 3410" width="10" height="10" transform="translate(1387 5245)" fill="#ebe8e8"/>
    <rect id="Rectangle_3405" data-name="Rectangle 3405" width="10" height="10" transform="translate(1359 5259)" fill="#ebe8e8"/>
    <rect id="Rectangle_3406" data-name="Rectangle 3406" width="10" height="10" transform="translate(1373 5259)" fill="#ebe8e8"/>
    <rect id="Rectangle_3409" data-name="Rectangle 3409" width="10" height="10" transform="translate(1387 5259)" fill="#ebe8e8"/>
    <rect id="Rectangle_3411" data-name="Rectangle 3411" width="10" height="10" transform="translate(1401 5259)" fill="#ebe8e8"/>
  </g>
</svg>
