<svg xmlns="http://www.w3.org/2000/svg" xmlns:xlink="http://www.w3.org/1999/xlink" viewBox="0 0 1920 680">
  <defs>
    <style>
      .cls-1 {
        fill: #f2f8ff;
      }

      .cls-2 {
        opacity: 0.7;
      }

      .cls-3, .cls-6 {
        fill: #21415d;
      }

      .cls-3 {
        fill-rule: evenodd;
      }

      .cls-4 {
        fill: none;
        stroke: #d9e8f8;
      }

      .cls-5 {
        opacity: 0.5;
      }

      .cls-7 {
        opacity: 0.3;
      }

      .cls-8 {
        opacity: 0.6;
      }

      .cls-9 {
        opacity: 0.4;
      }

      .cls-10 {
        clip-path: url(#clip-path);
      }

      .cls-11 {
        fill: url(#radial-gradient);
      }

      .cls-12 {
        fill: #fff;
      }

      .cls-13 {
        fill: url(#linear-gradient);
      }

      .cls-14 {
        fill: url(#linear-gradient-2);
      }

      .cls-15 {
        fill: url(#linear-gradient-3);
      }

      .cls-16 {
        fill: url(#linear-gradient-4);
      }

      .cls-17 {
        filter: url(#Ellipse_403);
      }
    </style>
    <clipPath id="clip-path">
      <rect id="Rectangle_3281" data-name="Rectangle 3281" class="cls-1" width="1920" height="680" transform="translate(0 880)"/>
    </clipPath>
    <radialGradient id="radial-gradient" cx="0.5" cy="0.5" r="0.5" gradientUnits="objectBoundingBox">
      <stop offset="0" stop-color="#f2f8ff" stop-opacity="0"/>
      <stop offset="1" stop-color="#f2f8ff"/>
    </radialGradient>
    <linearGradient id="linear-gradient" x1="0.233" y1="0.076" x2="0.808" y2="0.897" gradientUnits="objectBoundingBox">
      <stop offset="0" stop-color="#2588dd"/>
      <stop offset="1" stop-color="#21c6bf"/>
    </linearGradient>
    <filter id="Ellipse_403" x="291" y="211" width="263" height="263" filterUnits="userSpaceOnUse">
      <feOffset dy="3" input="SourceAlpha"/>
      <feGaussianBlur stdDeviation="3" result="blur"/>
      <feFlood flood-color="#225978" flood-opacity="0.251"/>
      <feComposite operator="in" in2="blur"/>
      <feComposite in="SourceGraphic"/>
    </filter>
    <linearGradient id="linear-gradient-2" x1="0.5" x2="1.068" y2="1.123" gradientUnits="objectBoundingBox">
      <stop offset="0" stop-color="#102f54"/>
      <stop offset="1" stop-color="#b7cae3"/>
    </linearGradient>
    <linearGradient id="linear-gradient-3" x1="0.334" y1="0.073" x2="1.031" y2="1.107" gradientUnits="objectBoundingBox">
      <stop offset="0" stop-color="#18365b"/>
      <stop offset="1" stop-color="#a2b6d1"/>
    </linearGradient>
    <linearGradient id="linear-gradient-4" x2="1.065" y2="1.103" xlink:href="#linear-gradient-2"/>
  </defs>
  <g id="Group_2521" data-name="Group 2521" transform="translate(0 -880)">
    <g id="noun_cogs_419093" class="cls-2" transform="translate(234.45 1013.761)">
      <g id="Group_2489" data-name="Group 2489" transform="matrix(-0.19, -0.982, 0.982, -0.19, 33.476, 90.739)">
        <path id="Path_1754" data-name="Path 1754" class="cls-3" d="M29.533.129a26.981,26.981,0,0,0-5.272,0l-1.088,4.21A22.876,22.876,0,0,0,18.843,5.5L15.8,2.4A26.885,26.885,0,0,0,11.23,5.034l1.163,4.19a22.889,22.889,0,0,0-3.17,3.169l-4.19-1.163A26.922,26.922,0,0,0,2.4,15.8l3.1,3.047a22.93,22.93,0,0,0-1.16,4.329L.13,24.26a26.846,26.846,0,0,0,0,5.272L4.34,30.62A22.939,22.939,0,0,0,5.5,34.949L2.4,38a26.88,26.88,0,0,0,2.636,4.566L9.224,41.4a22.848,22.848,0,0,0,3.17,3.17l-1.163,4.19A26.881,26.881,0,0,0,15.8,51.394l3.048-3.1a22.874,22.874,0,0,0,4.328,1.16l1.088,4.21a26.847,26.847,0,0,0,5.272,0l1.088-4.21a22.865,22.865,0,0,0,4.329-1.16L38,51.394a26.889,26.889,0,0,0,4.567-2.636L41.4,44.568a22.8,22.8,0,0,0,3.169-3.17l4.19,1.163A26.826,26.826,0,0,0,51.395,38l-3.1-3.048a22.876,22.876,0,0,0,1.161-4.328l4.21-1.088a26.981,26.981,0,0,0,0-5.272l-4.21-1.088a22.867,22.867,0,0,0-1.161-4.329l3.1-3.047a26.867,26.867,0,0,0-2.637-4.567l-4.19,1.163A22.836,22.836,0,0,0,41.4,9.224l1.163-4.19A26.893,26.893,0,0,0,38,2.4L34.949,5.5A22.867,22.867,0,0,0,30.62,4.339Zm-2.637,18A8.763,8.763,0,1,1,18.133,26.9,8.767,8.767,0,0,1,26.9,18.133Z" transform="translate(0 0)"/>
      </g>
      <g id="Group_2490" data-name="Group 2490" transform="matrix(0.58, -0.815, 0.815, 0.58, -4.374, 27.851)">
        <path id="Path_1755" data-name="Path 1755" class="cls-3" d="M24.008.152a21.838,21.838,0,0,0-5.139,0L18.1,3.581A18.591,18.591,0,0,0,13.4,5.11L10.758,2.787A21.842,21.842,0,0,0,6.6,5.808L8,9.034a18.579,18.579,0,0,0-2.908,4l-3.5-.328A21.846,21.846,0,0,0,0,17.594l3.024,1.792a18.58,18.58,0,0,0,0,4.946L0,26.123A21.838,21.838,0,0,0,1.588,31.01l3.5-.329a18.562,18.562,0,0,0,2.908,4L6.6,37.911a21.877,21.877,0,0,0,4.157,3.02L13.4,38.608a18.591,18.591,0,0,0,4.7,1.529l.769,3.43a21.936,21.936,0,0,0,5.139,0l.769-3.43a18.6,18.6,0,0,0,4.7-1.529l2.638,2.322a21.912,21.912,0,0,0,4.157-3.02l-1.394-3.227a18.594,18.594,0,0,0,2.908-4l3.5.329a21.839,21.839,0,0,0,1.588-4.887l-3.024-1.791a18.58,18.58,0,0,0,0-4.946l3.024-1.792a21.846,21.846,0,0,0-1.588-4.886l-3.5.328a18.61,18.61,0,0,0-2.908-4l1.394-3.227a21.877,21.877,0,0,0-4.157-3.021L29.481,5.11a18.6,18.6,0,0,0-4.7-1.529Zm-2.57,16.172A5.535,5.535,0,1,1,15.9,21.859,5.538,5.538,0,0,1,21.439,16.323Z" transform="translate(0 0)"/>
      </g>
    </g>
    <g id="noun_cogs_419093-2" data-name="noun_cogs_419093" class="cls-2" transform="translate(570.039 898.419) rotate(70)">
      <g id="Group_2489-2" data-name="Group 2489" transform="matrix(-0.19, -0.982, 0.982, -0.19, 37.85, 97.828)">
        <path id="Path_1754-2" data-name="Path 1754" class="cls-3" d="M29.533.129a26.981,26.981,0,0,0-5.272,0l-1.088,4.21A22.876,22.876,0,0,0,18.843,5.5L15.8,2.4A26.885,26.885,0,0,0,11.23,5.034l1.163,4.19a22.889,22.889,0,0,0-3.17,3.169l-4.19-1.163A26.922,26.922,0,0,0,2.4,15.8l3.1,3.047a22.93,22.93,0,0,0-1.16,4.329L.13,24.26a26.846,26.846,0,0,0,0,5.272L4.34,30.62A22.939,22.939,0,0,0,5.5,34.949L2.4,38a26.88,26.88,0,0,0,2.636,4.566L9.224,41.4a22.848,22.848,0,0,0,3.17,3.17l-1.163,4.19A26.881,26.881,0,0,0,15.8,51.394l3.048-3.1a22.874,22.874,0,0,0,4.328,1.16l1.088,4.21a26.847,26.847,0,0,0,5.272,0l1.088-4.21a22.865,22.865,0,0,0,4.329-1.16L38,51.394a26.889,26.889,0,0,0,4.567-2.636L41.4,44.568a22.8,22.8,0,0,0,3.169-3.17l4.19,1.163A26.826,26.826,0,0,0,51.395,38l-3.1-3.048a22.876,22.876,0,0,0,1.161-4.328l4.21-1.088a26.981,26.981,0,0,0,0-5.272l-4.21-1.088a22.867,22.867,0,0,0-1.161-4.329l3.1-3.047a26.867,26.867,0,0,0-2.637-4.567l-4.19,1.163A22.836,22.836,0,0,0,41.4,9.224l1.163-4.19A26.893,26.893,0,0,0,38,2.4L34.949,5.5A22.867,22.867,0,0,0,30.62,4.339Zm-2.637,18A8.763,8.763,0,1,1,18.133,26.9,8.767,8.767,0,0,1,26.9,18.133Z" transform="translate(0 0)"/>
      </g>
      <g id="Group_2490-2" data-name="Group 2490" transform="matrix(0.58, -0.815, 0.815, 0.58, 0, 34.94)">
        <path id="Path_1755-2" data-name="Path 1755" class="cls-3" d="M24.008.152a21.838,21.838,0,0,0-5.139,0L18.1,3.581A18.591,18.591,0,0,0,13.4,5.11L10.758,2.787A21.842,21.842,0,0,0,6.6,5.808L8,9.034a18.579,18.579,0,0,0-2.908,4l-3.5-.328A21.846,21.846,0,0,0,0,17.594l3.024,1.792a18.58,18.58,0,0,0,0,4.946L0,26.123A21.838,21.838,0,0,0,1.588,31.01l3.5-.329a18.562,18.562,0,0,0,2.908,4L6.6,37.911a21.877,21.877,0,0,0,4.157,3.02L13.4,38.608a18.591,18.591,0,0,0,4.7,1.529l.769,3.43a21.936,21.936,0,0,0,5.139,0l.769-3.43a18.6,18.6,0,0,0,4.7-1.529l2.638,2.322a21.912,21.912,0,0,0,4.157-3.02l-1.394-3.227a18.594,18.594,0,0,0,2.908-4l3.5.329a21.839,21.839,0,0,0,1.588-4.887l-3.024-1.791a18.58,18.58,0,0,0,0-4.946l3.024-1.792a21.846,21.846,0,0,0-1.588-4.886l-3.5.328a18.61,18.61,0,0,0-2.908-4l1.394-3.227a21.877,21.877,0,0,0-4.157-3.021L29.481,5.11a18.6,18.6,0,0,0-4.7-1.529Zm-2.57,16.172A5.535,5.535,0,1,1,15.9,21.859,5.538,5.538,0,0,1,21.439,16.323Z" transform="translate(0 0)"/>
      </g>
    </g>
    <g id="noun_cogs_419093-3" data-name="noun_cogs_419093" class="cls-2" transform="translate(161.45 1396.761)">
      <g id="Group_2489-3" data-name="Group 2489" transform="matrix(-0.19, -0.982, 0.982, -0.19, 174.476, 134.739)">
        <path id="Path_1754-3" data-name="Path 1754" class="cls-3" d="M29.533.129a26.981,26.981,0,0,0-5.272,0l-1.088,4.21A22.876,22.876,0,0,0,18.843,5.5L15.8,2.4A26.885,26.885,0,0,0,11.23,5.034l1.163,4.19a22.889,22.889,0,0,0-3.17,3.169l-4.19-1.163A26.922,26.922,0,0,0,2.4,15.8l3.1,3.047a22.93,22.93,0,0,0-1.16,4.329L.13,24.26a26.846,26.846,0,0,0,0,5.272L4.34,30.62A22.939,22.939,0,0,0,5.5,34.949L2.4,38a26.88,26.88,0,0,0,2.636,4.566L9.224,41.4a22.848,22.848,0,0,0,3.17,3.17l-1.163,4.19A26.881,26.881,0,0,0,15.8,51.394l3.048-3.1a22.874,22.874,0,0,0,4.328,1.16l1.088,4.21a26.847,26.847,0,0,0,5.272,0l1.088-4.21a22.865,22.865,0,0,0,4.329-1.16L38,51.394a26.889,26.889,0,0,0,4.567-2.636L41.4,44.568a22.8,22.8,0,0,0,3.169-3.17l4.19,1.163A26.826,26.826,0,0,0,51.395,38l-3.1-3.048a22.876,22.876,0,0,0,1.161-4.328l4.21-1.088a26.981,26.981,0,0,0,0-5.272l-4.21-1.088a22.867,22.867,0,0,0-1.161-4.329l3.1-3.047a26.867,26.867,0,0,0-2.637-4.567l-4.19,1.163A22.836,22.836,0,0,0,41.4,9.224l1.163-4.19A26.893,26.893,0,0,0,38,2.4L34.949,5.5A22.867,22.867,0,0,0,30.62,4.339Zm-2.637,18A8.763,8.763,0,1,1,18.133,26.9,8.767,8.767,0,0,1,26.9,18.133Z" transform="translate(0 0)"/>
      </g>
      <g id="Group_2490-3" data-name="Group 2490" transform="matrix(0.58, -0.815, 0.815, 0.58, -4.374, 27.851)">
        <path id="Path_1755-3" data-name="Path 1755" class="cls-3" d="M24.008.152a21.838,21.838,0,0,0-5.139,0L18.1,3.581A18.591,18.591,0,0,0,13.4,5.11L10.758,2.787A21.842,21.842,0,0,0,6.6,5.808L8,9.034a18.579,18.579,0,0,0-2.908,4l-3.5-.328A21.846,21.846,0,0,0,0,17.594l3.024,1.792a18.58,18.58,0,0,0,0,4.946L0,26.123A21.838,21.838,0,0,0,1.588,31.01l3.5-.329a18.562,18.562,0,0,0,2.908,4L6.6,37.911a21.877,21.877,0,0,0,4.157,3.02L13.4,38.608a18.591,18.591,0,0,0,4.7,1.529l.769,3.43a21.936,21.936,0,0,0,5.139,0l.769-3.43a18.6,18.6,0,0,0,4.7-1.529l2.638,2.322a21.912,21.912,0,0,0,4.157-3.02l-1.394-3.227a18.594,18.594,0,0,0,2.908-4l3.5.329a21.839,21.839,0,0,0,1.588-4.887l-3.024-1.791a18.58,18.58,0,0,0,0-4.946l3.024-1.792a21.846,21.846,0,0,0-1.588-4.886l-3.5.328a18.61,18.61,0,0,0-2.908-4l1.394-3.227a21.877,21.877,0,0,0-4.157-3.021L29.481,5.11a18.6,18.6,0,0,0-4.7-1.529Zm-2.57,16.172A5.535,5.535,0,1,1,15.9,21.859,5.538,5.538,0,0,1,21.439,16.323Z" transform="translate(0 0)"/>
      </g>
    </g>
    <g id="noun_cogs_419093-4" data-name="noun_cogs_419093" class="cls-2" transform="translate(101.163 982.465) rotate(70)">
      <g id="Group_2489-4" data-name="Group 2489" transform="matrix(-0.19, -0.982, 0.982, -0.19, 178.85, 141.828)">
        <path id="Path_1754-4" data-name="Path 1754" class="cls-3" d="M29.533.129a26.981,26.981,0,0,0-5.272,0l-1.088,4.21A22.876,22.876,0,0,0,18.843,5.5L15.8,2.4A26.885,26.885,0,0,0,11.23,5.034l1.163,4.19a22.889,22.889,0,0,0-3.17,3.169l-4.19-1.163A26.922,26.922,0,0,0,2.4,15.8l3.1,3.047a22.93,22.93,0,0,0-1.16,4.329L.13,24.26a26.846,26.846,0,0,0,0,5.272L4.34,30.62A22.939,22.939,0,0,0,5.5,34.949L2.4,38a26.88,26.88,0,0,0,2.636,4.566L9.224,41.4a22.848,22.848,0,0,0,3.17,3.17l-1.163,4.19A26.881,26.881,0,0,0,15.8,51.394l3.048-3.1a22.874,22.874,0,0,0,4.328,1.16l1.088,4.21a26.847,26.847,0,0,0,5.272,0l1.088-4.21a22.865,22.865,0,0,0,4.329-1.16L38,51.394a26.889,26.889,0,0,0,4.567-2.636L41.4,44.568a22.8,22.8,0,0,0,3.169-3.17l4.19,1.163A26.826,26.826,0,0,0,51.395,38l-3.1-3.048a22.876,22.876,0,0,0,1.161-4.328l4.21-1.088a26.981,26.981,0,0,0,0-5.272l-4.21-1.088a22.867,22.867,0,0,0-1.161-4.329l3.1-3.047a26.867,26.867,0,0,0-2.637-4.567l-4.19,1.163A22.836,22.836,0,0,0,41.4,9.224l1.163-4.19A26.893,26.893,0,0,0,38,2.4L34.949,5.5A22.867,22.867,0,0,0,30.62,4.339Zm-2.637,18A8.763,8.763,0,1,1,18.133,26.9,8.767,8.767,0,0,1,26.9,18.133Z" transform="translate(0 0)"/>
      </g>
      <g id="Group_2490-4" data-name="Group 2490" transform="matrix(0.58, -0.815, 0.815, 0.58, 0, 34.94)">
        <path id="Path_1755-4" data-name="Path 1755" class="cls-3" d="M24.008.152a21.838,21.838,0,0,0-5.139,0L18.1,3.581A18.591,18.591,0,0,0,13.4,5.11L10.758,2.787A21.842,21.842,0,0,0,6.6,5.808L8,9.034a18.579,18.579,0,0,0-2.908,4l-3.5-.328A21.846,21.846,0,0,0,0,17.594l3.024,1.792a18.58,18.58,0,0,0,0,4.946L0,26.123A21.838,21.838,0,0,0,1.588,31.01l3.5-.329a18.562,18.562,0,0,0,2.908,4L6.6,37.911a21.877,21.877,0,0,0,4.157,3.02L13.4,38.608a18.591,18.591,0,0,0,4.7,1.529l.769,3.43a21.936,21.936,0,0,0,5.139,0l.769-3.43a18.6,18.6,0,0,0,4.7-1.529l2.638,2.322a21.912,21.912,0,0,0,4.157-3.02l-1.394-3.227a18.594,18.594,0,0,0,2.908-4l3.5.329a21.839,21.839,0,0,0,1.588-4.887l-3.024-1.791a18.58,18.58,0,0,0,0-4.946l3.024-1.792a21.846,21.846,0,0,0-1.588-4.886l-3.5.328a18.61,18.61,0,0,0-2.908-4l1.394-3.227a21.877,21.877,0,0,0-4.157-3.021L29.481,5.11a18.6,18.6,0,0,0-4.7-1.529Zm-2.57,16.172A5.535,5.535,0,1,1,15.9,21.859,5.538,5.538,0,0,1,21.439,16.323Z" transform="translate(0 0)"/>
      </g>
    </g>
    <line id="Line_2012" data-name="Line 2012" class="cls-4" y2="41" transform="translate(422.5 1047.5)"/>
    <g id="noun_cogs_419093-5" data-name="noun_cogs_419093" class="cls-2" transform="translate(499.45 1360.761)">
      <g id="Group_2489-5" data-name="Group 2489" transform="matrix(-0.19, -0.982, 0.982, -0.19, 33.476, 90.739)">
        <path id="Path_1754-5" data-name="Path 1754" class="cls-3" d="M29.533.129a26.981,26.981,0,0,0-5.272,0l-1.088,4.21A22.876,22.876,0,0,0,18.843,5.5L15.8,2.4A26.885,26.885,0,0,0,11.23,5.034l1.163,4.19a22.889,22.889,0,0,0-3.17,3.169l-4.19-1.163A26.922,26.922,0,0,0,2.4,15.8l3.1,3.047a22.93,22.93,0,0,0-1.16,4.329L.13,24.26a26.846,26.846,0,0,0,0,5.272L4.34,30.62A22.939,22.939,0,0,0,5.5,34.949L2.4,38a26.88,26.88,0,0,0,2.636,4.566L9.224,41.4a22.848,22.848,0,0,0,3.17,3.17l-1.163,4.19A26.881,26.881,0,0,0,15.8,51.394l3.048-3.1a22.874,22.874,0,0,0,4.328,1.16l1.088,4.21a26.847,26.847,0,0,0,5.272,0l1.088-4.21a22.865,22.865,0,0,0,4.329-1.16L38,51.394a26.889,26.889,0,0,0,4.567-2.636L41.4,44.568a22.8,22.8,0,0,0,3.169-3.17l4.19,1.163A26.826,26.826,0,0,0,51.395,38l-3.1-3.048a22.876,22.876,0,0,0,1.161-4.328l4.21-1.088a26.981,26.981,0,0,0,0-5.272l-4.21-1.088a22.867,22.867,0,0,0-1.161-4.329l3.1-3.047a26.867,26.867,0,0,0-2.637-4.567l-4.19,1.163A22.836,22.836,0,0,0,41.4,9.224l1.163-4.19A26.893,26.893,0,0,0,38,2.4L34.949,5.5A22.867,22.867,0,0,0,30.62,4.339Zm-2.637,18A8.763,8.763,0,1,1,18.133,26.9,8.767,8.767,0,0,1,26.9,18.133Z" transform="translate(0 0)"/>
      </g>
      <g id="Group_2490-5" data-name="Group 2490" transform="matrix(0.58, -0.815, 0.815, 0.58, -4.374, 27.851)">
        <path id="Path_1755-5" data-name="Path 1755" class="cls-3" d="M24.008.152a21.838,21.838,0,0,0-5.139,0L18.1,3.581A18.591,18.591,0,0,0,13.4,5.11L10.758,2.787A21.842,21.842,0,0,0,6.6,5.808L8,9.034a18.579,18.579,0,0,0-2.908,4l-3.5-.328A21.846,21.846,0,0,0,0,17.594l3.024,1.792a18.58,18.58,0,0,0,0,4.946L0,26.123A21.838,21.838,0,0,0,1.588,31.01l3.5-.329a18.562,18.562,0,0,0,2.908,4L6.6,37.911a21.877,21.877,0,0,0,4.157,3.02L13.4,38.608a18.591,18.591,0,0,0,4.7,1.529l.769,3.43a21.936,21.936,0,0,0,5.139,0l.769-3.43a18.6,18.6,0,0,0,4.7-1.529l2.638,2.322a21.912,21.912,0,0,0,4.157-3.02l-1.394-3.227a18.594,18.594,0,0,0,2.908-4l3.5.329a21.839,21.839,0,0,0,1.588-4.887l-3.024-1.791a18.58,18.58,0,0,0,0-4.946l3.024-1.792a21.846,21.846,0,0,0-1.588-4.886l-3.5.328a18.61,18.61,0,0,0-2.908-4l1.394-3.227a21.877,21.877,0,0,0-4.157-3.021L29.481,5.11a18.6,18.6,0,0,0-4.7-1.529Zm-2.57,16.172A5.535,5.535,0,1,1,15.9,21.859,5.538,5.538,0,0,1,21.439,16.323Z" transform="translate(0 0)"/>
      </g>
    </g>
    <g id="noun_cogs_419093-6" data-name="noun_cogs_419093" class="cls-2" transform="translate(287.088 1395.741) rotate(70)">
      <g id="Group_2489-6" data-name="Group 2489" transform="matrix(-0.19, -0.982, 0.982, -0.19, 37.85, 97.828)">
        <path id="Path_1754-6" data-name="Path 1754" class="cls-3" d="M29.533.129a26.981,26.981,0,0,0-5.272,0l-1.088,4.21A22.876,22.876,0,0,0,18.843,5.5L15.8,2.4A26.885,26.885,0,0,0,11.23,5.034l1.163,4.19a22.889,22.889,0,0,0-3.17,3.169l-4.19-1.163A26.922,26.922,0,0,0,2.4,15.8l3.1,3.047a22.93,22.93,0,0,0-1.16,4.329L.13,24.26a26.846,26.846,0,0,0,0,5.272L4.34,30.62A22.939,22.939,0,0,0,5.5,34.949L2.4,38a26.88,26.88,0,0,0,2.636,4.566L9.224,41.4a22.848,22.848,0,0,0,3.17,3.17l-1.163,4.19A26.881,26.881,0,0,0,15.8,51.394l3.048-3.1a22.874,22.874,0,0,0,4.328,1.16l1.088,4.21a26.847,26.847,0,0,0,5.272,0l1.088-4.21a22.865,22.865,0,0,0,4.329-1.16L38,51.394a26.889,26.889,0,0,0,4.567-2.636L41.4,44.568a22.8,22.8,0,0,0,3.169-3.17l4.19,1.163A26.826,26.826,0,0,0,51.395,38l-3.1-3.048a22.876,22.876,0,0,0,1.161-4.328l4.21-1.088a26.981,26.981,0,0,0,0-5.272l-4.21-1.088a22.867,22.867,0,0,0-1.161-4.329l3.1-3.047a26.867,26.867,0,0,0-2.637-4.567l-4.19,1.163A22.836,22.836,0,0,0,41.4,9.224l1.163-4.19A26.893,26.893,0,0,0,38,2.4L34.949,5.5A22.867,22.867,0,0,0,30.62,4.339Zm-2.637,18A8.763,8.763,0,1,1,18.133,26.9,8.767,8.767,0,0,1,26.9,18.133Z" transform="translate(0 0)"/>
      </g>
      <g id="Group_2490-6" data-name="Group 2490" transform="matrix(0.58, -0.815, 0.815, 0.58, 0, 34.94)">
        <path id="Path_1755-6" data-name="Path 1755" class="cls-3" d="M24.008.152a21.838,21.838,0,0,0-5.139,0L18.1,3.581A18.591,18.591,0,0,0,13.4,5.11L10.758,2.787A21.842,21.842,0,0,0,6.6,5.808L8,9.034a18.579,18.579,0,0,0-2.908,4l-3.5-.328A21.846,21.846,0,0,0,0,17.594l3.024,1.792a18.58,18.58,0,0,0,0,4.946L0,26.123A21.838,21.838,0,0,0,1.588,31.01l3.5-.329a18.562,18.562,0,0,0,2.908,4L6.6,37.911a21.877,21.877,0,0,0,4.157,3.02L13.4,38.608a18.591,18.591,0,0,0,4.7,1.529l.769,3.43a21.936,21.936,0,0,0,5.139,0l.769-3.43a18.6,18.6,0,0,0,4.7-1.529l2.638,2.322a21.912,21.912,0,0,0,4.157-3.02l-1.394-3.227a18.594,18.594,0,0,0,2.908-4l3.5.329a21.839,21.839,0,0,0,1.588-4.887l-3.024-1.791a18.58,18.58,0,0,0,0-4.946l3.024-1.792a21.846,21.846,0,0,0-1.588-4.886l-3.5.328a18.61,18.61,0,0,0-2.908-4l1.394-3.227a21.877,21.877,0,0,0-4.157-3.021L29.481,5.11a18.6,18.6,0,0,0-4.7-1.529Zm-2.57,16.172A5.535,5.535,0,1,1,15.9,21.859,5.538,5.538,0,0,1,21.439,16.323Z" transform="translate(0 0)"/>
      </g>
    </g>
    <g id="noun_Ruler_38825" class="cls-5" transform="translate(585 1151.376)">
      <path id="Path_1756" data-name="Path 1756" class="cls-6" d="M36.762,4.219,39,6.452l-.638.638L36.124,4.857l-.957.957L36.443,7.09l-.638.638L34.529,6.452l-.957.957L35.8,9.643l-.638.638L32.933,8.048,31.976,9l1.276,1.276-.638.638L31.338,9.643l-.957.957,2.233,2.233-.638.638-2.233-2.233-.957.957,1.276,1.276-.638.638-1.276-1.276-.957.957,2.233,2.233-.638.638-2.233-2.233-.957.957,1.276,1.276-.638.638-1.276-1.276L24,16.981l2.233,2.233-.638.638-2.233-2.233-.957.957,1.276,1.276-.638.638-1.276-1.276-.957.957L23.043,22.4l-.638.638L20.172,20.81l-.957.957,1.276,1.276-.638.638L18.576,22.4l-.957.957L19.853,25.6l-.638.638L16.981,24l-.957.957L17.3,26.233l-.638.638L15.386,25.6l-.957.957,2.233,2.233-.638.638L13.791,27.19l-.957.957,1.276,1.276-.638.638L12.2,28.786l-.957.957,2.233,2.233-.638.638L10.6,30.381l-.957.957,1.276,1.276-.638.638L9,31.976l-.957.957,2.233,2.233-.638.638L7.409,33.571l-.957.957L7.729,35.8l-.638.638L5.814,35.167l-.957.957L7.09,38.357,6.452,39,4.219,36.762l-1.595,1.6,7.019,7.019L45.376,9.643,38.357,2.624Z"/>
    </g>
    <g id="noun_Ruler_38825-2" data-name="noun_Ruler_38825" class="cls-5" transform="translate(66 1288.376)">
      <path id="Path_1756-2" data-name="Path 1756" class="cls-6" d="M36.762,4.219,39,6.452l-.638.638L36.124,4.857l-.957.957L36.443,7.09l-.638.638L34.529,6.452l-.957.957L35.8,9.643l-.638.638L32.933,8.048,31.976,9l1.276,1.276-.638.638L31.338,9.643l-.957.957,2.233,2.233-.638.638-2.233-2.233-.957.957,1.276,1.276-.638.638-1.276-1.276-.957.957,2.233,2.233-.638.638-2.233-2.233-.957.957,1.276,1.276-.638.638-1.276-1.276L24,16.981l2.233,2.233-.638.638-2.233-2.233-.957.957,1.276,1.276-.638.638-1.276-1.276-.957.957L23.043,22.4l-.638.638L20.172,20.81l-.957.957,1.276,1.276-.638.638L18.576,22.4l-.957.957L19.853,25.6l-.638.638L16.981,24l-.957.957L17.3,26.233l-.638.638L15.386,25.6l-.957.957,2.233,2.233-.638.638L13.791,27.19l-.957.957,1.276,1.276-.638.638L12.2,28.786l-.957.957,2.233,2.233-.638.638L10.6,30.381l-.957.957,1.276,1.276-.638.638L9,31.976l-.957.957,2.233,2.233-.638.638L7.409,33.571l-.957.957L7.729,35.8l-.638.638L5.814,35.167l-.957.957L7.09,38.357,6.452,39,4.219,36.762l-1.595,1.6,7.019,7.019L45.376,9.643,38.357,2.624Z"/>
    </g>
    <g id="noun_Ruler_38825-3" data-name="noun_Ruler_38825" class="cls-5" transform="translate(551.584 1345.652) rotate(70)">
      <path id="Path_1756-3" data-name="Path 1756" class="cls-6" d="M34.138,1.595l2.233,2.233-.638.638L33.5,2.233l-.957.957,1.276,1.276-.638.638L31.9,3.828l-.957.957,2.233,2.233-.638.638L30.309,5.424l-.957.957,1.276,1.276L29.99,8.3,28.714,7.019l-.957.957,2.233,2.233-.638.638L27.119,8.614l-.957.957,1.276,1.276-.638.638-1.276-1.276-.957.957L26.8,13.4l-.638.638L23.928,11.8l-.957.957,1.276,1.276-.638.638L22.333,13.4l-.957.957,2.233,2.233-.638.638L20.738,15l-.957.957,1.276,1.276-.638.638L19.143,16.59l-.957.957,2.233,2.233-.638.638-2.233-2.233-.957.957,1.276,1.276-.638.638-1.276-1.276L15,20.738l2.233,2.233-.638.638-2.233-2.233-.957.957,1.276,1.276-.638.638-1.276-1.276-.957.957,2.233,2.233L13.4,26.8l-2.233-2.233-.957.957L11.486,26.8l-.638.638L9.571,26.162l-.957.957,2.233,2.233-.638.638L7.976,27.757l-.957.957L8.3,29.99l-.638.638L6.381,29.352l-.957.957,2.233,2.233-.638.638L4.785,30.947l-.957.957L5.1,33.181l-.638.638L3.19,32.543l-.957.957,2.233,2.233-.638.638L1.595,34.138,0,35.733l7.019,7.019L42.752,7.019,35.733,0Z" transform="translate(0 0)"/>
    </g>
    <g id="noun_Ruler_38825-4" data-name="noun_Ruler_38825" class="cls-5" transform="translate(195.106 1302.95) rotate(98)">
      <path id="Path_1756-4" data-name="Path 1756" class="cls-6" d="M36.762,4.219,39,6.452l-.638.638L36.124,4.857l-.957.957L36.443,7.09l-.638.638L34.529,6.452l-.957.957L35.8,9.643l-.638.638L32.933,8.048,31.976,9l1.276,1.276-.638.638L31.338,9.643l-.957.957,2.233,2.233-.638.638-2.233-2.233-.957.957,1.276,1.276-.638.638-1.276-1.276-.957.957,2.233,2.233-.638.638-2.233-2.233-.957.957,1.276,1.276-.638.638-1.276-1.276L24,16.981l2.233,2.233-.638.638-2.233-2.233-.957.957,1.276,1.276-.638.638-1.276-1.276-.957.957L23.043,22.4l-.638.638L20.172,20.81l-.957.957,1.276,1.276-.638.638L18.576,22.4l-.957.957L19.853,25.6l-.638.638L16.981,24l-.957.957L17.3,26.233l-.638.638L15.386,25.6l-.957.957,2.233,2.233-.638.638L13.791,27.19l-.957.957,1.276,1.276-.638.638L12.2,28.786l-.957.957,2.233,2.233-.638.638L10.6,30.381l-.957.957,1.276,1.276-.638.638L9,31.976l-.957.957,2.233,2.233-.638.638L7.409,33.571l-.957.957L7.729,35.8l-.638.638L5.814,35.167l-.957.957L7.09,38.357,6.452,39,4.219,36.762l-1.595,1.6,7.019,7.019L45.376,9.643,38.357,2.624Z"/>
    </g>
    <g id="noun_Ruler_38825-5" data-name="noun_Ruler_38825" class="cls-5" transform="matrix(-0.978, 0.208, -0.208, -0.978, 221.439, 960.509)">
      <path id="Path_1756-5" data-name="Path 1756" class="cls-6" d="M34.138,1.595l2.233,2.233-.638.638L33.5,2.233l-.957.957,1.276,1.276-.638.638L31.9,3.828l-.957.957,2.233,2.233-.638.638L30.309,5.424l-.957.957,1.276,1.276L29.99,8.3,28.714,7.019l-.957.957,2.233,2.233-.638.638L27.119,8.614l-.957.957,1.276,1.276-.638.638-1.276-1.276-.957.957L26.8,13.4l-.638.638L23.928,11.8l-.957.957,1.276,1.276-.638.638L22.333,13.4l-.957.957,2.233,2.233-.638.638L20.738,15l-.957.957,1.276,1.276-.638.638L19.143,16.59l-.957.957,2.233,2.233-.638.638-2.233-2.233-.957.957,1.276,1.276-.638.638-1.276-1.276L15,20.738l2.233,2.233-.638.638-2.233-2.233-.957.957,1.276,1.276-.638.638-1.276-1.276-.957.957,2.233,2.233L13.4,26.8l-2.233-2.233-.957.957L11.486,26.8l-.638.638L9.571,26.162l-.957.957,2.233,2.233-.638.638L7.976,27.757l-.957.957L8.3,29.99l-.638.638L6.381,29.352l-.957.957,2.233,2.233-.638.638L4.785,30.947l-.957.957L5.1,33.181l-.638.638L3.19,32.543l-.957.957,2.233,2.233-.638.638L1.595,34.138,0,35.733l7.019,7.019L42.752,7.019,35.733,0Z" transform="translate(0)"/>
    </g>
    <g id="noun_Ruler_38825-6" data-name="noun_Ruler_38825" class="cls-5" transform="translate(312.752 1414.128)">
      <path id="Path_1756-6" data-name="Path 1756" class="cls-6" d="M43.546,4.536l2.677,2.677-.765.765L42.781,5.3,41.634,6.448l1.53,1.53-.765.765-1.53-1.53L39.721,8.36,42.4,11.038l-.765.765L38.957,9.126l-1.147,1.147,1.53,1.53-.765.765-1.53-1.53L35.9,12.185l2.677,2.677-.765.765L35.132,12.95,33.985,14.1l1.53,1.53-.765.765-1.53-1.53L32.072,16.01l2.677,2.677-.765.765-2.677-2.677-1.147,1.147,1.53,1.53-.765.765-1.53-1.53-1.147,1.148,2.677,2.677-.765.765L27.483,20.6l-1.148,1.147,1.53,1.53-.765.765-1.53-1.53-1.147,1.148L27.1,26.336l-.765.765-2.677-2.677-1.148,1.147,1.53,1.53-.765.765-1.53-1.53L20.6,27.483l2.677,2.677-.765.765-2.677-2.677L18.687,29.4l1.53,1.53-.765.765-1.53-1.53-1.147,1.147,2.677,2.677-.765.765L16.01,32.072,14.862,33.22l1.53,1.53-.765.765-1.53-1.53L12.95,35.132l2.677,2.677-.765.765L12.185,35.9l-1.148,1.147,1.53,1.53-.765.765-1.53-1.53L9.126,38.957,11.8,41.634l-.765.765L8.36,39.721,7.213,40.869l1.53,1.53-.765.765-1.53-1.53L5.3,42.781l2.677,2.677-.765.765L4.536,43.546,2.624,45.458l8.414,8.414L53.872,11.038,45.458,2.624Z"/>
    </g>
    <g id="noun_Ruler_38825-7" data-name="noun_Ruler_38825" class="cls-5" transform="translate(148.386 1161.057) rotate(70)">
      <path id="Path_1756-7" data-name="Path 1756" class="cls-6" d="M40.922,1.912,43.6,4.589l-.765.765L40.157,2.677,39.01,3.824l1.53,1.53-.765.765-1.53-1.53L37.1,5.736l2.677,2.677-.765.765L36.333,6.5,35.185,7.649l1.53,1.53-.765.765-1.53-1.53L33.273,9.561l2.677,2.677L35.185,13l-2.677-2.677-1.147,1.147L32.891,13l-.765.765-1.53-1.53-1.147,1.148,2.677,2.677-.765.765-2.677-2.677L27.537,15.3l1.53,1.53-.765.765-1.53-1.53L25.624,17.21,28.3,19.887l-.765.765-2.677-2.677-1.148,1.147,1.53,1.53-.765.765-1.53-1.53L21.8,21.035l2.677,2.677-.765.765L21.035,21.8l-1.148,1.147,1.53,1.53-.765.765-1.53-1.53-1.147,1.148,2.677,2.677-.765.765L17.21,25.624l-1.148,1.147,1.53,1.53-.765.765-1.53-1.53-1.147,1.147,2.677,2.677-.765.765-2.677-2.677L12.238,30.6l1.53,1.53L13,32.891l-1.53-1.53-1.147,1.147L13,35.185l-.765.765L9.561,33.273,8.414,34.42l1.53,1.53-.765.765-1.53-1.53L6.5,36.333,9.178,39.01l-.765.765L5.736,37.1,4.589,38.245l1.53,1.53-.765.765-1.53-1.53L2.677,40.157l2.677,2.677-.765.765L1.912,40.922,0,42.834l8.414,8.414L51.248,8.414,42.834,0Z" transform="translate(0 0)"/>
    </g>
    <g id="noun_Ruler_38825-8" data-name="noun_Ruler_38825" class="cls-5" transform="matrix(0.891, -0.454, 0.454, 0.891, 165.007, 1090.031)">
      <path id="Path_1756-8" data-name="Path 1756" class="cls-6" d="M43.546,4.536l2.677,2.677-.765.765L42.781,5.3,41.634,6.448l1.53,1.53-.765.765-1.53-1.53L39.721,8.36,42.4,11.038l-.765.765L38.957,9.126l-1.147,1.147,1.53,1.53-.765.765-1.53-1.53L35.9,12.185l2.677,2.677-.765.765L35.132,12.95,33.985,14.1l1.53,1.53-.765.765-1.53-1.53L32.072,16.01l2.677,2.677-.765.765-2.677-2.677-1.147,1.147,1.53,1.53-.765.765-1.53-1.53-1.147,1.148,2.677,2.677-.765.765L27.483,20.6l-1.148,1.147,1.53,1.53-.765.765-1.53-1.53-1.147,1.148L27.1,26.336l-.765.765-2.677-2.677-1.148,1.147,1.53,1.53-.765.765-1.53-1.53L20.6,27.483l2.677,2.677-.765.765-2.677-2.677L18.687,29.4l1.53,1.53-.765.765-1.53-1.53-1.147,1.147,2.677,2.677-.765.765L16.01,32.072,14.862,33.22l1.53,1.53-.765.765-1.53-1.53L12.95,35.132l2.677,2.677-.765.765L12.185,35.9l-1.148,1.147,1.53,1.53-.765.765-1.53-1.53L9.126,38.957,11.8,41.634l-.765.765L8.36,39.721,7.213,40.869l1.53,1.53-.765.765-1.53-1.53L5.3,42.781l2.677,2.677-.765.765L4.536,43.546,2.624,45.458l8.414,8.414L53.872,11.038,45.458,2.624Z"/>
    </g>
    <g id="noun_Ruler_38825-9" data-name="noun_Ruler_38825" class="cls-7" transform="translate(229.185 1273.561)">
      <path id="Path_1756-9" data-name="Path 1756" class="cls-6" d="M22.094,3.534l1.274,1.274L23,5.171,21.73,3.9l-.546.546.728.728-.364.364-.728-.728-.546.546,1.274,1.274-.364.364L19.91,5.717l-.546.546.728.728-.364.364L19,6.627l-.546.546,1.274,1.274-.364.364L18.091,7.537l-.546.546.728.728-.364.364-.728-.728-.546.546,1.274,1.274-.364.364L16.271,9.357l-.546.546.728.728-.364.364-.728-.728-.546.546,1.274,1.274-.364.364-1.274-1.274-.546.546.728.728-.364.364-.728-.728L13,12.632l1.274,1.274-.364.364L12.632,13l-.546.546.728.728-.364.364-.728-.728-.546.546,1.274,1.274-.364.364-1.274-1.274-.546.546.728.728-.364.364L9.9,15.725l-.546.546,1.274,1.274-.364.364L8.993,16.635l-.546.546.728.728-.364.364-.728-.728-.546.546,1.274,1.274-.364.364L7.173,18.455,6.627,19l.728.728-.364.364-.728-.728-.546.546,1.274,1.274-.364.364L5.353,20.274l-.546.546.728.728-.364.364-.728-.728L3.9,21.73,5.171,23l-.364.364L3.534,22.094l-.91.91,4,4,20.38-20.38-4-4Z"/>
    </g>
    <g id="noun_Ruler_38825-10" data-name="noun_Ruler_38825" class="cls-7" transform="translate(278.783 1005.363) rotate(70)">
      <path id="Path_1756-10" data-name="Path 1756" class="cls-6" d="M19.47.91l1.274,1.274-.364.364L19.106,1.274l-.546.546.728.728-.364.364L18.2,2.183l-.546.546L18.924,4l-.364.364L17.286,3.093l-.546.546.728.728-.364.364L16.376,4l-.546.546L17.1,5.823l-.364.364L15.467,4.913l-.546.546.728.728-.364.364-.728-.728-.546.546,1.274,1.274-.364.364L13.647,6.733l-.546.546.728.728-.364.364-.728-.728-.546.546,1.274,1.274-.364.364L11.828,8.552l-.546.546.728.728-.364.364-.728-.728-.546.546,1.274,1.274-.364.364-1.274-1.274-.546.546.728.728-.364.364L9.1,11.282l-.546.546L9.826,13.1l-.364.364L8.188,12.191l-.546.546.728.728-.364.364L7.278,13.1l-.546.546,1.274,1.274-.364.364L6.369,14.011l-.546.546.728.728-.364.364-.728-.728-.546.546,1.274,1.274-.364.364L4.549,15.831,4,16.376l.728.728-.364.364-.728-.728-.546.546L4.367,18.56,4,18.924,2.729,17.65l-.546.546.728.728-.364.364L1.82,18.56l-.546.546L2.547,20.38l-.364.364L.91,19.47,0,20.38l4,4L24.383,4l-4-4Z" transform="translate(0)"/>
    </g>
    <g id="noun_spanner_797316" class="cls-5" transform="translate(461.036 1461.902) rotate(83)">
      <path id="Path_1757" data-name="Path 1757" class="cls-6" d="M37.34,31.724,19.462,13.846a1.55,1.55,0,0,1-.577-1.73,10.148,10.148,0,0,0,0-4.806A9.086,9.086,0,0,0,13.311.773,9.7,9.7,0,0,0,6.774.389a.368.368,0,0,0-.192.577l3.653,3.653A4.369,4.369,0,0,1,10.811,10a3.883,3.883,0,0,1-5.767.577L1.2,6.733a.4.4,0,0,0-.769,0,9.6,9.6,0,0,0,.192,6.536,9.787,9.787,0,0,0,6.536,5.767,10.148,10.148,0,0,0,4.806,0,1.55,1.55,0,0,1,1.73.577L31.573,37.491a3.622,3.622,0,0,0,5.767-.577A3.653,3.653,0,0,0,37.34,31.724Zm-1.346,4.229a1.9,1.9,0,1,1,0-2.691A1.858,1.858,0,0,1,35.995,35.953Z" transform="translate(0)"/>
    </g>
    <g id="noun_spanner_797316-2" data-name="noun_spanner_797316" class="cls-5" transform="matrix(-0.891, 0.454, -0.454, -0.891, 164.825, 1323.354)">
      <path id="Path_1757-2" data-name="Path 1757" class="cls-6" d="M37.39,31.728,19.512,13.85a1.55,1.55,0,0,1-.577-1.73,10.148,10.148,0,0,0,0-4.806A9.086,9.086,0,0,0,13.361.778,9.7,9.7,0,0,0,6.824.394.368.368,0,0,0,6.632.97l3.653,3.653a4.369,4.369,0,0,1,.577,5.383,3.883,3.883,0,0,1-5.767.577L1.25,6.737a.4.4,0,0,0-.769,0,9.6,9.6,0,0,0,.192,6.536,9.787,9.787,0,0,0,6.536,5.767,10.148,10.148,0,0,0,4.806,0,1.55,1.55,0,0,1,1.73.577L31.623,37.5a3.622,3.622,0,0,0,5.767-.577A3.653,3.653,0,0,0,37.39,31.728Zm-1.346,4.229a1.9,1.9,0,1,1,0-2.691A1.858,1.858,0,0,1,36.045,35.958Z" transform="translate(0 0)"/>
    </g>
    <g id="noun_spanner_797316-3" data-name="noun_spanner_797316" class="cls-5" transform="translate(557.566 1066.522) rotate(-65)">
      <path id="Path_1757-3" data-name="Path 1757" class="cls-6" d="M37.34,31.724,19.462,13.846a1.55,1.55,0,0,1-.577-1.73,10.148,10.148,0,0,0,0-4.806A9.086,9.086,0,0,0,13.311.773,9.7,9.7,0,0,0,6.774.389a.368.368,0,0,0-.192.577l3.653,3.653A4.369,4.369,0,0,1,10.811,10a3.883,3.883,0,0,1-5.767.577L1.2,6.733a.4.4,0,0,0-.769,0,9.6,9.6,0,0,0,.192,6.536,9.787,9.787,0,0,0,6.536,5.767,10.148,10.148,0,0,0,4.806,0,1.55,1.55,0,0,1,1.73.577L31.573,37.491a3.622,3.622,0,0,0,5.767-.577A3.653,3.653,0,0,0,37.34,31.724Zm-1.346,4.229a1.9,1.9,0,1,1,0-2.691A1.858,1.858,0,0,1,35.995,35.953Z" transform="translate(0)"/>
    </g>
    <g id="noun_spanner_797316-4" data-name="noun_spanner_797316" class="cls-5" transform="translate(639.453 1277.369) rotate(5)">
      <path id="Path_1757-4" data-name="Path 1757" class="cls-6" d="M37.39,31.728,19.512,13.85a1.55,1.55,0,0,1-.577-1.73,10.148,10.148,0,0,0,0-4.806A9.086,9.086,0,0,0,13.361.778,9.7,9.7,0,0,0,6.824.394.368.368,0,0,0,6.632.97l3.653,3.653a4.369,4.369,0,0,1,.577,5.383,3.883,3.883,0,0,1-5.767.577L1.25,6.737a.4.4,0,0,0-.769,0,9.6,9.6,0,0,0,.192,6.536,9.787,9.787,0,0,0,6.536,5.767,10.148,10.148,0,0,0,4.806,0,1.55,1.55,0,0,1,1.73.577L31.623,37.5a3.622,3.622,0,0,0,5.767-.577A3.653,3.653,0,0,0,37.39,31.728Zm-1.346,4.229a1.9,1.9,0,1,1,0-2.691A1.858,1.858,0,0,1,36.045,35.958Z" transform="translate(0 0)"/>
    </g>
    <g id="noun_spanner_797316-5" data-name="noun_spanner_797316" class="cls-5" transform="translate(120.453 1414.369) rotate(5)">
      <path id="Path_1757-5" data-name="Path 1757" class="cls-6" d="M37.39,31.728,19.512,13.85a1.55,1.55,0,0,1-.577-1.73,10.148,10.148,0,0,0,0-4.806A9.086,9.086,0,0,0,13.361.778,9.7,9.7,0,0,0,6.824.394.368.368,0,0,0,6.632.97l3.653,3.653a4.369,4.369,0,0,1,.577,5.383,3.883,3.883,0,0,1-5.767.577L1.25,6.737a.4.4,0,0,0-.769,0,9.6,9.6,0,0,0,.192,6.536,9.787,9.787,0,0,0,6.536,5.767,10.148,10.148,0,0,0,4.806,0,1.55,1.55,0,0,1,1.73.577L31.623,37.5a3.622,3.622,0,0,0,5.767-.577A3.653,3.653,0,0,0,37.39,31.728Zm-1.346,4.229a1.9,1.9,0,1,1,0-2.691A1.858,1.858,0,0,1,36.045,35.958Z" transform="translate(0 0)"/>
    </g>
    <g id="noun_spanner_797316-6" data-name="noun_spanner_797316" class="cls-8" transform="translate(563.858 1303.803)">
      <path id="Path_1757-6" data-name="Path 1757" class="cls-6" d="M47.343,40.212,24.682,17.551a1.965,1.965,0,0,1-.731-2.193,12.863,12.863,0,0,0,0-6.092A11.516,11.516,0,0,0,16.885.981,12.3,12.3,0,0,0,8.6.494a.467.467,0,0,0-.244.731l4.63,4.63a5.537,5.537,0,0,1,.731,6.823,4.921,4.921,0,0,1-7.31.731L1.534,8.535a.508.508,0,0,0-.975,0A12.175,12.175,0,0,0,.8,16.82a12.406,12.406,0,0,0,8.285,7.31,12.863,12.863,0,0,0,6.092,0,1.965,1.965,0,0,1,2.193.731L40.033,47.522a4.592,4.592,0,0,0,7.31-.731A4.631,4.631,0,0,0,47.343,40.212Zm-1.706,5.361a2.412,2.412,0,1,1,0-3.411A2.355,2.355,0,0,1,45.638,45.573Z" transform="translate(0)"/>
    </g>
    <g id="noun_spanner_797316-7" data-name="noun_spanner_797316" class="cls-8" transform="translate(368.985 1388.626) rotate(70)">
      <path id="Path_1757-7" data-name="Path 1757" class="cls-6" d="M47.393,40.217,24.732,17.556A1.965,1.965,0,0,1,24,15.363a12.863,12.863,0,0,0,0-6.092A11.516,11.516,0,0,0,16.935.986,12.3,12.3,0,0,0,8.65.5a.467.467,0,0,0-.244.731l4.63,4.63a5.537,5.537,0,0,1,.731,6.823,4.921,4.921,0,0,1-7.31.731L1.584,8.54a.508.508,0,0,0-.975,0,12.175,12.175,0,0,0,.244,8.285,12.406,12.406,0,0,0,8.285,7.31,12.863,12.863,0,0,0,6.092,0,1.965,1.965,0,0,1,2.193.731L40.083,47.527a4.592,4.592,0,0,0,7.31-.731A4.631,4.631,0,0,0,47.393,40.217Zm-1.706,5.361a2.412,2.412,0,1,1,0-3.411A2.355,2.355,0,0,1,45.688,45.577Z" transform="translate(0 0)"/>
    </g>
    <g id="noun_spanner_797316-8" data-name="noun_spanner_797316" class="cls-8" transform="translate(220.545 1395.988) rotate(-82)">
      <path id="Path_1757-8" data-name="Path 1757" class="cls-6" d="M47.343,40.212,24.682,17.551a1.965,1.965,0,0,1-.731-2.193,12.863,12.863,0,0,0,0-6.092A11.516,11.516,0,0,0,16.885.981,12.3,12.3,0,0,0,8.6.494a.467.467,0,0,0-.244.731l4.63,4.63a5.537,5.537,0,0,1,.731,6.823,4.921,4.921,0,0,1-7.31.731L1.534,8.535a.508.508,0,0,0-.975,0A12.175,12.175,0,0,0,.8,16.82a12.406,12.406,0,0,0,8.285,7.31,12.863,12.863,0,0,0,6.092,0,1.965,1.965,0,0,1,2.193.731L40.033,47.522a4.592,4.592,0,0,0,7.31-.731A4.631,4.631,0,0,0,47.343,40.212Zm-1.706,5.361a2.412,2.412,0,1,1,0-3.411A2.355,2.355,0,0,1,45.638,45.573Z" transform="translate(0)"/>
    </g>
    <g id="noun_spanner_797316-9" data-name="noun_spanner_797316" class="cls-8" transform="matrix(0.978, -0.208, 0.208, 0.978, 136.456, 1026.651)">
      <path id="Path_1757-9" data-name="Path 1757" class="cls-6" d="M47.393,40.217,24.732,17.556A1.965,1.965,0,0,1,24,15.363a12.863,12.863,0,0,0,0-6.092A11.516,11.516,0,0,0,16.935.986,12.3,12.3,0,0,0,8.65.5a.467.467,0,0,0-.244.731l4.63,4.63a5.537,5.537,0,0,1,.731,6.823,4.921,4.921,0,0,1-7.31.731L1.584,8.54a.508.508,0,0,0-.975,0,12.175,12.175,0,0,0,.244,8.285,12.406,12.406,0,0,0,8.285,7.31,12.863,12.863,0,0,0,6.092,0,1.965,1.965,0,0,1,2.193.731L40.083,47.527a4.592,4.592,0,0,0,7.31-.731A4.631,4.631,0,0,0,47.393,40.217Zm-1.706,5.361a2.412,2.412,0,1,1,0-3.411A2.355,2.355,0,0,1,45.688,45.577Z" transform="translate(0 0)"/>
    </g>
    <g id="noun_spanner_797316-10" data-name="noun_spanner_797316" class="cls-8" transform="translate(422.074 1011.831) rotate(-135)">
      <path id="Path_1757-10" data-name="Path 1757" class="cls-6" d="M47.343,40.212,24.682,17.551a1.965,1.965,0,0,1-.731-2.193,12.863,12.863,0,0,0,0-6.092A11.516,11.516,0,0,0,16.885.981,12.3,12.3,0,0,0,8.6.494a.467.467,0,0,0-.244.731l4.63,4.63a5.537,5.537,0,0,1,.731,6.823,4.921,4.921,0,0,1-7.31.731L1.534,8.535a.508.508,0,0,0-.975,0A12.175,12.175,0,0,0,.8,16.82a12.406,12.406,0,0,0,8.285,7.31,12.863,12.863,0,0,0,6.092,0,1.965,1.965,0,0,1,2.193.731L40.033,47.522a4.592,4.592,0,0,0,7.31-.731A4.631,4.631,0,0,0,47.343,40.212Zm-1.706,5.361a2.412,2.412,0,1,1,0-3.411A2.355,2.355,0,0,1,45.638,45.573Z" transform="translate(0)"/>
    </g>
    <g id="noun_spanner_797316-11" data-name="noun_spanner_797316" class="cls-8" transform="translate(649.585 1101.471) rotate(-65)">
      <path id="Path_1757-11" data-name="Path 1757" class="cls-6" d="M47.393,40.217,24.732,17.556A1.965,1.965,0,0,1,24,15.363a12.863,12.863,0,0,0,0-6.092A11.516,11.516,0,0,0,16.935.986,12.3,12.3,0,0,0,8.65.5a.467.467,0,0,0-.244.731l4.63,4.63a5.537,5.537,0,0,1,.731,6.823,4.921,4.921,0,0,1-7.31.731L1.584,8.54a.508.508,0,0,0-.975,0,12.175,12.175,0,0,0,.244,8.285,12.406,12.406,0,0,0,8.285,7.31,12.863,12.863,0,0,0,6.092,0,1.965,1.965,0,0,1,2.193.731L40.083,47.527a4.592,4.592,0,0,0,7.31-.731A4.631,4.631,0,0,0,47.393,40.217Zm-1.706,5.361a2.412,2.412,0,1,1,0-3.411A2.355,2.355,0,0,1,45.688,45.577Z" transform="translate(0 0)"/>
    </g>
    <g id="noun_spanner_797316-12" data-name="noun_spanner_797316" class="cls-5" transform="translate(671.05 1226.054)">
      <path id="Path_1757-12" data-name="Path 1757" class="cls-6" d="M23.647,20.1,12.316,8.773a.983.983,0,0,1-.365-1.1,6.431,6.431,0,0,0,0-3.046A5.758,5.758,0,0,0,8.417.488,6.15,6.15,0,0,0,4.275.245.233.233,0,0,0,4.153.61L6.468,2.925a2.769,2.769,0,0,1,.365,3.411A2.461,2.461,0,0,1,3.179,6.7L.742,4.265a.254.254,0,0,0-.487,0A6.087,6.087,0,0,0,.376,8.408a6.2,6.2,0,0,0,4.142,3.655,6.431,6.431,0,0,0,3.046,0,.983.983,0,0,1,1.1.366l11.33,11.33a2.3,2.3,0,0,0,3.655-.365A2.315,2.315,0,0,0,23.647,20.1Zm-.853,2.68a1.206,1.206,0,1,1,0-1.706A1.178,1.178,0,0,1,22.794,22.784Z" transform="translate(0 0)"/>
    </g>
    <g id="noun_spanner_797316-13" data-name="noun_spanner_797316" class="cls-5" transform="translate(152.05 1363.054)">
      <path id="Path_1757-13" data-name="Path 1757" class="cls-6" d="M23.647,20.1,12.316,8.773a.983.983,0,0,1-.365-1.1,6.431,6.431,0,0,0,0-3.046A5.758,5.758,0,0,0,8.417.488,6.15,6.15,0,0,0,4.275.245.233.233,0,0,0,4.153.61L6.468,2.925a2.769,2.769,0,0,1,.365,3.411A2.461,2.461,0,0,1,3.179,6.7L.742,4.265a.254.254,0,0,0-.487,0A6.087,6.087,0,0,0,.376,8.408a6.2,6.2,0,0,0,4.142,3.655,6.431,6.431,0,0,0,3.046,0,.983.983,0,0,1,1.1.366l11.33,11.33a2.3,2.3,0,0,0,3.655-.365A2.315,2.315,0,0,0,23.647,20.1Zm-.853,2.68a1.206,1.206,0,1,1,0-1.706A1.178,1.178,0,0,1,22.794,22.784Z" transform="translate(0 0)"/>
    </g>
    <g id="noun_spanner_797316-14" data-name="noun_spanner_797316" class="cls-5" transform="translate(507.002 1461.633) rotate(70)">
      <path id="Path_1757-14" data-name="Path 1757" class="cls-6" d="M23.7,20.108,12.366,8.778A.983.983,0,0,1,12,7.681a6.431,6.431,0,0,0,0-3.046A5.758,5.758,0,0,0,8.467.493,6.15,6.15,0,0,0,4.325.249.233.233,0,0,0,4.2.615L6.518,2.93a2.769,2.769,0,0,1,.365,3.411,2.461,2.461,0,0,1-3.655.365L.792,4.27a.254.254,0,0,0-.487,0A6.087,6.087,0,0,0,.426,8.412a6.2,6.2,0,0,0,4.142,3.655,6.431,6.431,0,0,0,3.046,0,.983.983,0,0,1,1.1.366l11.33,11.33A2.3,2.3,0,0,0,23.7,23.4,2.315,2.315,0,0,0,23.7,20.108Zm-.853,2.68a1.206,1.206,0,1,1,0-1.706A1.178,1.178,0,0,1,22.844,22.789Z" transform="translate(0 0)"/>
    </g>
    <g id="Group_2493" data-name="Group 2493" class="cls-5" transform="matrix(-0.19, -0.982, 0.982, -0.19, 205.058, 1167.476)">
      <path id="Path_1754-7" data-name="Path 1754" class="cls-3" d="M18.263.08A16.685,16.685,0,0,0,15,.08l-.673,2.6a14.146,14.146,0,0,0-2.677.718L9.768,1.482a16.625,16.625,0,0,0-2.823,1.63L7.664,5.7A14.155,14.155,0,0,0,5.7,7.663L3.113,6.944a16.648,16.648,0,0,0-1.63,2.824L3.4,11.652a14.18,14.18,0,0,0-.717,2.677L.08,15a16.6,16.6,0,0,0,0,3.26l2.6.673A14.185,14.185,0,0,0,3.4,21.612L1.483,23.5a16.622,16.622,0,0,0,1.63,2.823L5.7,25.6a14.129,14.129,0,0,0,1.96,1.96l-.719,2.591a16.623,16.623,0,0,0,2.823,1.63l1.885-1.918a14.145,14.145,0,0,0,2.677.717l.673,2.6a16.6,16.6,0,0,0,3.26,0l.673-2.6a14.14,14.14,0,0,0,2.677-.717L23.5,31.782a16.628,16.628,0,0,0,2.824-1.63L25.6,27.561a14.1,14.1,0,0,0,1.959-1.96l2.591.719a16.589,16.589,0,0,0,1.63-2.823l-1.919-1.885a14.147,14.147,0,0,0,.718-2.677l2.6-.673a16.685,16.685,0,0,0,0-3.26l-2.6-.673a14.141,14.141,0,0,0-.718-2.677l1.919-1.884a16.614,16.614,0,0,0-1.63-2.824l-2.591.719A14.121,14.121,0,0,0,25.6,5.7l.719-2.591A16.63,16.63,0,0,0,23.5,1.482L21.612,3.4a14.141,14.141,0,0,0-2.677-.718Zm-1.63,11.134a5.419,5.419,0,1,1-5.419,5.419A5.421,5.421,0,0,1,16.632,11.214Z" transform="translate(0 0)"/>
    </g>
    <g id="Group_2497" data-name="Group 2497" class="cls-9" transform="matrix(-0.19, -0.982, 0.982, -0.19, 689.058, 1211.476)">
      <path id="Path_1754-8" data-name="Path 1754" class="cls-3" d="M18.263.08A16.685,16.685,0,0,0,15,.08l-.673,2.6a14.146,14.146,0,0,0-2.677.718L9.768,1.482a16.625,16.625,0,0,0-2.823,1.63L7.664,5.7A14.155,14.155,0,0,0,5.7,7.663L3.113,6.944a16.648,16.648,0,0,0-1.63,2.824L3.4,11.652a14.18,14.18,0,0,0-.717,2.677L.08,15a16.6,16.6,0,0,0,0,3.26l2.6.673A14.185,14.185,0,0,0,3.4,21.612L1.483,23.5a16.622,16.622,0,0,0,1.63,2.823L5.7,25.6a14.129,14.129,0,0,0,1.96,1.96l-.719,2.591a16.623,16.623,0,0,0,2.823,1.63l1.885-1.918a14.145,14.145,0,0,0,2.677.717l.673,2.6a16.6,16.6,0,0,0,3.26,0l.673-2.6a14.14,14.14,0,0,0,2.677-.717L23.5,31.782a16.628,16.628,0,0,0,2.824-1.63L25.6,27.561a14.1,14.1,0,0,0,1.959-1.96l2.591.719a16.589,16.589,0,0,0,1.63-2.823l-1.919-1.885a14.147,14.147,0,0,0,.718-2.677l2.6-.673a16.685,16.685,0,0,0,0-3.26l-2.6-.673a14.141,14.141,0,0,0-.718-2.677l1.919-1.884a16.614,16.614,0,0,0-1.63-2.824l-2.591.719A14.121,14.121,0,0,0,25.6,5.7l.719-2.591A16.63,16.63,0,0,0,23.5,1.482L21.612,3.4a14.141,14.141,0,0,0-2.677-.718Zm-1.63,11.134a5.419,5.419,0,1,1-5.419,5.419A5.421,5.421,0,0,1,16.632,11.214Z" transform="translate(0 0)"/>
    </g>
    <g id="Group_2502" data-name="Group 2502" class="cls-9" transform="matrix(-0.19, -0.982, 0.982, -0.19, 170.058, 1348.476)">
      <path id="Path_1754-9" data-name="Path 1754" class="cls-3" d="M18.263.08A16.685,16.685,0,0,0,15,.08l-.673,2.6a14.146,14.146,0,0,0-2.677.718L9.768,1.482a16.625,16.625,0,0,0-2.823,1.63L7.664,5.7A14.155,14.155,0,0,0,5.7,7.663L3.113,6.944a16.648,16.648,0,0,0-1.63,2.824L3.4,11.652a14.18,14.18,0,0,0-.717,2.677L.08,15a16.6,16.6,0,0,0,0,3.26l2.6.673A14.185,14.185,0,0,0,3.4,21.612L1.483,23.5a16.622,16.622,0,0,0,1.63,2.823L5.7,25.6a14.129,14.129,0,0,0,1.96,1.96l-.719,2.591a16.623,16.623,0,0,0,2.823,1.63l1.885-1.918a14.145,14.145,0,0,0,2.677.717l.673,2.6a16.6,16.6,0,0,0,3.26,0l.673-2.6a14.14,14.14,0,0,0,2.677-.717L23.5,31.782a16.628,16.628,0,0,0,2.824-1.63L25.6,27.561a14.1,14.1,0,0,0,1.959-1.96l2.591.719a16.589,16.589,0,0,0,1.63-2.823l-1.919-1.885a14.147,14.147,0,0,0,.718-2.677l2.6-.673a16.685,16.685,0,0,0,0-3.26l-2.6-.673a14.141,14.141,0,0,0-.718-2.677l1.919-1.884a16.614,16.614,0,0,0-1.63-2.824l-2.591.719A14.121,14.121,0,0,0,25.6,5.7l.719-2.591A16.63,16.63,0,0,0,23.5,1.482L21.612,3.4a14.141,14.141,0,0,0-2.677-.718Zm-1.63,11.134a5.419,5.419,0,1,1-5.419,5.419A5.421,5.421,0,0,1,16.632,11.214Z" transform="translate(0 0)"/>
    </g>
    <g id="Group_2499" data-name="Group 2499" class="cls-9" transform="matrix(0.858, -0.514, 0.514, 0.858, 544.934, 1485.912)">
      <path id="Path_1754-10" data-name="Path 1754" class="cls-3" d="M18.263.08A16.685,16.685,0,0,0,15,.08l-.673,2.6a14.146,14.146,0,0,0-2.677.718L9.768,1.482a16.625,16.625,0,0,0-2.823,1.63L7.664,5.7A14.155,14.155,0,0,0,5.7,7.663L3.113,6.944a16.648,16.648,0,0,0-1.63,2.824L3.4,11.652a14.18,14.18,0,0,0-.717,2.677L.08,15a16.6,16.6,0,0,0,0,3.26l2.6.673A14.185,14.185,0,0,0,3.4,21.612L1.483,23.5a16.622,16.622,0,0,0,1.63,2.823L5.7,25.6a14.129,14.129,0,0,0,1.96,1.96l-.719,2.591a16.623,16.623,0,0,0,2.823,1.63l1.885-1.918a14.145,14.145,0,0,0,2.677.717l.673,2.6a16.6,16.6,0,0,0,3.26,0l.673-2.6a14.14,14.14,0,0,0,2.677-.717L23.5,31.782a16.628,16.628,0,0,0,2.824-1.63L25.6,27.561a14.1,14.1,0,0,0,1.959-1.96l2.591.719a16.589,16.589,0,0,0,1.63-2.823l-1.919-1.885a14.147,14.147,0,0,0,.718-2.677l2.6-.673a16.685,16.685,0,0,0,0-3.26l-2.6-.673a14.141,14.141,0,0,0-.718-2.677l1.919-1.884a16.614,16.614,0,0,0-1.63-2.824l-2.591.719A14.121,14.121,0,0,0,25.6,5.7l.719-2.591A16.63,16.63,0,0,0,23.5,1.482L21.612,3.4a14.141,14.141,0,0,0-2.677-.718Zm-1.63,11.134a5.419,5.419,0,1,1-5.419,5.419A5.421,5.421,0,0,1,16.632,11.214Z" transform="translate(0 0)"/>
    </g>
    <g id="Group_2496" data-name="Group 2496" class="cls-5" transform="matrix(-0.19, -0.982, 0.982, -0.19, 656.058, 1342.476)">
      <path id="Path_1754-11" data-name="Path 1754" class="cls-3" d="M18.263.08A16.685,16.685,0,0,0,15,.08l-.673,2.6a14.146,14.146,0,0,0-2.677.718L9.768,1.482a16.625,16.625,0,0,0-2.823,1.63L7.664,5.7A14.155,14.155,0,0,0,5.7,7.663L3.113,6.944a16.648,16.648,0,0,0-1.63,2.824L3.4,11.652a14.18,14.18,0,0,0-.717,2.677L.08,15a16.6,16.6,0,0,0,0,3.26l2.6.673A14.185,14.185,0,0,0,3.4,21.612L1.483,23.5a16.622,16.622,0,0,0,1.63,2.823L5.7,25.6a14.129,14.129,0,0,0,1.96,1.96l-.719,2.591a16.623,16.623,0,0,0,2.823,1.63l1.885-1.918a14.145,14.145,0,0,0,2.677.717l.673,2.6a16.6,16.6,0,0,0,3.26,0l.673-2.6a14.14,14.14,0,0,0,2.677-.717L23.5,31.782a16.628,16.628,0,0,0,2.824-1.63L25.6,27.561a14.1,14.1,0,0,0,1.959-1.96l2.591.719a16.589,16.589,0,0,0,1.63-2.823l-1.919-1.885a14.147,14.147,0,0,0,.718-2.677l2.6-.673a16.685,16.685,0,0,0,0-3.26l-2.6-.673a14.141,14.141,0,0,0-.718-2.677l1.919-1.884a16.614,16.614,0,0,0-1.63-2.824l-2.591.719A14.121,14.121,0,0,0,25.6,5.7l.719-2.591A16.63,16.63,0,0,0,23.5,1.482L21.612,3.4a14.141,14.141,0,0,0-2.677-.718Zm-1.63,11.134a5.419,5.419,0,1,1-5.419,5.419A5.421,5.421,0,0,1,16.632,11.214Z" transform="translate(0 0)"/>
    </g>
    <g id="Group_2503" data-name="Group 2503" class="cls-5" transform="matrix(-0.19, -0.982, 0.982, -0.19, 137.058, 1479.476)">
      <path id="Path_1754-12" data-name="Path 1754" class="cls-3" d="M18.263.08A16.685,16.685,0,0,0,15,.08l-.673,2.6a14.146,14.146,0,0,0-2.677.718L9.768,1.482a16.625,16.625,0,0,0-2.823,1.63L7.664,5.7A14.155,14.155,0,0,0,5.7,7.663L3.113,6.944a16.648,16.648,0,0,0-1.63,2.824L3.4,11.652a14.18,14.18,0,0,0-.717,2.677L.08,15a16.6,16.6,0,0,0,0,3.26l2.6.673A14.185,14.185,0,0,0,3.4,21.612L1.483,23.5a16.622,16.622,0,0,0,1.63,2.823L5.7,25.6a14.129,14.129,0,0,0,1.96,1.96l-.719,2.591a16.623,16.623,0,0,0,2.823,1.63l1.885-1.918a14.145,14.145,0,0,0,2.677.717l.673,2.6a16.6,16.6,0,0,0,3.26,0l.673-2.6a14.14,14.14,0,0,0,2.677-.717L23.5,31.782a16.628,16.628,0,0,0,2.824-1.63L25.6,27.561a14.1,14.1,0,0,0,1.959-1.96l2.591.719a16.589,16.589,0,0,0,1.63-2.823l-1.919-1.885a14.147,14.147,0,0,0,.718-2.677l2.6-.673a16.685,16.685,0,0,0,0-3.26l-2.6-.673a14.141,14.141,0,0,0-.718-2.677l1.919-1.884a16.614,16.614,0,0,0-1.63-2.824l-2.591.719A14.121,14.121,0,0,0,25.6,5.7l.719-2.591A16.63,16.63,0,0,0,23.5,1.482L21.612,3.4a14.141,14.141,0,0,0-2.677-.718Zm-1.63,11.134a5.419,5.419,0,1,1-5.419,5.419A5.421,5.421,0,0,1,16.632,11.214Z" transform="translate(0 0)"/>
    </g>
    <g id="Group_2498" data-name="Group 2498" class="cls-5" transform="matrix(0.858, -0.514, 0.514, 0.858, 371.869, 1497.068)">
      <path id="Path_1754-13" data-name="Path 1754" class="cls-3" d="M18.263.08A16.685,16.685,0,0,0,15,.08l-.673,2.6a14.146,14.146,0,0,0-2.677.718L9.768,1.482a16.625,16.625,0,0,0-2.823,1.63L7.664,5.7A14.155,14.155,0,0,0,5.7,7.663L3.113,6.944a16.648,16.648,0,0,0-1.63,2.824L3.4,11.652a14.18,14.18,0,0,0-.717,2.677L.08,15a16.6,16.6,0,0,0,0,3.26l2.6.673A14.185,14.185,0,0,0,3.4,21.612L1.483,23.5a16.622,16.622,0,0,0,1.63,2.823L5.7,25.6a14.129,14.129,0,0,0,1.96,1.96l-.719,2.591a16.623,16.623,0,0,0,2.823,1.63l1.885-1.918a14.145,14.145,0,0,0,2.677.717l.673,2.6a16.6,16.6,0,0,0,3.26,0l.673-2.6a14.14,14.14,0,0,0,2.677-.717L23.5,31.782a16.628,16.628,0,0,0,2.824-1.63L25.6,27.561a14.1,14.1,0,0,0,1.959-1.96l2.591.719a16.589,16.589,0,0,0,1.63-2.823l-1.919-1.885a14.147,14.147,0,0,0,.718-2.677l2.6-.673a16.685,16.685,0,0,0,0-3.26l-2.6-.673a14.141,14.141,0,0,0-.718-2.677l1.919-1.884a16.614,16.614,0,0,0-1.63-2.824l-2.591.719A14.121,14.121,0,0,0,25.6,5.7l.719-2.591A16.63,16.63,0,0,0,23.5,1.482L21.612,3.4a14.141,14.141,0,0,0-2.677-.718Zm-1.63,11.134a5.419,5.419,0,1,1-5.419,5.419A5.421,5.421,0,0,1,16.632,11.214Z" transform="translate(0 0)"/>
    </g>
    <g id="Group_2495" data-name="Group 2495" class="cls-5" transform="translate(192.672 1238.14) rotate(-111.929)">
      <path id="Path_1754-14" data-name="Path 1754" class="cls-3" d="M22.91.1a20.931,20.931,0,0,0-4.09,0l-.844,3.266a17.746,17.746,0,0,0-3.358.9L12.254,1.86A20.856,20.856,0,0,0,8.712,3.9l.9,3.251A17.757,17.757,0,0,0,7.155,9.614L3.9,8.711A20.885,20.885,0,0,0,1.86,12.254l2.406,2.364a17.788,17.788,0,0,0-.9,3.358L.1,18.82a20.826,20.826,0,0,0,0,4.09l3.266.844a17.8,17.8,0,0,0,.9,3.358L1.86,29.476A20.852,20.852,0,0,0,3.9,33.018l3.251-.9a17.725,17.725,0,0,0,2.459,2.459l-.9,3.25a20.853,20.853,0,0,0,3.542,2.045l2.364-2.406a17.745,17.745,0,0,0,3.358.9l.844,3.266a20.826,20.826,0,0,0,4.09,0l.844-3.266a17.738,17.738,0,0,0,3.358-.9l2.364,2.406a20.859,20.859,0,0,0,3.543-2.045l-.9-3.25a17.683,17.683,0,0,0,2.458-2.459l3.251.9a20.81,20.81,0,0,0,2.045-3.542l-2.407-2.364a17.746,17.746,0,0,0,.9-3.358l3.266-.844a20.931,20.931,0,0,0,0-4.09l-3.266-.844a17.74,17.74,0,0,0-.9-3.358l2.407-2.364a20.842,20.842,0,0,0-2.045-3.543l-3.251.9a17.715,17.715,0,0,0-2.458-2.458l.9-3.251A20.862,20.862,0,0,0,29.476,1.86L27.112,4.266a17.74,17.74,0,0,0-3.358-.9ZM20.865,14.067a6.8,6.8,0,1,1-6.8,6.8A6.8,6.8,0,0,1,20.865,14.067Z" transform="translate(0 0)"/>
    </g>
    <g id="Group_2501" data-name="Group 2501" class="cls-5" transform="matrix(0.744, -0.668, 0.668, 0.744, 309.859, 945.469)">
      <path id="Path_1754-15" data-name="Path 1754" class="cls-3" d="M22.91.1a20.931,20.931,0,0,0-4.09,0l-.844,3.266a17.746,17.746,0,0,0-3.358.9L12.254,1.86A20.856,20.856,0,0,0,8.712,3.9l.9,3.251A17.757,17.757,0,0,0,7.155,9.614L3.9,8.711A20.885,20.885,0,0,0,1.86,12.254l2.406,2.364a17.788,17.788,0,0,0-.9,3.358L.1,18.82a20.826,20.826,0,0,0,0,4.09l3.266.844a17.8,17.8,0,0,0,.9,3.358L1.86,29.476A20.852,20.852,0,0,0,3.9,33.018l3.251-.9a17.725,17.725,0,0,0,2.459,2.459l-.9,3.25a20.853,20.853,0,0,0,3.542,2.045l2.364-2.406a17.745,17.745,0,0,0,3.358.9l.844,3.266a20.826,20.826,0,0,0,4.09,0l.844-3.266a17.738,17.738,0,0,0,3.358-.9l2.364,2.406a20.859,20.859,0,0,0,3.543-2.045l-.9-3.25a17.683,17.683,0,0,0,2.458-2.459l3.251.9a20.81,20.81,0,0,0,2.045-3.542l-2.407-2.364a17.746,17.746,0,0,0,.9-3.358l3.266-.844a20.931,20.931,0,0,0,0-4.09l-3.266-.844a17.74,17.74,0,0,0-.9-3.358l2.407-2.364a20.842,20.842,0,0,0-2.045-3.543l-3.251.9a17.715,17.715,0,0,0-2.458-2.458l.9-3.251A20.862,20.862,0,0,0,29.476,1.86L27.112,4.266a17.74,17.74,0,0,0-3.358-.9ZM20.865,14.067a6.8,6.8,0,1,1-6.8,6.8A6.8,6.8,0,0,1,20.865,14.067Z" transform="translate(0 0)"/>
    </g>
    <g id="Group_2494" data-name="Group 2494" class="cls-5" transform="matrix(-0.19, -0.982, 0.982, -0.19, 170.603, 1094.278)">
      <path id="Path_1754-16" data-name="Path 1754" class="cls-3" d="M10.578.046a9.664,9.664,0,0,0-1.888,0L8.3,1.554a8.194,8.194,0,0,0-1.55.416L5.658.859A9.629,9.629,0,0,0,4.022,1.8l.417,1.5A8.2,8.2,0,0,0,3.3,4.439L1.8,4.022A9.643,9.643,0,0,0,.859,5.658L1.97,6.749A8.213,8.213,0,0,0,1.554,8.3l-1.508.39a9.616,9.616,0,0,0,0,1.888l1.508.39a8.216,8.216,0,0,0,.415,1.55L.859,13.609A9.628,9.628,0,0,0,1.8,15.245l1.5-.417a8.184,8.184,0,0,0,1.135,1.135l-.417,1.5a9.628,9.628,0,0,0,1.635.944L6.749,17.3a8.193,8.193,0,0,0,1.55.415l.39,1.508a9.615,9.615,0,0,0,1.888,0l.39-1.508a8.19,8.19,0,0,0,1.551-.415l1.091,1.111a9.631,9.631,0,0,0,1.636-.944l-.417-1.5a8.164,8.164,0,0,0,1.135-1.135l1.5.417a9.608,9.608,0,0,0,.944-1.635L17.3,12.518a8.194,8.194,0,0,0,.416-1.55l1.508-.39a9.664,9.664,0,0,0,0-1.888L17.713,8.3A8.191,8.191,0,0,0,17.3,6.749l1.111-1.091a9.623,9.623,0,0,0-.944-1.636l-1.5.417A8.179,8.179,0,0,0,14.828,3.3l.417-1.5A9.632,9.632,0,0,0,13.609.859L12.518,1.97a8.19,8.19,0,0,0-1.551-.416ZM9.633,6.495A3.139,3.139,0,1,1,6.495,9.634,3.14,3.14,0,0,1,9.633,6.495Z" transform="translate(0 0)"/>
    </g>
    <g id="noun_cogs_419093-7" data-name="noun_cogs_419093" class="cls-2" transform="translate(711.773 1034.281) rotate(104)">
      <g id="Group_2489-7" data-name="Group 2489" transform="matrix(-0.19, -0.982, 0.982, -0.19, 33.476, 90.739)">
        <path id="Path_1754-17" data-name="Path 1754" class="cls-3" d="M29.533.129a26.981,26.981,0,0,0-5.272,0l-1.088,4.21A22.876,22.876,0,0,0,18.843,5.5L15.8,2.4A26.885,26.885,0,0,0,11.23,5.034l1.163,4.19a22.889,22.889,0,0,0-3.17,3.169l-4.19-1.163A26.922,26.922,0,0,0,2.4,15.8l3.1,3.047a22.93,22.93,0,0,0-1.16,4.329L.13,24.26a26.846,26.846,0,0,0,0,5.272L4.34,30.62A22.939,22.939,0,0,0,5.5,34.949L2.4,38a26.88,26.88,0,0,0,2.636,4.566L9.224,41.4a22.848,22.848,0,0,0,3.17,3.17l-1.163,4.19A26.881,26.881,0,0,0,15.8,51.394l3.048-3.1a22.874,22.874,0,0,0,4.328,1.16l1.088,4.21a26.847,26.847,0,0,0,5.272,0l1.088-4.21a22.865,22.865,0,0,0,4.329-1.16L38,51.394a26.889,26.889,0,0,0,4.567-2.636L41.4,44.568a22.8,22.8,0,0,0,3.169-3.17l4.19,1.163A26.826,26.826,0,0,0,51.395,38l-3.1-3.048a22.876,22.876,0,0,0,1.161-4.328l4.21-1.088a26.981,26.981,0,0,0,0-5.272l-4.21-1.088a22.867,22.867,0,0,0-1.161-4.329l3.1-3.047a26.867,26.867,0,0,0-2.637-4.567l-4.19,1.163A22.836,22.836,0,0,0,41.4,9.224l1.163-4.19A26.893,26.893,0,0,0,38,2.4L34.949,5.5A22.867,22.867,0,0,0,30.62,4.339Zm-2.637,18A8.763,8.763,0,1,1,18.133,26.9,8.767,8.767,0,0,1,26.9,18.133Z" transform="translate(0 0)"/>
      </g>
      <g id="Group_2490-7" data-name="Group 2490" class="cls-7" transform="matrix(0.58, -0.815, 0.815, 0.58, -26.374, -8.149)">
        <path id="Path_1755-7" data-name="Path 1755" class="cls-3" d="M24.008.152a21.838,21.838,0,0,0-5.139,0L18.1,3.581A18.591,18.591,0,0,0,13.4,5.11L10.758,2.787A21.842,21.842,0,0,0,6.6,5.808L8,9.034a18.579,18.579,0,0,0-2.908,4l-3.5-.328A21.846,21.846,0,0,0,0,17.594l3.024,1.792a18.58,18.58,0,0,0,0,4.946L0,26.123A21.838,21.838,0,0,0,1.588,31.01l3.5-.329a18.562,18.562,0,0,0,2.908,4L6.6,37.911a21.877,21.877,0,0,0,4.157,3.02L13.4,38.608a18.591,18.591,0,0,0,4.7,1.529l.769,3.43a21.936,21.936,0,0,0,5.139,0l.769-3.43a18.6,18.6,0,0,0,4.7-1.529l2.638,2.322a21.912,21.912,0,0,0,4.157-3.02l-1.394-3.227a18.594,18.594,0,0,0,2.908-4l3.5.329a21.839,21.839,0,0,0,1.588-4.887l-3.024-1.791a18.58,18.58,0,0,0,0-4.946l3.024-1.792a21.846,21.846,0,0,0-1.588-4.886l-3.5.328a18.61,18.61,0,0,0-2.908-4l1.394-3.227a21.877,21.877,0,0,0-4.157-3.021L29.481,5.11a18.6,18.6,0,0,0-4.7-1.529Zm-2.57,16.172A5.535,5.535,0,1,1,15.9,21.859,5.538,5.538,0,0,1,21.439,16.323Z" transform="translate(0 0)"/>
      </g>
    </g>
    <g id="noun_cogs_419093-8" data-name="noun_cogs_419093" class="cls-2" transform="translate(767.099 1471.306) rotate(174)">
      <g id="Group_2489-8" data-name="Group 2489" transform="matrix(-0.19, -0.982, 0.982, -0.19, 59.85, 133.828)">
        <path id="Path_1754-18" data-name="Path 1754" class="cls-3" d="M29.533.129a26.981,26.981,0,0,0-5.272,0l-1.088,4.21A22.876,22.876,0,0,0,18.843,5.5L15.8,2.4A26.885,26.885,0,0,0,11.23,5.034l1.163,4.19a22.889,22.889,0,0,0-3.17,3.169l-4.19-1.163A26.922,26.922,0,0,0,2.4,15.8l3.1,3.047a22.93,22.93,0,0,0-1.16,4.329L.13,24.26a26.846,26.846,0,0,0,0,5.272L4.34,30.62A22.939,22.939,0,0,0,5.5,34.949L2.4,38a26.88,26.88,0,0,0,2.636,4.566L9.224,41.4a22.848,22.848,0,0,0,3.17,3.17l-1.163,4.19A26.881,26.881,0,0,0,15.8,51.394l3.048-3.1a22.874,22.874,0,0,0,4.328,1.16l1.088,4.21a26.847,26.847,0,0,0,5.272,0l1.088-4.21a22.865,22.865,0,0,0,4.329-1.16L38,51.394a26.889,26.889,0,0,0,4.567-2.636L41.4,44.568a22.8,22.8,0,0,0,3.169-3.17l4.19,1.163A26.826,26.826,0,0,0,51.395,38l-3.1-3.048a22.876,22.876,0,0,0,1.161-4.328l4.21-1.088a26.981,26.981,0,0,0,0-5.272l-4.21-1.088a22.867,22.867,0,0,0-1.161-4.329l3.1-3.047a26.867,26.867,0,0,0-2.637-4.567l-4.19,1.163A22.836,22.836,0,0,0,41.4,9.224l1.163-4.19A26.893,26.893,0,0,0,38,2.4L34.949,5.5A22.867,22.867,0,0,0,30.62,4.339Zm-2.637,18A8.763,8.763,0,1,1,18.133,26.9,8.767,8.767,0,0,1,26.9,18.133Z" transform="translate(0 0)"/>
      </g>
      <g id="Group_2490-8" data-name="Group 2490" class="cls-7" transform="matrix(0.58, -0.815, 0.815, 0.58, 0, 34.94)">
        <path id="Path_1755-8" data-name="Path 1755" class="cls-3" d="M24.008.152a21.838,21.838,0,0,0-5.139,0L18.1,3.581A18.591,18.591,0,0,0,13.4,5.11L10.758,2.787A21.842,21.842,0,0,0,6.6,5.808L8,9.034a18.579,18.579,0,0,0-2.908,4l-3.5-.328A21.846,21.846,0,0,0,0,17.594l3.024,1.792a18.58,18.58,0,0,0,0,4.946L0,26.123A21.838,21.838,0,0,0,1.588,31.01l3.5-.329a18.562,18.562,0,0,0,2.908,4L6.6,37.911a21.877,21.877,0,0,0,4.157,3.02L13.4,38.608a18.591,18.591,0,0,0,4.7,1.529l.769,3.43a21.936,21.936,0,0,0,5.139,0l.769-3.43a18.6,18.6,0,0,0,4.7-1.529l2.638,2.322a21.912,21.912,0,0,0,4.157-3.02l-1.394-3.227a18.594,18.594,0,0,0,2.908-4l3.5.329a21.839,21.839,0,0,0,1.588-4.887l-3.024-1.791a18.58,18.58,0,0,0,0-4.946l3.024-1.792a21.846,21.846,0,0,0-1.588-4.886l-3.5.328a18.61,18.61,0,0,0-2.908-4l1.394-3.227a21.877,21.877,0,0,0-4.157-3.021L29.481,5.11a18.6,18.6,0,0,0-4.7-1.529Zm-2.57,16.172A5.535,5.535,0,1,1,15.9,21.859,5.538,5.538,0,0,1,21.439,16.323Z" transform="translate(0 0)"/>
      </g>
    </g>
    <g id="Mask_Group_63" data-name="Mask Group 63" class="cls-10">
      <circle id="Ellipse_405" data-name="Ellipse 405" class="cls-11" cx="423.5" cy="423.5" r="423.5" transform="translate(0 788)"/>
    </g>
    <circle id="Ellipse_402" data-name="Ellipse 402" class="cls-12" cx="180.5" cy="180.5" r="180.5" transform="translate(242 1039)"/>
    <g class="cls-17" transform="matrix(1, 0, 0, 1, 0, 880)">
      <circle id="Ellipse_403-2" data-name="Ellipse 403" class="cls-13" cx="122.5" cy="122.5" r="122.5" transform="translate(300 217)"/>
    </g>
    <circle id="Ellipse_404" data-name="Ellipse 404" class="cls-12" cx="117" cy="117" r="117" transform="translate(306 1103)"/>
    <g id="Group_2488" data-name="Group 2488" transform="translate(373.22 1175.145)">
      <path id="Path_1619" data-name="Path 1619" class="cls-14" d="M20679.375-11304.146a52.658,52.658,0,0,1,16.555-2.959s13.281-15.178,28.266-2.544c14.992,12.616,19.234,64.473,19.234,64.473s-10.746-20.905-30.6-47.474C20702.035-11306.1,20692.738-11308.5,20679.375-11304.146Z" transform="translate(-20679.375 11334.325)"/>
      <path id="Path_1620" data-name="Path 1620" class="cls-15" d="M20670.734-11382.484s14.563,21.866-11.113,47.31,19.145,30.421,19.145,30.421-43.152.042-43.283-34.815c0,0-1.025-10.627,12.615-17.111C20661.711-11363.163,20669.289-11377.415,20670.734-11382.484Z" transform="translate(-20602.277 11382.484)"/>
      <path id="Path_1623" data-name="Path 1623" class="cls-16" d="M20702.707-11307.617c5.266,17.684,7.32,41.205,7.32,41.205s-4.414-8.588-13.3-22.523C20691.734-11297.957,20702.707-11307.617,20702.707-11307.617Z" transform="translate(-20645.979 11355.561)"/>
    </g>
  </g>
</svg>
