<svg xmlns="http://www.w3.org/2000/svg" xmlns:xlink="http://www.w3.org/1999/xlink" width="391.115" height="391.114" viewBox="0 0 391.115 391.114">
  <defs>
    <radialGradient id="radial-gradient" cx="0.5" cy="0.5" r="0.5" gradientUnits="objectBoundingBox">
      <stop offset="0" stop-color="#fff" stop-opacity="0"/>
      <stop offset="1" stop-color="#fff"/>
    </radialGradient>
    <linearGradient id="linear-gradient" x1="0.233" y1="0.076" x2="0.808" y2="0.897" gradientUnits="objectBoundingBox">
      <stop offset="0" stop-color="#2588dd"/>
      <stop offset="1" stop-color="#21c6bf"/>
    </linearGradient>
    <filter id="Ellipse_403" x="129.529" y="136.686" width="131.132" height="131.132" filterUnits="userSpaceOnUse">
      <feOffset dy="3" input="SourceAlpha"/>
      <feGaussianBlur stdDeviation="3" result="blur"/>
      <feFlood flood-color="#225978" flood-opacity="0.251"/>
      <feComposite operator="in" in2="blur"/>
      <feComposite in="SourceGraphic"/>
    </filter>
    <linearGradient id="linear-gradient-2" x1="0.5" x2="1.068" y2="1.123" gradientUnits="objectBoundingBox">
      <stop offset="0" stop-color="#102f54"/>
      <stop offset="1" stop-color="#b7cae3"/>
    </linearGradient>
    <linearGradient id="linear-gradient-3" x1="0.334" y1="0.073" x2="1.031" y2="1.107" gradientUnits="objectBoundingBox">
      <stop offset="0" stop-color="#18365b"/>
      <stop offset="1" stop-color="#a2b6d1"/>
    </linearGradient>
    <linearGradient id="linear-gradient-4" x2="1.065" y2="1.103" xlink:href="#linear-gradient-2"/>
  </defs>
  <g id="Group_2700" data-name="Group 2700" transform="translate(-117.717 -1835)">
    <g id="noun_cogs_419093" transform="translate(223.957 1935.975)" opacity="0.7">
      <g id="Group_2489" data-name="Group 2489" transform="matrix(-0.19, -0.982, 0.982, -0.19, 17.478, 45.173)">
        <path id="Path_1754" data-name="Path 1754" d="M13.637.06A12.459,12.459,0,0,0,11.2.06L10.7,2a10.563,10.563,0,0,0-2,.536L7.294,1.107A12.414,12.414,0,0,0,5.186,2.324l.537,1.935A10.569,10.569,0,0,0,4.259,5.722L2.324,5.185A12.431,12.431,0,0,0,1.107,7.294L2.539,8.7A10.588,10.588,0,0,0,2,10.7L.06,11.2a12.4,12.4,0,0,0,0,2.435l1.944.5a10.592,10.592,0,0,0,.535,2L1.107,17.545a12.412,12.412,0,0,0,1.217,2.108l1.935-.537A10.551,10.551,0,0,0,5.723,20.58l-.537,1.935a12.413,12.413,0,0,0,2.108,1.217L8.7,22.3a10.563,10.563,0,0,0,2,.535l.5,1.944a12.4,12.4,0,0,0,2.435,0l.5-1.944a10.558,10.558,0,0,0,2-.535l1.407,1.432a12.416,12.416,0,0,0,2.109-1.217l-.537-1.935a10.526,10.526,0,0,0,1.463-1.464l1.935.537a12.387,12.387,0,0,0,1.218-2.108L22.3,16.138a10.563,10.563,0,0,0,.536-2l1.944-.5a12.459,12.459,0,0,0,0-2.435l-1.944-.5a10.559,10.559,0,0,0-.536-2l1.433-1.407a12.406,12.406,0,0,0-1.218-2.109l-1.935.537a10.545,10.545,0,0,0-1.463-1.463l.537-1.935a12.418,12.418,0,0,0-2.109-1.218L16.138,2.54a10.559,10.559,0,0,0-2-.536ZM12.42,8.373A4.046,4.046,0,1,1,8.373,12.42,4.048,4.048,0,0,1,12.42,8.373Z" transform="translate(0 0)" fill="#21415d" fill-rule="evenodd"/>
      </g>
      <g id="Group_2490" data-name="Group 2490" transform="matrix(0.58, -0.815, 0.815, 0.58, 0, 16.134)">
        <path id="Path_1755" data-name="Path 1755" d="M11.086.07a10.084,10.084,0,0,0-2.373,0L8.358,1.654a8.585,8.585,0,0,0-2.173.706L4.968,1.287A10.086,10.086,0,0,0,3.048,2.682l.644,1.49A8.579,8.579,0,0,0,2.349,6.019L.733,5.868A10.088,10.088,0,0,0,0,8.124l1.4.827a8.58,8.58,0,0,0,0,2.284L0,12.063a10.084,10.084,0,0,0,.733,2.257l1.616-.152a8.571,8.571,0,0,0,1.343,1.848l-.644,1.49A10.1,10.1,0,0,0,4.968,18.9l1.218-1.072a8.585,8.585,0,0,0,2.173.706l.355,1.584a10.129,10.129,0,0,0,2.373,0l.355-1.584a8.587,8.587,0,0,0,2.172-.706L14.832,18.9a10.118,10.118,0,0,0,1.92-1.394l-.644-1.49a8.586,8.586,0,0,0,1.343-1.848l1.616.152a10.084,10.084,0,0,0,.733-2.257l-1.4-.827a8.58,8.58,0,0,0,0-2.284l1.4-.827a10.088,10.088,0,0,0-.733-2.256l-1.616.151a8.594,8.594,0,0,0-1.343-1.848l.644-1.49a10.1,10.1,0,0,0-1.92-1.395L13.613,2.36a8.587,8.587,0,0,0-2.172-.706ZM9.9,7.538a2.556,2.556,0,1,1-2.556,2.556A2.557,2.557,0,0,1,9.9,7.538Z" transform="translate(0 0)" fill="#21415d" fill-rule="evenodd"/>
      </g>
    </g>
    <g id="noun_cogs_419093-2" data-name="noun_cogs_419093" transform="translate(380.94 1885.988) rotate(70)" opacity="0.7">
      <g id="Group_2489-2" data-name="Group 2489" transform="matrix(-0.19, -0.982, 0.982, -0.19, 17.478, 45.173)">
        <path id="Path_1754-2" data-name="Path 1754" d="M13.637.06A12.459,12.459,0,0,0,11.2.06L10.7,2a10.563,10.563,0,0,0-2,.536L7.294,1.107A12.414,12.414,0,0,0,5.186,2.324l.537,1.935A10.57,10.57,0,0,0,4.259,5.722L2.324,5.185A12.431,12.431,0,0,0,1.107,7.294L2.539,8.7A10.588,10.588,0,0,0,2,10.7L.06,11.2a12.4,12.4,0,0,0,0,2.435l1.944.5a10.592,10.592,0,0,0,.535,2L1.107,17.545a12.412,12.412,0,0,0,1.217,2.108l1.935-.537A10.55,10.55,0,0,0,5.723,20.58l-.537,1.935a12.413,12.413,0,0,0,2.108,1.217L8.7,22.3a10.563,10.563,0,0,0,2,.535l.5,1.944a12.4,12.4,0,0,0,2.435,0l.5-1.944a10.558,10.558,0,0,0,2-.535l1.407,1.432a12.416,12.416,0,0,0,2.109-1.217l-.537-1.935a10.526,10.526,0,0,0,1.463-1.464l1.935.537a12.387,12.387,0,0,0,1.218-2.108L22.3,16.138a10.563,10.563,0,0,0,.536-2l1.944-.5a12.459,12.459,0,0,0,0-2.435l-1.944-.5a10.559,10.559,0,0,0-.536-2l1.433-1.407a12.406,12.406,0,0,0-1.218-2.109l-1.935.537a10.545,10.545,0,0,0-1.463-1.463l.537-1.935a12.418,12.418,0,0,0-2.109-1.218L16.138,2.54a10.559,10.559,0,0,0-2-.536ZM12.42,8.373A4.046,4.046,0,1,1,8.373,12.42,4.048,4.048,0,0,1,12.42,8.373Z" transform="translate(0 0)" fill="#21415d" fill-rule="evenodd"/>
      </g>
      <g id="Group_2490-2" data-name="Group 2490" transform="matrix(0.58, -0.815, 0.815, 0.58, 0, 16.134)">
        <path id="Path_1755-2" data-name="Path 1755" d="M11.086.07a10.084,10.084,0,0,0-2.373,0L8.358,1.654a8.585,8.585,0,0,0-2.173.706L4.968,1.287A10.086,10.086,0,0,0,3.048,2.682l.644,1.49A8.579,8.579,0,0,0,2.349,6.019L.733,5.868A10.088,10.088,0,0,0,0,8.124l1.4.827a8.58,8.58,0,0,0,0,2.284L0,12.063a10.084,10.084,0,0,0,.733,2.257l1.616-.152a8.571,8.571,0,0,0,1.343,1.848l-.644,1.49A10.1,10.1,0,0,0,4.968,18.9l1.218-1.072a8.585,8.585,0,0,0,2.173.706l.355,1.584a10.129,10.129,0,0,0,2.373,0l.355-1.584a8.587,8.587,0,0,0,2.172-.706L14.832,18.9a10.118,10.118,0,0,0,1.92-1.394l-.644-1.49a8.586,8.586,0,0,0,1.343-1.848l1.616.152a10.084,10.084,0,0,0,.733-2.257l-1.4-.827a8.58,8.58,0,0,0,0-2.284l1.4-.827a10.088,10.088,0,0,0-.733-2.256l-1.616.151a8.594,8.594,0,0,0-1.343-1.848l.644-1.49a10.1,10.1,0,0,0-1.92-1.395L13.613,2.36a8.587,8.587,0,0,0-2.172-.706ZM9.9,7.538a2.556,2.556,0,1,1-2.556,2.556A2.557,2.557,0,0,1,9.9,7.538Z" transform="translate(0 0)" fill="#21415d" fill-rule="evenodd"/>
      </g>
    </g>
    <g id="noun_cogs_419093-3" data-name="noun_cogs_419093" transform="translate(190.249 2112.831)" opacity="0.7">
      <g id="Group_2489-3" data-name="Group 2489" transform="matrix(-0.19, -0.982, 0.982, -0.19, 82.587, 65.491)">
        <path id="Path_1754-3" data-name="Path 1754" d="M13.637.06A12.459,12.459,0,0,0,11.2.06L10.7,2a10.563,10.563,0,0,0-2,.536L7.294,1.107A12.414,12.414,0,0,0,5.186,2.324l.537,1.935A10.569,10.569,0,0,0,4.259,5.722L2.324,5.185A12.431,12.431,0,0,0,1.107,7.294L2.539,8.7A10.588,10.588,0,0,0,2,10.7L.06,11.2a12.4,12.4,0,0,0,0,2.435l1.944.5a10.592,10.592,0,0,0,.535,2L1.107,17.545a12.412,12.412,0,0,0,1.217,2.108l1.935-.537A10.551,10.551,0,0,0,5.723,20.58l-.537,1.935a12.413,12.413,0,0,0,2.108,1.217L8.7,22.3a10.563,10.563,0,0,0,2,.535l.5,1.944a12.4,12.4,0,0,0,2.435,0l.5-1.944a10.558,10.558,0,0,0,2-.535l1.407,1.432a12.416,12.416,0,0,0,2.109-1.217l-.537-1.935a10.526,10.526,0,0,0,1.463-1.464l1.935.537a12.387,12.387,0,0,0,1.218-2.108L22.3,16.138a10.563,10.563,0,0,0,.536-2l1.944-.5a12.459,12.459,0,0,0,0-2.435l-1.944-.5a10.559,10.559,0,0,0-.536-2l1.433-1.407a12.406,12.406,0,0,0-1.218-2.109l-1.935.537a10.545,10.545,0,0,0-1.463-1.463l.537-1.935a12.418,12.418,0,0,0-2.109-1.218L16.138,2.54a10.559,10.559,0,0,0-2-.536ZM12.42,8.373A4.046,4.046,0,1,1,8.373,12.42,4.048,4.048,0,0,1,12.42,8.373Z" transform="translate(0 0)" fill="#21415d" fill-rule="evenodd"/>
      </g>
      <g id="Group_2490-3" data-name="Group 2490" transform="matrix(0.58, -0.815, 0.815, 0.58, 0, 16.134)">
        <path id="Path_1755-3" data-name="Path 1755" d="M11.086.07a10.084,10.084,0,0,0-2.373,0L8.358,1.654a8.585,8.585,0,0,0-2.173.706L4.968,1.287A10.086,10.086,0,0,0,3.048,2.682l.644,1.49A8.579,8.579,0,0,0,2.349,6.019L.733,5.868A10.088,10.088,0,0,0,0,8.124l1.4.827a8.58,8.58,0,0,0,0,2.284L0,12.063a10.084,10.084,0,0,0,.733,2.257l1.616-.152a8.571,8.571,0,0,0,1.343,1.848l-.644,1.49A10.1,10.1,0,0,0,4.968,18.9l1.218-1.072a8.585,8.585,0,0,0,2.173.706l.355,1.584a10.129,10.129,0,0,0,2.373,0l.355-1.584a8.587,8.587,0,0,0,2.172-.706L14.832,18.9a10.118,10.118,0,0,0,1.92-1.394l-.644-1.49a8.586,8.586,0,0,0,1.343-1.848l1.616.152a10.084,10.084,0,0,0,.733-2.257l-1.4-.827a8.58,8.58,0,0,0,0-2.284l1.4-.827a10.088,10.088,0,0,0-.733-2.256l-1.616.151a8.594,8.594,0,0,0-1.343-1.848l.644-1.49a10.1,10.1,0,0,0-1.92-1.395L13.613,2.36a8.587,8.587,0,0,0-2.172-.706ZM9.9,7.538a2.556,2.556,0,1,1-2.556,2.556A2.557,2.557,0,0,1,9.9,7.538Z" transform="translate(0 0)" fill="#21415d" fill-rule="evenodd"/>
      </g>
    </g>
    <g id="noun_cogs_419093-4" data-name="noun_cogs_419093" transform="translate(164.43 1924.797) rotate(70)" opacity="0.7">
      <g id="Group_2489-4" data-name="Group 2489" transform="matrix(-0.19, -0.982, 0.982, -0.19, 82.587, 65.491)">
        <path id="Path_1754-4" data-name="Path 1754" d="M13.637.06A12.459,12.459,0,0,0,11.2.06L10.7,2a10.563,10.563,0,0,0-2,.536L7.294,1.107A12.414,12.414,0,0,0,5.186,2.324l.537,1.935A10.57,10.57,0,0,0,4.259,5.722L2.324,5.185A12.431,12.431,0,0,0,1.107,7.294L2.539,8.7A10.588,10.588,0,0,0,2,10.7L.06,11.2a12.4,12.4,0,0,0,0,2.435l1.944.5a10.592,10.592,0,0,0,.535,2L1.107,17.545a12.412,12.412,0,0,0,1.217,2.108l1.935-.537A10.55,10.55,0,0,0,5.723,20.58l-.537,1.935a12.413,12.413,0,0,0,2.108,1.217L8.7,22.3a10.563,10.563,0,0,0,2,.535l.5,1.944a12.4,12.4,0,0,0,2.435,0l.5-1.944a10.558,10.558,0,0,0,2-.535l1.407,1.432a12.416,12.416,0,0,0,2.109-1.217l-.537-1.935a10.526,10.526,0,0,0,1.463-1.464l1.935.537a12.387,12.387,0,0,0,1.218-2.108L22.3,16.138a10.563,10.563,0,0,0,.536-2l1.944-.5a12.459,12.459,0,0,0,0-2.435l-1.944-.5a10.559,10.559,0,0,0-.536-2l1.433-1.407a12.406,12.406,0,0,0-1.218-2.109l-1.935.537a10.545,10.545,0,0,0-1.463-1.463l.537-1.935a12.418,12.418,0,0,0-2.109-1.218L16.138,2.54a10.559,10.559,0,0,0-2-.536ZM12.42,8.373A4.046,4.046,0,1,1,8.373,12.42,4.048,4.048,0,0,1,12.42,8.373Z" transform="translate(0 0)" fill="#21415d" fill-rule="evenodd"/>
      </g>
      <g id="Group_2490-4" data-name="Group 2490" transform="matrix(0.58, -0.815, 0.815, 0.58, 0, 16.134)">
        <path id="Path_1755-4" data-name="Path 1755" d="M11.086.07a10.084,10.084,0,0,0-2.373,0L8.358,1.654a8.585,8.585,0,0,0-2.173.706L4.968,1.287A10.086,10.086,0,0,0,3.048,2.682l.644,1.49A8.579,8.579,0,0,0,2.349,6.019L.733,5.868A10.088,10.088,0,0,0,0,8.124l1.4.827a8.58,8.58,0,0,0,0,2.284L0,12.063a10.084,10.084,0,0,0,.733,2.257l1.616-.152a8.571,8.571,0,0,0,1.343,1.848l-.644,1.49A10.1,10.1,0,0,0,4.968,18.9l1.218-1.072a8.585,8.585,0,0,0,2.173.706l.355,1.584a10.129,10.129,0,0,0,2.373,0l.355-1.584a8.587,8.587,0,0,0,2.172-.706L14.832,18.9a10.118,10.118,0,0,0,1.92-1.394l-.644-1.49a8.586,8.586,0,0,0,1.343-1.848l1.616.152a10.084,10.084,0,0,0,.733-2.257l-1.4-.827a8.58,8.58,0,0,0,0-2.284l1.4-.827a10.088,10.088,0,0,0-.733-2.256l-1.616.151a8.594,8.594,0,0,0-1.343-1.848l.644-1.49a10.1,10.1,0,0,0-1.92-1.395L13.613,2.36a8.587,8.587,0,0,0-2.172-.706ZM9.9,7.538a2.556,2.556,0,1,1-2.556,2.556A2.557,2.557,0,0,1,9.9,7.538Z" transform="translate(0 0)" fill="#21415d" fill-rule="evenodd"/>
      </g>
    </g>
    <line id="Line_2012" data-name="Line 2012" y2="18.932" transform="translate(312.812 1954.828)" fill="none" stroke="#d9e8f8" stroke-width="1"/>
    <g id="noun_cogs_419093-5" data-name="noun_cogs_419093" transform="translate(346.325 2096.208)" opacity="0.7">
      <g id="Group_2489-5" data-name="Group 2489" transform="matrix(-0.19, -0.982, 0.982, -0.19, 17.478, 45.173)">
        <path id="Path_1754-5" data-name="Path 1754" d="M13.637.06A12.459,12.459,0,0,0,11.2.06L10.7,2a10.563,10.563,0,0,0-2,.536L7.294,1.107A12.414,12.414,0,0,0,5.186,2.324l.537,1.935A10.569,10.569,0,0,0,4.259,5.722L2.324,5.185A12.431,12.431,0,0,0,1.107,7.294L2.539,8.7A10.588,10.588,0,0,0,2,10.7L.06,11.2a12.4,12.4,0,0,0,0,2.435l1.944.5a10.592,10.592,0,0,0,.535,2L1.107,17.545a12.412,12.412,0,0,0,1.217,2.108l1.935-.537A10.551,10.551,0,0,0,5.723,20.58l-.537,1.935a12.413,12.413,0,0,0,2.108,1.217L8.7,22.3a10.563,10.563,0,0,0,2,.535l.5,1.944a12.4,12.4,0,0,0,2.435,0l.5-1.944a10.558,10.558,0,0,0,2-.535l1.407,1.432a12.416,12.416,0,0,0,2.109-1.217l-.537-1.935a10.526,10.526,0,0,0,1.463-1.464l1.935.537a12.387,12.387,0,0,0,1.218-2.108L22.3,16.138a10.563,10.563,0,0,0,.536-2l1.944-.5a12.459,12.459,0,0,0,0-2.435l-1.944-.5a10.559,10.559,0,0,0-.536-2l1.433-1.407a12.406,12.406,0,0,0-1.218-2.109l-1.935.537a10.545,10.545,0,0,0-1.463-1.463l.537-1.935a12.418,12.418,0,0,0-2.109-1.218L16.138,2.54a10.559,10.559,0,0,0-2-.536ZM12.42,8.373A4.046,4.046,0,1,1,8.373,12.42,4.048,4.048,0,0,1,12.42,8.373Z" transform="translate(0 0)" fill="#21415d" fill-rule="evenodd"/>
      </g>
      <g id="Group_2490-5" data-name="Group 2490" transform="matrix(0.58, -0.815, 0.815, 0.58, 0, 16.134)">
        <path id="Path_1755-5" data-name="Path 1755" d="M11.086.07a10.084,10.084,0,0,0-2.373,0L8.358,1.654a8.585,8.585,0,0,0-2.173.706L4.968,1.287A10.086,10.086,0,0,0,3.048,2.682l.644,1.49A8.579,8.579,0,0,0,2.349,6.019L.733,5.868A10.088,10.088,0,0,0,0,8.124l1.4.827a8.58,8.58,0,0,0,0,2.284L0,12.063a10.084,10.084,0,0,0,.733,2.257l1.616-.152a8.571,8.571,0,0,0,1.343,1.848l-.644,1.49A10.1,10.1,0,0,0,4.968,18.9l1.218-1.072a8.585,8.585,0,0,0,2.173.706l.355,1.584a10.129,10.129,0,0,0,2.373,0l.355-1.584a8.587,8.587,0,0,0,2.172-.706L14.832,18.9a10.118,10.118,0,0,0,1.92-1.394l-.644-1.49a8.586,8.586,0,0,0,1.343-1.848l1.616.152a10.084,10.084,0,0,0,.733-2.257l-1.4-.827a8.58,8.58,0,0,0,0-2.284l1.4-.827a10.088,10.088,0,0,0-.733-2.256l-1.616.151a8.594,8.594,0,0,0-1.343-1.848l.644-1.49a10.1,10.1,0,0,0-1.92-1.395L13.613,2.36a8.587,8.587,0,0,0-2.172-.706ZM9.9,7.538a2.556,2.556,0,1,1-2.556,2.556A2.557,2.557,0,0,1,9.9,7.538Z" transform="translate(0 0)" fill="#21415d" fill-rule="evenodd"/>
      </g>
    </g>
    <g id="noun_cogs_419093-6" data-name="noun_cogs_419093" transform="translate(250.283 2115.633) rotate(70)" opacity="0.7">
      <g id="Group_2489-6" data-name="Group 2489" transform="matrix(-0.19, -0.982, 0.982, -0.19, 17.478, 45.173)">
        <path id="Path_1754-6" data-name="Path 1754" d="M13.637.06A12.459,12.459,0,0,0,11.2.06L10.7,2a10.563,10.563,0,0,0-2,.536L7.294,1.107A12.414,12.414,0,0,0,5.186,2.324l.537,1.935A10.57,10.57,0,0,0,4.259,5.722L2.324,5.185A12.431,12.431,0,0,0,1.107,7.294L2.539,8.7A10.588,10.588,0,0,0,2,10.7L.06,11.2a12.4,12.4,0,0,0,0,2.435l1.944.5a10.592,10.592,0,0,0,.535,2L1.107,17.545a12.412,12.412,0,0,0,1.217,2.108l1.935-.537A10.55,10.55,0,0,0,5.723,20.58l-.537,1.935a12.413,12.413,0,0,0,2.108,1.217L8.7,22.3a10.563,10.563,0,0,0,2,.535l.5,1.944a12.4,12.4,0,0,0,2.435,0l.5-1.944a10.558,10.558,0,0,0,2-.535l1.407,1.432a12.416,12.416,0,0,0,2.109-1.217l-.537-1.935a10.526,10.526,0,0,0,1.463-1.464l1.935.537a12.387,12.387,0,0,0,1.218-2.108L22.3,16.138a10.563,10.563,0,0,0,.536-2l1.944-.5a12.459,12.459,0,0,0,0-2.435l-1.944-.5a10.559,10.559,0,0,0-.536-2l1.433-1.407a12.406,12.406,0,0,0-1.218-2.109l-1.935.537a10.545,10.545,0,0,0-1.463-1.463l.537-1.935a12.418,12.418,0,0,0-2.109-1.218L16.138,2.54a10.559,10.559,0,0,0-2-.536ZM12.42,8.373A4.046,4.046,0,1,1,8.373,12.42,4.048,4.048,0,0,1,12.42,8.373Z" transform="translate(0 0)" fill="#21415d" fill-rule="evenodd"/>
      </g>
      <g id="Group_2490-6" data-name="Group 2490" transform="matrix(0.58, -0.815, 0.815, 0.58, 0, 16.134)">
        <path id="Path_1755-6" data-name="Path 1755" d="M11.086.07a10.084,10.084,0,0,0-2.373,0L8.358,1.654a8.585,8.585,0,0,0-2.173.706L4.968,1.287A10.086,10.086,0,0,0,3.048,2.682l.644,1.49A8.579,8.579,0,0,0,2.349,6.019L.733,5.868A10.088,10.088,0,0,0,0,8.124l1.4.827a8.58,8.58,0,0,0,0,2.284L0,12.063a10.084,10.084,0,0,0,.733,2.257l1.616-.152a8.571,8.571,0,0,0,1.343,1.848l-.644,1.49A10.1,10.1,0,0,0,4.968,18.9l1.218-1.072a8.585,8.585,0,0,0,2.173.706l.355,1.584a10.129,10.129,0,0,0,2.373,0l.355-1.584a8.587,8.587,0,0,0,2.172-.706L14.832,18.9a10.118,10.118,0,0,0,1.92-1.394l-.644-1.49a8.586,8.586,0,0,0,1.343-1.848l1.616.152a10.084,10.084,0,0,0,.733-2.257l-1.4-.827a8.58,8.58,0,0,0,0-2.284l1.4-.827a10.088,10.088,0,0,0-.733-2.256l-1.616.151a8.594,8.594,0,0,0-1.343-1.848l.644-1.49a10.1,10.1,0,0,0-1.92-1.395L13.613,2.36a8.587,8.587,0,0,0-2.172-.706ZM9.9,7.538a2.556,2.556,0,1,1-2.556,2.556A2.557,2.557,0,0,1,9.9,7.538Z" transform="translate(0 0)" fill="#21415d" fill-rule="evenodd"/>
      </g>
    </g>
    <g id="noun_Ruler_38825" transform="translate(389.06 2004.006)" opacity="0.5">
      <path id="Path_1756" data-name="Path 1756" d="M18.388,3.361l1.031,1.031-.295.295L18.093,3.655l-.442.442.589.589-.295.295-.589-.589-.442.442,1.031,1.031-.295.295L16.62,5.129l-.442.442.589.589-.295.295-.589-.589-.442.442,1.031,1.031-.295.295L15.147,6.6l-.442.442.589.589L15,7.928l-.589-.589-.442.442L15,8.812l-.295.295L13.673,8.075l-.442.442.589.589-.295.295-.589-.589-.442.442,1.031,1.031-.295.295L12.2,9.548l-.442.442.589.589-.295.295-.589-.589-.442.442,1.031,1.031-.295.295-1.031-1.031-.442.442.589.589-.295.295-.589-.589-.442.442,1.031,1.031-.295.295L9.254,12.495l-.442.442.589.589-.295.295-.589-.589-.442.442L9.106,14.7,8.812,15,7.78,13.968l-.442.442L7.928,15l-.295.295L7.044,14.7l-.442.442,1.031,1.031-.295.295L6.307,15.441l-.442.442.589.589-.295.295-.589-.589-.442.442L6.16,17.651l-.295.295L4.834,16.914l-.442.442.589.589-.295.295L4.1,17.651l-.442.442,1.031,1.031-.295.295L3.361,18.388l-.737.737,3.241,3.241,16.5-16.5L19.124,2.624Z" transform="translate(-2.624 -2.624)" fill="#21415d"/>
    </g>
    <g id="noun_Ruler_38825-2" data-name="noun_Ruler_38825" transform="translate(149.405 2067.268)" opacity="0.5">
      <path id="Path_1756-2" data-name="Path 1756" d="M18.388,3.361l1.031,1.031-.295.295L18.093,3.655l-.442.442.589.589-.295.295-.589-.589-.442.442,1.031,1.031-.295.295L16.62,5.129l-.442.442.589.589-.295.295-.589-.589-.442.442,1.031,1.031-.295.295L15.147,6.6l-.442.442.589.589L15,7.928l-.589-.589-.442.442L15,8.812l-.295.295L13.673,8.075l-.442.442.589.589-.295.295-.589-.589-.442.442,1.031,1.031-.295.295L12.2,9.548l-.442.442.589.589-.295.295-.589-.589-.442.442,1.031,1.031-.295.295-1.031-1.031-.442.442.589.589-.295.295-.589-.589-.442.442,1.031,1.031-.295.295L9.254,12.495l-.442.442.589.589-.295.295-.589-.589-.442.442L9.106,14.7,8.812,15,7.78,13.968l-.442.442L7.928,15l-.295.295L7.044,14.7l-.442.442,1.031,1.031-.295.295L6.307,15.441l-.442.442.589.589-.295.295-.589-.589-.442.442L6.16,17.651l-.295.295L4.834,16.914l-.442.442.589.589-.295.295L4.1,17.651l-.442.442,1.031,1.031-.295.295L3.361,18.388l-.737.737,3.241,3.241,16.5-16.5L19.124,2.624Z" transform="translate(-2.624 -2.624)" fill="#21415d"/>
    </g>
    <g id="noun_Ruler_38825-3" data-name="noun_Ruler_38825" transform="translate(372.418 2092.503) rotate(70)" opacity="0.5">
      <path id="Path_1756-3" data-name="Path 1756" d="M15.764.737l1.031,1.031-.295.295L15.469,1.031l-.442.442.589.589-.295.295-.589-.589-.442.442,1.031,1.031-.295.295L14,2.5l-.442.442.589.589-.295.295-.589-.589-.442.442,1.031,1.031-.295.295L12.523,3.978l-.442.442.589.589-.295.295-.589-.589-.442.442,1.031,1.031-.295.295L11.049,5.451l-.442.442.589.589-.295.295-.589-.589-.442.442L10.9,7.661l-.295.295L9.576,6.924l-.442.442.589.589-.295.295-.589-.589L8.4,8.1,9.429,9.134l-.295.295L8.1,8.4l-.442.442.589.589-.295.295-.589-.589-.442.442,1.031,1.031-.295.295L6.63,9.871l-.442.442.589.589-.295.295-.589-.589-.442.442,1.031,1.031-.295.295L5.156,11.344l-.442.442.589.589-.295.295-.589-.589-.442.442,1.031,1.031-.295.295L3.683,12.817l-.442.442.589.589-.295.295-.589-.589L2.5,14l1.031,1.031-.295.295L2.21,14.29l-.442.442.589.589-.295.295-.589-.589-.442.442L2.062,16.5l-.295.295L.737,15.764,0,16.5l3.241,3.241,16.5-16.5L16.5,0Z" transform="translate(0 0)" fill="#21415d"/>
    </g>
    <g id="noun_Ruler_38825-4" data-name="noun_Ruler_38825" transform="translate(206.441 2073.816) rotate(98)" opacity="0.5">
      <path id="Path_1756-4" data-name="Path 1756" d="M15.764.737l1.031,1.031-.295.295L15.469,1.031l-.442.442.589.589-.295.295-.589-.589-.442.442,1.031,1.031-.295.295L14,2.5l-.442.442.589.589-.295.295-.589-.589-.442.442,1.031,1.031-.295.295L12.523,3.978l-.442.442.589.589-.295.295-.589-.589-.442.442,1.031,1.031-.295.295L11.049,5.451l-.442.442.589.589-.295.295-.589-.589-.442.442L10.9,7.661l-.295.295L9.576,6.924l-.442.442.589.589-.295.295-.589-.589L8.4,8.1,9.429,9.134l-.295.295L8.1,8.4l-.442.442.589.589-.295.295-.589-.589-.442.442,1.031,1.031-.295.295L6.63,9.871l-.442.442.589.589-.295.295-.589-.589-.442.442,1.031,1.031-.295.295L5.156,11.344l-.442.442.589.589-.295.295-.589-.589-.442.442,1.031,1.031-.295.295L3.683,12.817l-.442.442.589.589-.295.295-.589-.589L2.5,14l1.031,1.031-.295.295L2.21,14.29l-.442.442.589.589-.295.295-.589-.589-.442.442L2.062,16.5l-.295.295L.737,15.764,0,16.5l3.241,3.241,16.5-16.5L16.5,0Z" transform="translate(0 0)" fill="#21415d"/>
    </g>
    <g id="noun_Ruler_38825-5" data-name="noun_Ruler_38825" transform="matrix(-0.978, 0.208, -0.208, -0.978, 219.969, 1914.658)" opacity="0.5">
      <path id="Path_1756-5" data-name="Path 1756" d="M15.764.737l1.031,1.031-.295.295L15.469,1.031l-.442.442.589.589-.295.295-.589-.589-.442.442,1.031,1.031-.295.295L14,2.5l-.442.442.589.589-.295.295-.589-.589-.442.442,1.031,1.031-.295.295L12.523,3.978l-.442.442.589.589-.295.295-.589-.589-.442.442,1.031,1.031-.295.295L11.049,5.451l-.442.442.589.589-.295.295-.589-.589-.442.442L10.9,7.661l-.295.295L9.576,6.924l-.442.442.589.589-.295.295-.589-.589L8.4,8.1,9.429,9.134l-.295.295L8.1,8.4l-.442.442.589.589-.295.295-.589-.589-.442.442,1.031,1.031-.295.295L6.63,9.871l-.442.442.589.589-.295.295-.589-.589-.442.442,1.031,1.031-.295.295L5.156,11.344l-.442.442.589.589-.295.295-.589-.589-.442.442,1.031,1.031-.295.295L3.683,12.817l-.442.442.589.589-.295.295-.589-.589L2.5,14l1.031,1.031-.295.295L2.21,14.29l-.442.442.589.589-.295.295-.589-.589-.442.442L2.062,16.5l-.295.295L.737,15.764,0,16.5l3.241,3.241,16.5-16.5L16.5,0Z" transform="translate(0 0)" fill="#21415d"/>
    </g>
    <g id="noun_Ruler_38825-6" data-name="noun_Ruler_38825" transform="translate(263.346 2125.335)" opacity="0.5">
      <path id="Path_1756-6" data-name="Path 1756" d="M21.52,3.507l1.236,1.236L22.4,5.1,21.167,3.86l-.53.53.706.706-.353.353-.706-.707-.53.53,1.236,1.236-.353.353L19.4,5.626l-.53.53.706.706-.353.353-.707-.707-.53.53,1.236,1.236-.353.353L17.635,7.392l-.53.53.706.706-.353.353-.707-.707-.53.53,1.236,1.236-.353.353L15.869,9.158l-.53.53.706.707-.353.353-.707-.707-.53.53,1.236,1.236-.353.353L14.1,10.924l-.53.53.707.707-.353.353-.707-.707-.53.53,1.236,1.236-.353.353L12.337,12.69l-.53.53.707.707-.353.353-.707-.707-.53.53,1.236,1.236-.353.353-1.236-1.236-.53.53.707.707-.353.353-.707-.706-.53.53,1.236,1.236-.353.353L8.805,16.222l-.53.53.707.707-.353.353-.706-.706-.53.53,1.236,1.236-.353.353L7.039,17.988l-.53.53.707.707-.353.353-.706-.706-.53.53,1.236,1.236-.353.353L5.273,19.754l-.53.53.707.706-.353.353-.706-.706-.53.53L5.1,22.4l-.353.353L3.507,21.52l-.883.883,3.885,3.885L26.289,6.509,22.4,2.624Z" transform="translate(-2.624 -2.624)" fill="#21415d"/>
    </g>
    <g id="noun_Ruler_38825-7" data-name="noun_Ruler_38825" transform="translate(186.236 2007.265) rotate(70)" opacity="0.5">
      <path id="Path_1756-7" data-name="Path 1756" d="M18.9.883l1.236,1.236-.353.353L18.543,1.236l-.53.53.706.706-.353.353-.706-.707-.53.53,1.236,1.236-.353.353L16.777,3l-.53.53.706.706-.353.353-.707-.707-.53.53L16.6,5.651,16.247,6,15.011,4.768l-.53.53L15.188,6l-.353.353-.707-.707-.53.53,1.236,1.236-.353.353L13.245,6.534l-.53.53.706.707-.353.353-.707-.707-.53.53,1.236,1.236-.353.353L11.479,8.3l-.53.53.707.707L11.3,9.89,10.6,9.183l-.53.53L11.3,10.949l-.353.353L9.713,10.066l-.53.53.707.707-.353.353-.707-.707-.53.53,1.236,1.236-.353.353L7.947,11.832l-.53.53.707.707-.353.353-.707-.706-.53.53,1.236,1.236-.353.353L6.181,13.6l-.53.53.707.707L6,15.188,5.3,14.481l-.53.53L6,16.247l-.353.353L4.415,15.364l-.53.53.707.707-.353.353-.706-.706-.53.53,1.236,1.236-.353.353L2.649,17.13l-.53.53.707.706-.353.353-.706-.706-.53.53,1.236,1.236-.353.353L.883,18.9,0,19.779l3.885,3.885L23.665,3.885,19.779,0Z" transform="translate(0 0)" fill="#21415d"/>
    </g>
    <g id="noun_Ruler_38825-8" data-name="noun_Ruler_38825" transform="matrix(0.891, -0.454, 0.454, 0.891, 195.54, 1974.997)" opacity="0.5">
      <path id="Path_1756-8" data-name="Path 1756" d="M18.9.883l1.236,1.236-.353.353L18.543,1.236l-.53.53.706.706-.353.353-.706-.707-.53.53,1.236,1.236-.353.353L16.777,3l-.53.53.706.706-.353.353-.707-.707-.53.53L16.6,5.651,16.247,6,15.011,4.768l-.53.53L15.188,6l-.353.353-.707-.707-.53.53,1.236,1.236-.353.353L13.245,6.534l-.53.53.706.707-.353.353-.707-.707-.53.53,1.236,1.236-.353.353L11.479,8.3l-.53.53.707.707L11.3,9.89,10.6,9.183l-.53.53L11.3,10.949l-.353.353L9.713,10.066l-.53.53.707.707-.353.353-.707-.707-.53.53,1.236,1.236-.353.353L7.947,11.832l-.53.53.707.707-.353.353-.707-.706-.53.53,1.236,1.236-.353.353L6.181,13.6l-.53.53.707.707L6,15.188,5.3,14.481l-.53.53L6,16.247l-.353.353L4.415,15.364l-.53.53.707.707-.353.353-.706-.706-.53.53,1.236,1.236-.353.353L2.649,17.13l-.53.53.707.706-.353.353-.706-.706-.53.53,1.236,1.236-.353.353L.883,18.9,0,19.779l3.885,3.885L23.665,3.885,19.779,0Z" transform="translate(0 0)" fill="#21415d"/>
    </g>
    <g id="noun_Ruler_38825-9" data-name="noun_Ruler_38825" transform="translate(224.757 2060.426)" opacity="0.3">
      <path id="Path_1756-9" data-name="Path 1756" d="M11.614,3.044l.588.588-.168.168-.588-.588-.252.252.336.336-.168.168-.336-.336-.252.252.588.588-.168.168-.588-.588-.252.252.336.336-.168.168-.336-.336-.252.252.588.588-.168.168-.588-.588-.252.252.336.336-.168.168-.336-.336-.252.252.588.588-.168.168-.588-.588-.252.252.336.336-.168.168-.336-.336-.252.252.588.588-.168.168-.588-.588-.252.252.336.336L8,7.329l-.336-.336-.252.252L8,7.833,7.833,8l-.588-.588-.252.252L7.329,8l-.168.168-.336-.336-.252.252.588.588-.168.168-.588-.588-.252.252.336.336-.168.168-.336-.336-.252.252.588.588-.168.168-.588-.588-.252.252.336.336-.168.168-.336-.336-.252.252.588.588-.168.168-.588-.588-.252.252.336.336-.168.168L4.3,10.354l-.252.252.588.588-.168.168-.588-.588-.252.252.336.336L3.8,11.53l-.336-.336-.252.252.588.588-.168.168-.588-.588-.42.42,1.848,1.848,9.411-9.411L12.035,2.624Z" transform="translate(-2.624 -2.624)" fill="#21415d"/>
    </g>
    <g id="noun_Ruler_38825-10" data-name="noun_Ruler_38825" transform="translate(246.449 1935.37) rotate(70)" opacity="0.3">
      <path id="Path_1756-10" data-name="Path 1756" d="M8.99.42l.588.588-.168.168L8.822.588,8.57.84l.336.336-.168.168L8.4,1.008,8.15,1.26l.588.588-.168.168-.588-.588L7.73,1.68l.336.336L7.9,2.185l-.336-.336L7.31,2.1l.588.588-.168.168-.588-.588-.252.252.336.336-.168.168-.336-.336-.252.252.588.588L6.89,3.7,6.3,3.109l-.252.252.336.336-.168.168-.336-.336-.252.252.588.588-.168.168-.588-.588L5.209,4.2l.336.336-.168.168-.336-.336-.252.252.588.588-.168.168-.588-.588-.252.252.336.336-.168.168L4.2,5.209l-.252.252.588.588-.168.168L3.781,5.63l-.252.252.336.336L3.7,6.386,3.361,6.05,3.109,6.3,3.7,6.89l-.168.168L2.941,6.47l-.252.252.336.336-.168.168L2.521,6.89l-.252.252.588.588L2.689,7.9,2.1,7.31l-.252.252.336.336-.168.168L1.68,7.73l-.252.252.588.588-.168.168L1.26,8.15,1.008,8.4l.336.336-.168.168L.84,8.57l-.252.252.588.588-.168.168L.42,8.99,0,9.411l1.848,1.848,9.411-9.411L9.411,0Z" transform="translate(0 0)" fill="#21415d"/>
    </g>
    <g id="noun_spanner_797316" transform="translate(330.606 2146.161) rotate(83)" opacity="0.5">
      <path id="Path_1757" data-name="Path 1757" d="M17.266,14.651,9.01,6.4a.716.716,0,0,1-.266-.8,4.686,4.686,0,0,0,0-2.219A4.2,4.2,0,0,0,6.169.359,4.481,4.481,0,0,0,3.151.182a.17.17,0,0,0-.089.266L4.749,2.135A2.017,2.017,0,0,1,5.015,4.62a1.793,1.793,0,0,1-2.663.266L.577,3.111a.185.185,0,0,0-.355,0A4.435,4.435,0,0,0,.311,6.129,4.519,4.519,0,0,0,3.329,8.792a4.686,4.686,0,0,0,2.219,0,.716.716,0,0,1,.8.266L14.6,17.314a1.673,1.673,0,0,0,2.663-.266A1.687,1.687,0,0,0,17.266,14.651ZM16.644,16.6a.879.879,0,1,1,0-1.243A.858.858,0,0,1,16.644,16.6Z" transform="translate(0 0)" fill="#21415d"/>
    </g>
    <g id="noun_spanner_797316-2" data-name="noun_spanner_797316" transform="matrix(-0.891, 0.454, -0.454, -0.891, 193.827, 2082.207)" opacity="0.5">
      <path id="Path_1757-2" data-name="Path 1757" d="M17.266,14.651,9.01,6.4a.716.716,0,0,1-.266-.8,4.686,4.686,0,0,0,0-2.219A4.2,4.2,0,0,0,6.169.359,4.481,4.481,0,0,0,3.151.182a.17.17,0,0,0-.089.266L4.749,2.135A2.017,2.017,0,0,1,5.015,4.62a1.793,1.793,0,0,1-2.663.266L.577,3.111a.185.185,0,0,0-.355,0A4.435,4.435,0,0,0,.311,6.129,4.519,4.519,0,0,0,3.329,8.792a4.686,4.686,0,0,0,2.219,0,.716.716,0,0,1,.8.266L14.6,17.314a1.673,1.673,0,0,0,2.663-.266A1.687,1.687,0,0,0,17.266,14.651ZM16.644,16.6a.879.879,0,1,1,0-1.243A.858.858,0,0,1,16.644,16.6Z" transform="translate(0 0)" fill="#21415d"/>
    </g>
    <g id="noun_spanner_797316-3" data-name="noun_spanner_797316" transform="translate(375.169 1963.632) rotate(-65)" opacity="0.5">
      <path id="Path_1757-3" data-name="Path 1757" d="M17.266,14.651,9.01,6.4a.716.716,0,0,1-.266-.8,4.686,4.686,0,0,0,0-2.219A4.2,4.2,0,0,0,6.169.359,4.481,4.481,0,0,0,3.151.182a.17.17,0,0,0-.089.266L4.749,2.135A2.017,2.017,0,0,1,5.015,4.62a1.793,1.793,0,0,1-2.663.266L.577,3.111a.185.185,0,0,0-.355,0A4.435,4.435,0,0,0,.311,6.129,4.519,4.519,0,0,0,3.329,8.792a4.686,4.686,0,0,0,2.219,0,.716.716,0,0,1,.8.266L14.6,17.314a1.673,1.673,0,0,0,2.663-.266A1.687,1.687,0,0,0,17.266,14.651ZM16.644,16.6a.879.879,0,1,1,0-1.243A.858.858,0,0,1,16.644,16.6Z" transform="translate(0 0)" fill="#21415d"/>
    </g>
    <g id="noun_spanner_797316-4" data-name="noun_spanner_797316" transform="translate(412.993 2060.973) rotate(5)" opacity="0.5">
      <path id="Path_1757-4" data-name="Path 1757" d="M17.266,14.651,9.01,6.4a.716.716,0,0,1-.266-.8,4.686,4.686,0,0,0,0-2.219A4.2,4.2,0,0,0,6.169.359,4.481,4.481,0,0,0,3.151.182a.17.17,0,0,0-.089.266L4.749,2.135A2.017,2.017,0,0,1,5.015,4.62a1.793,1.793,0,0,1-2.663.266L.577,3.111a.185.185,0,0,0-.355,0A4.435,4.435,0,0,0,.311,6.129,4.519,4.519,0,0,0,3.329,8.792a4.686,4.686,0,0,0,2.219,0,.716.716,0,0,1,.8.266L14.6,17.314a1.673,1.673,0,0,0,2.663-.266A1.687,1.687,0,0,0,17.266,14.651ZM16.644,16.6a.879.879,0,1,1,0-1.243A.858.858,0,0,1,16.644,16.6Z" transform="translate(0 0)" fill="#21415d"/>
    </g>
    <g id="noun_spanner_797316-5" data-name="noun_spanner_797316" transform="translate(173.337 2124.235) rotate(5)" opacity="0.5">
      <path id="Path_1757-5" data-name="Path 1757" d="M17.266,14.651,9.01,6.4a.716.716,0,0,1-.266-.8,4.686,4.686,0,0,0,0-2.219A4.2,4.2,0,0,0,6.169.359,4.481,4.481,0,0,0,3.151.182a.17.17,0,0,0-.089.266L4.749,2.135A2.017,2.017,0,0,1,5.015,4.62a1.793,1.793,0,0,1-2.663.266L.577,3.111a.185.185,0,0,0-.355,0A4.435,4.435,0,0,0,.311,6.129,4.519,4.519,0,0,0,3.329,8.792a4.686,4.686,0,0,0,2.219,0,.716.716,0,0,1,.8.266L14.6,17.314a1.673,1.673,0,0,0,2.663-.266A1.687,1.687,0,0,0,17.266,14.651ZM16.644,16.6a.879.879,0,1,1,0-1.243A.858.858,0,0,1,16.644,16.6Z" transform="translate(0 0)" fill="#21415d"/>
    </g>
    <g id="noun_spanner_797316-6" data-name="noun_spanner_797316" transform="translate(378.063 2073.177)" opacity="0.6">
      <path id="Path_1757-6" data-name="Path 1757" d="M21.835,18.566,11.37,8.1a.907.907,0,0,1-.338-1.013,5.94,5.94,0,0,0,0-2.813A5.318,5.318,0,0,0,7.77.451,5.68,5.68,0,0,0,3.944.226a.216.216,0,0,0-.113.338L5.97,2.7a2.557,2.557,0,0,1,.338,3.15,2.272,2.272,0,0,1-3.376.338L.681,3.939a.234.234,0,0,0-.45,0A5.622,5.622,0,0,0,.344,7.764,5.729,5.729,0,0,0,4.169,11.14a5.94,5.94,0,0,0,2.813,0,.907.907,0,0,1,1.013.338L18.459,21.941a2.12,2.12,0,0,0,3.376-.338A2.138,2.138,0,0,0,21.835,18.566Zm-.788,2.475a1.114,1.114,0,1,1,0-1.575A1.088,1.088,0,0,1,21.047,21.041Z" transform="translate(0.05 0.005)" fill="#21415d"/>
    </g>
    <g id="noun_spanner_797316-7" data-name="noun_spanner_797316" transform="translate(288.101 2112.348) rotate(70)" opacity="0.6">
      <path id="Path_1757-7" data-name="Path 1757" d="M21.885,18.571,11.42,8.107a.907.907,0,0,1-.338-1.013,5.94,5.94,0,0,0,0-2.813A5.318,5.318,0,0,0,7.82.455,5.68,5.68,0,0,0,3.994.23a.216.216,0,0,0-.113.338L6.02,2.706a2.557,2.557,0,0,1,.338,3.15,2.272,2.272,0,0,1-3.376.338L.731,3.943a.234.234,0,0,0-.45,0A5.622,5.622,0,0,0,.394,7.769a5.729,5.729,0,0,0,3.826,3.376,5.94,5.94,0,0,0,2.813,0,.907.907,0,0,1,1.013.338L18.509,21.946a2.12,2.12,0,0,0,3.376-.338A2.138,2.138,0,0,0,21.885,18.571ZM21.1,21.046a1.114,1.114,0,1,1,0-1.575A1.088,1.088,0,0,1,21.1,21.046Z" transform="translate(0 0)" fill="#21415d"/>
    </g>
    <g id="noun_spanner_797316-8" data-name="noun_spanner_797316" transform="translate(219.551 2115.77) rotate(-82)" opacity="0.6">
      <path id="Path_1757-8" data-name="Path 1757" d="M21.885,18.571,11.42,8.107a.907.907,0,0,1-.338-1.013,5.94,5.94,0,0,0,0-2.813A5.318,5.318,0,0,0,7.82.455,5.68,5.68,0,0,0,3.994.23a.216.216,0,0,0-.113.338L6.02,2.706a2.557,2.557,0,0,1,.338,3.15,2.272,2.272,0,0,1-3.376.338L.731,3.943a.234.234,0,0,0-.45,0A5.622,5.622,0,0,0,.394,7.769a5.729,5.729,0,0,0,3.826,3.376,5.94,5.94,0,0,0,2.813,0,.907.907,0,0,1,1.013.338L18.509,21.946a2.12,2.12,0,0,0,3.376-.338A2.138,2.138,0,0,0,21.885,18.571ZM21.1,21.046a1.114,1.114,0,1,1,0-1.575A1.088,1.088,0,0,1,21.1,21.046Z" transform="translate(0 0)" fill="#21415d"/>
    </g>
    <g id="noun_spanner_797316-9" data-name="noun_spanner_797316" transform="matrix(0.978, -0.208, 0.208, 0.978, 180.727, 1945.201)" opacity="0.6">
      <path id="Path_1757-9" data-name="Path 1757" d="M21.885,18.571,11.42,8.107a.907.907,0,0,1-.338-1.013,5.94,5.94,0,0,0,0-2.813A5.318,5.318,0,0,0,7.82.455,5.68,5.68,0,0,0,3.994.23a.216.216,0,0,0-.113.338L6.02,2.706a2.557,2.557,0,0,1,.338,3.15,2.272,2.272,0,0,1-3.376.338L.731,3.943a.234.234,0,0,0-.45,0A5.622,5.622,0,0,0,.394,7.769a5.729,5.729,0,0,0,3.826,3.376,5.94,5.94,0,0,0,2.813,0,.907.907,0,0,1,1.013.338L18.509,21.946a2.12,2.12,0,0,0,3.376-.338A2.138,2.138,0,0,0,21.885,18.571ZM21.1,21.046a1.114,1.114,0,1,1,0-1.575A1.088,1.088,0,0,1,21.1,21.046Z" transform="translate(0 0)" fill="#21415d"/>
    </g>
    <g id="noun_spanner_797316-10" data-name="noun_spanner_797316" transform="translate(312.63 1938.375) rotate(-135)" opacity="0.6">
      <path id="Path_1757-10" data-name="Path 1757" d="M21.885,18.571,11.42,8.107a.907.907,0,0,1-.338-1.013,5.94,5.94,0,0,0,0-2.813A5.318,5.318,0,0,0,7.82.455,5.68,5.68,0,0,0,3.994.23a.216.216,0,0,0-.113.338L6.02,2.706a2.557,2.557,0,0,1,.338,3.15,2.272,2.272,0,0,1-3.376.338L.731,3.943a.234.234,0,0,0-.45,0A5.622,5.622,0,0,0,.394,7.769a5.729,5.729,0,0,0,3.826,3.376,5.94,5.94,0,0,0,2.813,0,.907.907,0,0,1,1.013.338L18.509,21.946a2.12,2.12,0,0,0,3.376-.338A2.138,2.138,0,0,0,21.885,18.571ZM21.1,21.046a1.114,1.114,0,1,1,0-1.575A1.088,1.088,0,0,1,21.1,21.046Z" transform="translate(0 0)" fill="#21415d"/>
    </g>
    <g id="noun_spanner_797316-11" data-name="noun_spanner_797316" transform="translate(417.672 1979.75) rotate(-65)" opacity="0.6">
      <path id="Path_1757-11" data-name="Path 1757" d="M21.885,18.571,11.42,8.107a.907.907,0,0,1-.338-1.013,5.94,5.94,0,0,0,0-2.813A5.318,5.318,0,0,0,7.82.455,5.68,5.68,0,0,0,3.994.23a.216.216,0,0,0-.113.338L6.02,2.706a2.557,2.557,0,0,1,.338,3.15,2.272,2.272,0,0,1-3.376.338L.731,3.943a.234.234,0,0,0-.45,0A5.622,5.622,0,0,0,.394,7.769a5.729,5.729,0,0,0,3.826,3.376,5.94,5.94,0,0,0,2.813,0,.907.907,0,0,1,1.013.338L18.509,21.946a2.12,2.12,0,0,0,3.376-.338A2.138,2.138,0,0,0,21.885,18.571ZM21.1,21.046a1.114,1.114,0,1,1,0-1.575A1.088,1.088,0,0,1,21.1,21.046Z" transform="translate(0 0)" fill="#21415d"/>
    </g>
    <g id="noun_spanner_797316-12" data-name="noun_spanner_797316" transform="translate(427.56 2037.276)" opacity="0.5">
      <path id="Path_1757-12" data-name="Path 1757" d="M10.892,9.281,5.66,4.049a.454.454,0,0,1-.169-.506,2.97,2.97,0,0,0,0-1.406A2.659,2.659,0,0,0,3.86.223,2.84,2.84,0,0,0,1.947.11a.108.108,0,0,0-.056.169L2.96,1.348a1.278,1.278,0,0,1,.169,1.575,1.136,1.136,0,0,1-1.688.169L.316,1.967a.117.117,0,0,0-.225,0A2.811,2.811,0,0,0,.147,3.88,2.864,2.864,0,0,0,2.06,5.567a2.97,2.97,0,0,0,1.406,0,.454.454,0,0,1,.506.169L9.2,10.968a1.06,1.06,0,0,0,1.688-.169A1.069,1.069,0,0,0,10.892,9.281ZM10.5,10.518a.557.557,0,1,1,0-.788A.544.544,0,0,1,10.5,10.518Z" transform="translate(0.05 0.005)" fill="#21415d"/>
    </g>
    <g id="noun_spanner_797316-13" data-name="noun_spanner_797316" transform="translate(187.905 2100.538)" opacity="0.5">
      <path id="Path_1757-13" data-name="Path 1757" d="M10.892,9.281,5.66,4.049a.454.454,0,0,1-.169-.506,2.97,2.97,0,0,0,0-1.406A2.659,2.659,0,0,0,3.86.223,2.84,2.84,0,0,0,1.947.11a.108.108,0,0,0-.056.169L2.96,1.348a1.278,1.278,0,0,1,.169,1.575,1.136,1.136,0,0,1-1.688.169L.316,1.967a.117.117,0,0,0-.225,0A2.811,2.811,0,0,0,.147,3.88,2.864,2.864,0,0,0,2.06,5.567a2.97,2.97,0,0,0,1.406,0,.454.454,0,0,1,.506.169L9.2,10.968a1.06,1.06,0,0,0,1.688-.169A1.069,1.069,0,0,0,10.892,9.281ZM10.5,10.518a.557.557,0,1,1,0-.788A.544.544,0,0,1,10.5,10.518Z" transform="translate(0.05 0.005)" fill="#21415d"/>
    </g>
    <g id="noun_spanner_797316-14" data-name="noun_spanner_797316" transform="translate(351.832 2146.06) rotate(70)" opacity="0.5">
      <path id="Path_1757-14" data-name="Path 1757" d="M10.942,9.285,5.71,4.053a.454.454,0,0,1-.169-.506,2.97,2.97,0,0,0,0-1.406A2.659,2.659,0,0,0,3.91.228,2.84,2.84,0,0,0,2,.115a.108.108,0,0,0-.056.169L3.01,1.353a1.278,1.278,0,0,1,.169,1.575A1.136,1.136,0,0,1,1.491,3.1L.366,1.972a.117.117,0,0,0-.225,0A2.811,2.811,0,0,0,.2,3.884,2.864,2.864,0,0,0,2.11,5.572a2.97,2.97,0,0,0,1.406,0,.454.454,0,0,1,.506.169l5.232,5.232a1.06,1.06,0,0,0,1.688-.169A1.069,1.069,0,0,0,10.942,9.285Zm-.394,1.238a.557.557,0,1,1,0-.788A.544.544,0,0,1,10.548,10.523Z" transform="translate(0 0)" fill="#21415d"/>
    </g>
    <g id="Group_2493" data-name="Group 2493" transform="matrix(-0.19, -0.982, 0.982, -0.19, 212.405, 2010.229)" opacity="0.5">
      <path id="Path_1754-7" data-name="Path 1754" d="M8.433.037a7.7,7.7,0,0,0-1.506,0l-.311,1.2a6.532,6.532,0,0,0-1.236.331L4.51.685a7.677,7.677,0,0,0-1.3.753l.332,1.2a6.536,6.536,0,0,0-.905.9l-1.2-.332a7.687,7.687,0,0,0-.753,1.3l.886.87a6.548,6.548,0,0,0-.331,1.236l-1.2.311a7.666,7.666,0,0,0,0,1.506l1.2.311A6.55,6.55,0,0,0,1.57,9.98l-.886.87a7.676,7.676,0,0,0,.753,1.3l1.2-.332a6.524,6.524,0,0,0,.905.905l-.332,1.2a7.676,7.676,0,0,0,1.3.753l.87-.886a6.532,6.532,0,0,0,1.236.331l.311,1.2a7.666,7.666,0,0,0,1.506,0l.311-1.2A6.529,6.529,0,0,0,9.98,13.79l.87.886a7.678,7.678,0,0,0,1.3-.753l-.332-1.2a6.509,6.509,0,0,0,.9-.905l1.2.332a7.66,7.66,0,0,0,.753-1.3l-.886-.87a6.532,6.532,0,0,0,.331-1.236l1.2-.311a7.7,7.7,0,0,0,0-1.506l-1.2-.311a6.53,6.53,0,0,0-.331-1.236l.886-.87a7.672,7.672,0,0,0-.753-1.3l-1.2.332a6.521,6.521,0,0,0-.9-.9l.332-1.2a7.679,7.679,0,0,0-1.3-.753l-.87.886a6.53,6.53,0,0,0-1.236-.331ZM7.68,5.178a2.5,2.5,0,1,1-2.5,2.5A2.5,2.5,0,0,1,7.68,5.178Z" transform="translate(0 0)" fill="#21415d" fill-rule="evenodd"/>
    </g>
    <g id="Group_2497" data-name="Group 2497" transform="matrix(-0.19, -0.982, 0.982, -0.19, 435.899, 2030.546)" opacity="0.4">
      <path id="Path_1754-8" data-name="Path 1754" d="M8.433.037a7.7,7.7,0,0,0-1.506,0l-.311,1.2a6.532,6.532,0,0,0-1.236.331L4.51.685a7.677,7.677,0,0,0-1.3.753l.332,1.2a6.536,6.536,0,0,0-.905.9l-1.2-.332a7.687,7.687,0,0,0-.753,1.3l.886.87a6.548,6.548,0,0,0-.331,1.236l-1.2.311a7.666,7.666,0,0,0,0,1.506l1.2.311A6.55,6.55,0,0,0,1.57,9.98l-.886.87a7.676,7.676,0,0,0,.753,1.3l1.2-.332a6.524,6.524,0,0,0,.905.905l-.332,1.2a7.676,7.676,0,0,0,1.3.753l.87-.886a6.532,6.532,0,0,0,1.236.331l.311,1.2a7.666,7.666,0,0,0,1.506,0l.311-1.2A6.529,6.529,0,0,0,9.98,13.79l.87.886a7.678,7.678,0,0,0,1.3-.753l-.332-1.2a6.509,6.509,0,0,0,.9-.905l1.2.332a7.66,7.66,0,0,0,.753-1.3l-.886-.87a6.532,6.532,0,0,0,.331-1.236l1.2-.311a7.7,7.7,0,0,0,0-1.506l-1.2-.311a6.53,6.53,0,0,0-.331-1.236l.886-.87a7.672,7.672,0,0,0-.753-1.3l-1.2.332a6.521,6.521,0,0,0-.9-.9l.332-1.2a7.679,7.679,0,0,0-1.3-.753l-.87.886a6.53,6.53,0,0,0-1.236-.331ZM7.68,5.178a2.5,2.5,0,1,1-2.5,2.5A2.5,2.5,0,0,1,7.68,5.178Z" transform="translate(0 0)" fill="#21415d" fill-rule="evenodd"/>
    </g>
    <g id="Group_2502" data-name="Group 2502" transform="matrix(-0.19, -0.982, 0.982, -0.19, 196.243, 2093.808)" opacity="0.4">
      <path id="Path_1754-9" data-name="Path 1754" d="M8.433.037a7.7,7.7,0,0,0-1.506,0l-.311,1.2a6.532,6.532,0,0,0-1.236.331L4.51.685a7.677,7.677,0,0,0-1.3.753l.332,1.2a6.536,6.536,0,0,0-.905.9l-1.2-.332a7.687,7.687,0,0,0-.753,1.3l.886.87a6.548,6.548,0,0,0-.331,1.236l-1.2.311a7.666,7.666,0,0,0,0,1.506l1.2.311A6.55,6.55,0,0,0,1.57,9.98l-.886.87a7.676,7.676,0,0,0,.753,1.3l1.2-.332a6.524,6.524,0,0,0,.905.905l-.332,1.2a7.676,7.676,0,0,0,1.3.753l.87-.886a6.532,6.532,0,0,0,1.236.331l.311,1.2a7.666,7.666,0,0,0,1.506,0l.311-1.2A6.529,6.529,0,0,0,9.98,13.79l.87.886a7.678,7.678,0,0,0,1.3-.753l-.332-1.2a6.509,6.509,0,0,0,.9-.905l1.2.332a7.66,7.66,0,0,0,.753-1.3l-.886-.87a6.532,6.532,0,0,0,.331-1.236l1.2-.311a7.7,7.7,0,0,0,0-1.506l-1.2-.311a6.53,6.53,0,0,0-.331-1.236l.886-.87a7.672,7.672,0,0,0-.753-1.3l-1.2.332a6.521,6.521,0,0,0-.9-.9l.332-1.2a7.679,7.679,0,0,0-1.3-.753l-.87.886a6.53,6.53,0,0,0-1.236-.331ZM7.68,5.178a2.5,2.5,0,1,1-2.5,2.5A2.5,2.5,0,0,1,7.68,5.178Z" transform="translate(0 0)" fill="#21415d" fill-rule="evenodd"/>
    </g>
    <g id="Group_2499" data-name="Group 2499" transform="matrix(0.858, -0.514, 0.514, 0.858, 369.347, 2157.271)" opacity="0.4">
      <path id="Path_1754-10" data-name="Path 1754" d="M8.433.037a7.7,7.7,0,0,0-1.506,0l-.311,1.2a6.532,6.532,0,0,0-1.236.331L4.51.685a7.677,7.677,0,0,0-1.3.753l.332,1.2a6.536,6.536,0,0,0-.905.9l-1.2-.332a7.688,7.688,0,0,0-.753,1.3l.886.87a6.548,6.548,0,0,0-.331,1.236l-1.2.311a7.666,7.666,0,0,0,0,1.506l1.2.311A6.55,6.55,0,0,0,1.57,9.98l-.886.87a7.676,7.676,0,0,0,.753,1.3l1.2-.332a6.524,6.524,0,0,0,.905.905l-.332,1.2a7.676,7.676,0,0,0,1.3.753l.87-.886a6.532,6.532,0,0,0,1.236.331l.311,1.2a7.666,7.666,0,0,0,1.506,0l.311-1.2A6.529,6.529,0,0,0,9.98,13.79l.87.886a7.678,7.678,0,0,0,1.3-.753l-.332-1.2a6.509,6.509,0,0,0,.9-.905l1.2.332a7.66,7.66,0,0,0,.753-1.3l-.886-.87a6.532,6.532,0,0,0,.331-1.236l1.2-.311a7.7,7.7,0,0,0,0-1.506l-1.2-.311a6.53,6.53,0,0,0-.331-1.236l.886-.87a7.672,7.672,0,0,0-.753-1.3l-1.2.332a6.521,6.521,0,0,0-.9-.9l.332-1.2a7.679,7.679,0,0,0-1.3-.753l-.87.886a6.53,6.53,0,0,0-1.236-.331ZM7.68,5.178a2.5,2.5,0,1,1-2.5,2.5A2.5,2.5,0,0,1,7.68,5.178Z" transform="translate(0 0)" fill="#21415d" fill-rule="evenodd"/>
    </g>
    <g id="Group_2496" data-name="Group 2496" transform="matrix(-0.19, -0.982, 0.982, -0.19, 420.661, 2091.038)" opacity="0.5">
      <path id="Path_1754-11" data-name="Path 1754" d="M8.433.037a7.7,7.7,0,0,0-1.506,0l-.311,1.2a6.532,6.532,0,0,0-1.236.331L4.51.685a7.677,7.677,0,0,0-1.3.753l.332,1.2a6.536,6.536,0,0,0-.905.9l-1.2-.332a7.687,7.687,0,0,0-.753,1.3l.886.87a6.548,6.548,0,0,0-.331,1.236l-1.2.311a7.666,7.666,0,0,0,0,1.506l1.2.311A6.55,6.55,0,0,0,1.57,9.98l-.886.87a7.676,7.676,0,0,0,.753,1.3l1.2-.332a6.524,6.524,0,0,0,.905.905l-.332,1.2a7.676,7.676,0,0,0,1.3.753l.87-.886a6.532,6.532,0,0,0,1.236.331l.311,1.2a7.666,7.666,0,0,0,1.506,0l.311-1.2A6.529,6.529,0,0,0,9.98,13.79l.87.886a7.678,7.678,0,0,0,1.3-.753l-.332-1.2a6.509,6.509,0,0,0,.9-.905l1.2.332a7.66,7.66,0,0,0,.753-1.3l-.886-.87a6.532,6.532,0,0,0,.331-1.236l1.2-.311a7.7,7.7,0,0,0,0-1.506l-1.2-.311a6.53,6.53,0,0,0-.331-1.236l.886-.87a7.672,7.672,0,0,0-.753-1.3l-1.2.332a6.521,6.521,0,0,0-.9-.9l.332-1.2a7.679,7.679,0,0,0-1.3-.753l-.87.886a6.53,6.53,0,0,0-1.236-.331ZM7.68,5.178a2.5,2.5,0,1,1-2.5,2.5A2.5,2.5,0,0,1,7.68,5.178Z" transform="translate(0 0)" fill="#21415d" fill-rule="evenodd"/>
    </g>
    <g id="Group_2503" data-name="Group 2503" transform="matrix(-0.19, -0.982, 0.982, -0.19, 181.005, 2154.299)" opacity="0.5">
      <path id="Path_1754-12" data-name="Path 1754" d="M8.433.037a7.7,7.7,0,0,0-1.506,0l-.311,1.2a6.532,6.532,0,0,0-1.236.331L4.51.685a7.677,7.677,0,0,0-1.3.753l.332,1.2a6.536,6.536,0,0,0-.905.9l-1.2-.332a7.687,7.687,0,0,0-.753,1.3l.886.87a6.548,6.548,0,0,0-.331,1.236l-1.2.311a7.666,7.666,0,0,0,0,1.506l1.2.311A6.55,6.55,0,0,0,1.57,9.98l-.886.87a7.676,7.676,0,0,0,.753,1.3l1.2-.332a6.524,6.524,0,0,0,.905.905l-.332,1.2a7.676,7.676,0,0,0,1.3.753l.87-.886a6.532,6.532,0,0,0,1.236.331l.311,1.2a7.666,7.666,0,0,0,1.506,0l.311-1.2A6.529,6.529,0,0,0,9.98,13.79l.87.886a7.678,7.678,0,0,0,1.3-.753l-.332-1.2a6.509,6.509,0,0,0,.9-.905l1.2.332a7.66,7.66,0,0,0,.753-1.3l-.886-.87a6.532,6.532,0,0,0,.331-1.236l1.2-.311a7.7,7.7,0,0,0,0-1.506l-1.2-.311a6.53,6.53,0,0,0-.331-1.236l.886-.87a7.672,7.672,0,0,0-.753-1.3l-1.2.332a6.521,6.521,0,0,0-.9-.9l.332-1.2a7.679,7.679,0,0,0-1.3-.753l-.87.886a6.53,6.53,0,0,0-1.236-.331ZM7.68,5.178a2.5,2.5,0,1,1-2.5,2.5A2.5,2.5,0,0,1,7.68,5.178Z" transform="translate(0 0)" fill="#21415d" fill-rule="evenodd"/>
    </g>
    <g id="Group_2498" data-name="Group 2498" transform="matrix(0.858, -0.514, 0.514, 0.858, 289.432, 2162.423)" opacity="0.5">
      <path id="Path_1754-13" data-name="Path 1754" d="M8.433.037a7.7,7.7,0,0,0-1.506,0l-.311,1.2a6.532,6.532,0,0,0-1.236.331L4.51.685a7.677,7.677,0,0,0-1.3.753l.332,1.2a6.536,6.536,0,0,0-.905.9l-1.2-.332a7.688,7.688,0,0,0-.753,1.3l.886.87a6.548,6.548,0,0,0-.331,1.236l-1.2.311a7.666,7.666,0,0,0,0,1.506l1.2.311A6.55,6.55,0,0,0,1.57,9.98l-.886.87a7.676,7.676,0,0,0,.753,1.3l1.2-.332a6.524,6.524,0,0,0,.905.905l-.332,1.2a7.676,7.676,0,0,0,1.3.753l.87-.886a6.532,6.532,0,0,0,1.236.331l.311,1.2a7.666,7.666,0,0,0,1.506,0l.311-1.2A6.529,6.529,0,0,0,9.98,13.79l.87.886a7.678,7.678,0,0,0,1.3-.753l-.332-1.2a6.509,6.509,0,0,0,.9-.905l1.2.332a7.66,7.66,0,0,0,.753-1.3l-.886-.87a6.532,6.532,0,0,0,.331-1.236l1.2-.311a7.7,7.7,0,0,0,0-1.506l-1.2-.311a6.53,6.53,0,0,0-.331-1.236l.886-.87a7.672,7.672,0,0,0-.753-1.3l-1.2.332a6.521,6.521,0,0,0-.9-.9l.332-1.2a7.679,7.679,0,0,0-1.3-.753l-.87.886a6.53,6.53,0,0,0-1.236-.331ZM7.68,5.178a2.5,2.5,0,1,1-2.5,2.5A2.5,2.5,0,0,1,7.68,5.178Z" transform="translate(0 0)" fill="#21415d" fill-rule="evenodd"/>
    </g>
    <g id="Group_2495" data-name="Group 2495" transform="translate(206.686 2042.859) rotate(-111.929)" opacity="0.5">
      <path id="Path_1754-14" data-name="Path 1754" d="M10.579.046a9.665,9.665,0,0,0-1.889,0L8.3,1.554a8.2,8.2,0,0,0-1.55.416L5.658.859A9.631,9.631,0,0,0,4.023,1.8l.417,1.5A8.2,8.2,0,0,0,3.3,4.439L1.8,4.023A9.644,9.644,0,0,0,.859,5.658L1.97,6.75A8.214,8.214,0,0,0,1.555,8.3L.046,8.69a9.617,9.617,0,0,0,0,1.889l1.508.39a8.217,8.217,0,0,0,.415,1.55L.859,13.611A9.629,9.629,0,0,0,1.8,15.246l1.5-.417a8.185,8.185,0,0,0,1.135,1.135l-.417,1.5a9.629,9.629,0,0,0,1.635.944L6.75,17.3a8.194,8.194,0,0,0,1.55.415l.39,1.508a9.616,9.616,0,0,0,1.889,0l.39-1.508a8.191,8.191,0,0,0,1.551-.415l1.091,1.111a9.632,9.632,0,0,0,1.636-.944l-.417-1.5a8.165,8.165,0,0,0,1.135-1.135l1.5.417a9.609,9.609,0,0,0,.944-1.635L17.3,12.519a8.2,8.2,0,0,0,.416-1.55l1.508-.39a9.665,9.665,0,0,0,0-1.889L17.715,8.3A8.192,8.192,0,0,0,17.3,6.75l1.111-1.091a9.624,9.624,0,0,0-.944-1.636l-1.5.417A8.18,8.18,0,0,0,14.83,3.3l.417-1.5A9.633,9.633,0,0,0,13.611.859L12.519,1.97a8.191,8.191,0,0,0-1.551-.416ZM9.635,6.5A3.139,3.139,0,1,1,6.5,9.635,3.14,3.14,0,0,1,9.635,6.5Z" transform="translate(0 0)" fill="#21415d" fill-rule="evenodd"/>
    </g>
    <g id="Group_2501" data-name="Group 2501" transform="matrix(0.744, -0.668, 0.668, 0.744, 260.799, 1907.714)" opacity="0.5">
      <path id="Path_1754-15" data-name="Path 1754" d="M10.579.046a9.665,9.665,0,0,0-1.889,0L8.3,1.554a8.2,8.2,0,0,0-1.55.416L5.658.859A9.631,9.631,0,0,0,4.023,1.8l.417,1.5A8.2,8.2,0,0,0,3.3,4.439L1.8,4.023A9.644,9.644,0,0,0,.859,5.658L1.97,6.75A8.214,8.214,0,0,0,1.555,8.3L.046,8.69a9.617,9.617,0,0,0,0,1.889l1.508.39a8.217,8.217,0,0,0,.415,1.55L.859,13.611A9.629,9.629,0,0,0,1.8,15.246l1.5-.417a8.185,8.185,0,0,0,1.135,1.135l-.417,1.5a9.629,9.629,0,0,0,1.635.944L6.75,17.3a8.194,8.194,0,0,0,1.55.415l.39,1.508a9.616,9.616,0,0,0,1.889,0l.39-1.508a8.191,8.191,0,0,0,1.551-.415l1.091,1.111a9.632,9.632,0,0,0,1.636-.944l-.417-1.5a8.165,8.165,0,0,0,1.135-1.135l1.5.417a9.609,9.609,0,0,0,.944-1.635L17.3,12.519a8.2,8.2,0,0,0,.416-1.55l1.508-.39a9.665,9.665,0,0,0,0-1.889L17.715,8.3A8.191,8.191,0,0,0,17.3,6.75l1.111-1.091a9.624,9.624,0,0,0-.944-1.636l-1.5.417A8.18,8.18,0,0,0,14.83,3.3l.417-1.5A9.633,9.633,0,0,0,13.611.859L12.519,1.97a8.191,8.191,0,0,0-1.551-.416ZM9.635,6.5A3.139,3.139,0,1,1,6.5,9.635,3.14,3.14,0,0,1,9.635,6.5Z" transform="translate(0 0)" fill="#21415d" fill-rule="evenodd"/>
    </g>
    <g id="Group_2494" data-name="Group 2494" transform="matrix(-0.19, -0.982, 0.982, -0.19, 196.495, 1976.428)" opacity="0.5">
      <path id="Path_1754-16" data-name="Path 1754" d="M4.884.021a4.462,4.462,0,0,0-.872,0l-.18.7A3.784,3.784,0,0,0,3.117.91L2.612.4a4.447,4.447,0,0,0-.755.436l.192.693a3.786,3.786,0,0,0-.524.524L.833,1.857A4.453,4.453,0,0,0,.4,2.613l.513.5a3.792,3.792,0,0,0-.192.716l-.7.18a4.44,4.44,0,0,0,0,.872l.7.18A3.794,3.794,0,0,0,.91,5.78l-.513.5a4.446,4.446,0,0,0,.436.755l.693-.192a3.779,3.779,0,0,0,.524.524l-.192.693a4.446,4.446,0,0,0,.755.436l.5-.513a3.783,3.783,0,0,0,.716.192l.18.7a4.44,4.44,0,0,0,.872,0l.18-.7a3.782,3.782,0,0,0,.716-.192l.5.513a4.447,4.447,0,0,0,.755-.436l-.192-.693a3.77,3.77,0,0,0,.524-.524l.693.192A4.437,4.437,0,0,0,8.5,6.284l-.513-.5a3.784,3.784,0,0,0,.192-.716l.7-.18a4.462,4.462,0,0,0,0-.872l-.7-.18a3.782,3.782,0,0,0-.192-.716l.513-.5a4.444,4.444,0,0,0-.436-.755l-.693.192a3.777,3.777,0,0,0-.524-.524L7.04.833A4.448,4.448,0,0,0,6.284.4L5.78.91A3.782,3.782,0,0,0,5.064.718ZM4.448,3A1.449,1.449,0,1,1,3,4.448,1.45,1.45,0,0,1,4.448,3Z" transform="translate(0 0)" fill="#21415d" fill-rule="evenodd"/>
    </g>
    <g id="noun_cogs_419093-7" data-name="noun_cogs_419093" transform="translate(468.641 1941.72) rotate(104)" opacity="0.7">
      <g id="Group_2489-7" data-name="Group 2489" transform="matrix(-0.19, -0.982, 0.982, -0.19, 27.637, 61.797)">
        <path id="Path_1754-17" data-name="Path 1754" d="M13.637.06A12.459,12.459,0,0,0,11.2.06L10.7,2a10.563,10.563,0,0,0-2,.536L7.294,1.107A12.414,12.414,0,0,0,5.186,2.324l.537,1.935A10.57,10.57,0,0,0,4.259,5.722L2.324,5.185A12.431,12.431,0,0,0,1.107,7.294L2.539,8.7A10.588,10.588,0,0,0,2,10.7L.06,11.2a12.4,12.4,0,0,0,0,2.435l1.944.5a10.592,10.592,0,0,0,.535,2L1.107,17.545a12.412,12.412,0,0,0,1.217,2.108l1.935-.537A10.55,10.55,0,0,0,5.723,20.58l-.537,1.935a12.413,12.413,0,0,0,2.108,1.217L8.7,22.3a10.563,10.563,0,0,0,2,.535l.5,1.944a12.4,12.4,0,0,0,2.435,0l.5-1.944a10.558,10.558,0,0,0,2-.535l1.407,1.432a12.416,12.416,0,0,0,2.109-1.217l-.537-1.935a10.526,10.526,0,0,0,1.463-1.464l1.935.537a12.387,12.387,0,0,0,1.218-2.108L22.3,16.138a10.563,10.563,0,0,0,.536-2l1.944-.5a12.459,12.459,0,0,0,0-2.435l-1.944-.5a10.559,10.559,0,0,0-.536-2l1.433-1.407a12.406,12.406,0,0,0-1.218-2.109l-1.935.537a10.545,10.545,0,0,0-1.463-1.463l.537-1.935a12.418,12.418,0,0,0-2.109-1.218L16.138,2.54a10.559,10.559,0,0,0-2-.536ZM12.42,8.373A4.046,4.046,0,1,1,8.373,12.42,4.048,4.048,0,0,1,12.42,8.373Z" transform="translate(0 0)" fill="#21415d" fill-rule="evenodd"/>
      </g>
      <g id="Group_2490-7" data-name="Group 2490" transform="matrix(0.58, -0.815, 0.815, 0.58, 0, 16.134)" opacity="0.3">
        <path id="Path_1755-7" data-name="Path 1755" d="M11.086.07a10.084,10.084,0,0,0-2.373,0L8.358,1.654a8.585,8.585,0,0,0-2.173.706L4.968,1.287A10.086,10.086,0,0,0,3.048,2.682l.644,1.49A8.579,8.579,0,0,0,2.349,6.019L.733,5.868A10.088,10.088,0,0,0,0,8.124l1.4.827a8.58,8.58,0,0,0,0,2.284L0,12.063a10.084,10.084,0,0,0,.733,2.257l1.616-.152a8.571,8.571,0,0,0,1.343,1.848l-.644,1.49A10.1,10.1,0,0,0,4.968,18.9l1.218-1.072a8.585,8.585,0,0,0,2.173.706l.355,1.584a10.129,10.129,0,0,0,2.373,0l.355-1.584a8.587,8.587,0,0,0,2.172-.706L14.832,18.9a10.118,10.118,0,0,0,1.92-1.394l-.644-1.49a8.586,8.586,0,0,0,1.343-1.848l1.616.152a10.084,10.084,0,0,0,.733-2.257l-1.4-.827a8.58,8.58,0,0,0,0-2.284l1.4-.827a10.088,10.088,0,0,0-.733-2.256l-1.616.151a8.594,8.594,0,0,0-1.343-1.848l.644-1.49a10.1,10.1,0,0,0-1.92-1.395L13.613,2.36a8.587,8.587,0,0,0-2.172-.706ZM9.9,7.538a2.556,2.556,0,1,1-2.556,2.556A2.557,2.557,0,0,1,9.9,7.538Z" transform="translate(0 0)" fill="#21415d" fill-rule="evenodd"/>
      </g>
    </g>
    <g id="noun_cogs_419093-8" data-name="noun_cogs_419093" transform="translate(471.935 2150.526) rotate(174)" opacity="0.7">
      <g id="Group_2489-8" data-name="Group 2489" transform="matrix(-0.19, -0.982, 0.982, -0.19, 27.637, 61.797)">
        <path id="Path_1754-18" data-name="Path 1754" d="M13.637.06A12.459,12.459,0,0,0,11.2.06L10.7,2a10.563,10.563,0,0,0-2,.536L7.294,1.107A12.414,12.414,0,0,0,5.186,2.324l.537,1.935A10.569,10.569,0,0,0,4.259,5.722L2.324,5.185A12.431,12.431,0,0,0,1.107,7.294L2.539,8.7A10.588,10.588,0,0,0,2,10.7L.06,11.2a12.4,12.4,0,0,0,0,2.435l1.944.5a10.592,10.592,0,0,0,.535,2L1.107,17.545a12.412,12.412,0,0,0,1.217,2.108l1.935-.537A10.551,10.551,0,0,0,5.723,20.58l-.537,1.935a12.413,12.413,0,0,0,2.108,1.217L8.7,22.3a10.563,10.563,0,0,0,2,.535l.5,1.944a12.4,12.4,0,0,0,2.435,0l.5-1.944a10.558,10.558,0,0,0,2-.535l1.407,1.432a12.416,12.416,0,0,0,2.109-1.217l-.537-1.935a10.526,10.526,0,0,0,1.463-1.464l1.935.537a12.387,12.387,0,0,0,1.218-2.108L22.3,16.138a10.563,10.563,0,0,0,.536-2l1.944-.5a12.459,12.459,0,0,0,0-2.435l-1.944-.5a10.559,10.559,0,0,0-.536-2l1.433-1.407a12.406,12.406,0,0,0-1.218-2.109l-1.935.537a10.545,10.545,0,0,0-1.463-1.463l.537-1.935a12.418,12.418,0,0,0-2.109-1.218L16.138,2.54a10.559,10.559,0,0,0-2-.536ZM12.42,8.373A4.046,4.046,0,1,1,8.373,12.42,4.048,4.048,0,0,1,12.42,8.373Z" transform="translate(0 0)" fill="#21415d" fill-rule="evenodd"/>
      </g>
      <g id="Group_2490-8" data-name="Group 2490" transform="matrix(0.58, -0.815, 0.815, 0.58, 0, 16.134)" opacity="0.3">
        <path id="Path_1755-8" data-name="Path 1755" d="M11.086.07a10.084,10.084,0,0,0-2.373,0L8.358,1.654a8.585,8.585,0,0,0-2.173.706L4.968,1.287A10.086,10.086,0,0,0,3.048,2.682l.644,1.49A8.579,8.579,0,0,0,2.349,6.019L.733,5.868A10.088,10.088,0,0,0,0,8.124l1.4.827a8.58,8.58,0,0,0,0,2.284L0,12.063a10.084,10.084,0,0,0,.733,2.257l1.616-.152a8.571,8.571,0,0,0,1.343,1.848l-.644,1.49A10.1,10.1,0,0,0,4.968,18.9l1.218-1.072a8.585,8.585,0,0,0,2.173.706l.355,1.584a10.129,10.129,0,0,0,2.373,0l.355-1.584a8.587,8.587,0,0,0,2.172-.706L14.832,18.9a10.118,10.118,0,0,0,1.92-1.394l-.644-1.49a8.586,8.586,0,0,0,1.343-1.848l1.616.152a10.084,10.084,0,0,0,.733-2.257l-1.4-.827a8.58,8.58,0,0,0,0-2.284l1.4-.827a10.088,10.088,0,0,0-.733-2.256l-1.616.151a8.594,8.594,0,0,0-1.343-1.848l.644-1.49a10.1,10.1,0,0,0-1.92-1.395L13.613,2.36a8.587,8.587,0,0,0-2.172-.706ZM9.9,7.538a2.556,2.556,0,1,1-2.556,2.556A2.557,2.557,0,0,1,9.9,7.538Z" transform="translate(0 0)" fill="#21415d" fill-rule="evenodd"/>
      </g>
    </g>
    <ellipse id="Ellipse_405" data-name="Ellipse 405" cx="195.557" cy="195.557" rx="195.557" ry="195.557" transform="translate(117.716 1835)" fill="url(#radial-gradient)"/>
    <ellipse id="Ellipse_402" data-name="Ellipse 402" cx="83.348" cy="83.348" rx="83.348" ry="83.348" transform="translate(229.463 1950.903)" fill="#fff"/>
    <g transform="matrix(1, 0, 0, 1, 117.72, 1835)" filter="url(#Ellipse_403)">
      <ellipse id="Ellipse_403-2" data-name="Ellipse 403" cx="56.566" cy="56.566" rx="56.566" ry="56.566" transform="translate(138.53 142.69)" fill="url(#linear-gradient)"/>
    </g>
    <ellipse id="Ellipse_404" data-name="Ellipse 404" cx="54.026" cy="54.026" rx="54.026" ry="54.026" transform="translate(259.016 1980.456)" fill="#fff"/>
    <g id="Group_2488" data-name="Group 2488" transform="translate(290.056 2013.77)">
      <path id="Path_1619" data-name="Path 1619" d="M20679.375-11309.812a24.328,24.328,0,0,1,7.645-1.366s6.133-7.009,13.051-1.175,8.883,29.771,8.883,29.771a173.218,173.218,0,0,0-14.129-21.922C20689.838-11310.713,20685.545-11311.82,20679.375-11309.812Z" transform="translate(-20679.375 11323.748)" fill="url(#linear-gradient-2)"/>
      <path id="Path_1620" data-name="Path 1620" d="M20651.75-11382.484s6.727,10.1-5.131,21.846,8.842,14.047,8.842,14.047-19.928.02-19.988-16.076c0,0-.473-4.907,5.824-7.9A21.963,21.963,0,0,0,20651.75-11382.484Z" transform="translate(-20620.141 11382.484)" fill="url(#linear-gradient-3)"/>
      <path id="Path_1623" data-name="Path 1623" d="M20698.785-11307.617a115.115,115.115,0,0,1,3.383,19.027s-2.039-3.966-6.145-10.4C20693.719-11303.156,20698.785-11307.617,20698.785-11307.617Z" transform="translate(-20672.59 11329.756)" fill="url(#linear-gradient-4)"/>
    </g>
  </g>
</svg>
