<svg xmlns="http://www.w3.org/2000/svg" width="173.452" height="20.109" viewBox="0 0 173.452 20.109">
  <g id="Group_2641" data-name="Group 2641" transform="translate(-114.339 -42.505)">
    <g id="logo_v4" data-name="logo v4" transform="translate(114.339 42.505)">
      <path id="Path_1760" data-name="Path 1760" d="M14.318-19.4a6.4,6.4,0,0,0-2.44-1.757,8.654,8.654,0,0,0-3.026-.474,11.071,11.071,0,0,0-2.915.335,5.466,5.466,0,0,0-1.994.962A3.769,3.769,0,0,0,2.8-18.846a5.006,5.006,0,0,0-.363,1.952A3.876,3.876,0,0,0,2.8-15.123a3.115,3.115,0,0,0,1.116,1.2,7.434,7.434,0,0,0,1.938.837q1.185.349,2.831.683t2.984.725a9.038,9.038,0,0,1,2.273.976,4.2,4.2,0,0,1,1.436,1.45,4.28,4.28,0,0,1,.5,2.175,4.232,4.232,0,0,1-1.855,3.709A8.886,8.886,0,0,1,8.907-2.084a11.424,11.424,0,0,1-4.253-.739A10.23,10.23,0,0,1,1.209-5.152l.418-.363A9.285,9.285,0,0,0,4.9-3.255a10.934,10.934,0,0,0,4.03.7,8.577,8.577,0,0,0,4.672-1.1,3.693,3.693,0,0,0,1.715-3.333,4.117,4.117,0,0,0-.39-1.883,3.6,3.6,0,0,0-1.2-1.325,7.624,7.624,0,0,0-2.064-.948,28.753,28.753,0,0,0-2.956-.725Q7.066-12.18,5.8-12.529a8.2,8.2,0,0,1-2.148-.893,3.651,3.651,0,0,1-1.325-1.367,4.26,4.26,0,0,1-.446-2.05,5.077,5.077,0,0,1,.488-2.273,4.646,4.646,0,0,1,1.395-1.673,6.38,6.38,0,0,1,2.175-1.032A10.8,10.8,0,0,1,8.8-22.165a9.154,9.154,0,0,1,3.305.544,6.834,6.834,0,0,1,2.58,1.827ZM19.673-2.223v-19.8h.558v19.8Zm6.08,0v-19.8h.558V-2.781H38.75v.558Zm11.407-19.8L45.5-2.92l8.311-19.105h.614l-8.618,19.8h-.614l-8.618-19.8ZM70.713-2.781v.558h-13v-19.8H70.462v.558H58.273v8.841H68.956v.558H58.273v9.288Zm4.212.558v-19.8h8.06a4.92,4.92,0,0,1,2.231.516,5.692,5.692,0,0,1,1.771,1.367,6.516,6.516,0,0,1,1.157,1.924,5.984,5.984,0,0,1,.418,2.189,6.76,6.76,0,0,1-.363,2.2,6.064,6.064,0,0,1-1.032,1.883,5.434,5.434,0,0,1-1.6,1.339,4.954,4.954,0,0,1-2.05.6l5.02,7.782h-.669L82.845-10H75.482v7.782Zm.558-8.339h7.7a4.213,4.213,0,0,0,2.008-.474,4.931,4.931,0,0,0,1.52-1.241,5.589,5.589,0,0,0,.962-1.743A6.15,6.15,0,0,0,88-16.029a5.432,5.432,0,0,0-.39-2.036,5.7,5.7,0,0,0-1.074-1.729,5.416,5.416,0,0,0-1.6-1.213,4.308,4.308,0,0,0-1.952-.46h-7.5Zm43.147-11.184L112.911-4.873l-5.745-16.874h-1.924L99.412-4.956l-5.634-16.79h-2.12L98.241-2.223h2.148l5.745-16.651,5.718,16.651h2.175l6.582-19.524ZM125.49-2.223h2.064V-21.747H125.49Zm23.819-19.524V-5.9L136.73-21.747h-1.7V-2.223h2.064V-18.065L149.643-2.223h1.7V-21.747ZM172.57-5.4a8.453,8.453,0,0,1-5.1,1.506,8,8,0,0,1-8.339-8.088,7.991,7.991,0,0,1,8.367-8.088,7.962,7.962,0,0,1,5.885,2.287l1.283-1.311a9.62,9.62,0,0,0-7.252-2.817c-5.969,0-10.32,4.211-10.32,9.929s4.351,9.929,10.292,9.929a10.773,10.773,0,0,0,7.168-2.482v-7.447h-1.98Z" transform="translate(-1.209 22.165)" fill="#102f54"/>
    </g>
  </g>
</svg>
